<svg xmlns="http://www.w3.org/2000/svg" viewBox="0 0 212.59 377.96"><defs><style>.cls-1{fill:#c9dcec;fill-rule:evenodd;}</style></defs><title>Alberta</title><g id="Layer_2" data-name="Layer 2"><g id="Alberta"><polygon id="Alberta-2" data-name="Alberta" class="cls-1" points="164.25 377.96 161.65 377.63 157.1 377.04 152.56 376.44 148.02 375.82 143.49 375.19 138.94 374.55 134.41 373.9 129.88 373.23 125.34 372.55 120.82 371.87 116.3 371.16 111.77 370.45 107.25 369.72 102.73 368.98 98.21 368.23 93.7 367.46 89.2 366.68 84.68 365.89 80.54 365.15 80.66 364.94 80.88 364.7 81.09 364.53 81.25 364.32 81.32 363.95 81.19 363.45 80.84 363.21 80.44 363.08 80.11 362.9 79.92 362.62 79.65 362.16 79.41 361.68 79.28 361.34 79.3 360.9 79.43 360.57 79.56 360.27 79.59 359.95 79.46 359.77 79.16 359.44 78.85 359.07 78.65 358.82 78.36 358.49 78.05 358.39 77.7 358.36 77.33 358.25 77.08 358.08 76.89 357.9 76.68 357.78 76.36 357.74 76.05 357.72 75.69 357.6 75.4 357.35 75.26 356.93 75.31 356.52 75.47 356.33 75.65 356.19 75.76 355.93 75.64 355.66 75.34 355.51 74.98 355.41 74.73 355.29 74.63 355.08 74.61 354.85 74.63 354.6 74.6 354.36 74.53 354.2 74.44 354.07 74.35 353.95 74.29 353.81 74.27 353.6 74.27 353.34 74.27 353.09 74.25 352.94 74.06 352.62 73.82 352.48 73.56 352.36 73.36 352.12 73.31 352.03 73.27 351.93 73.22 351.82 73.2 351.72 73.11 351.49 73 351.41 72.86 351.38 72.74 351.29 72.43 350.63 72.28 349.84 72.32 349 72.62 348.17 72.93 347.66 73.34 346.92 73.59 346.15 73.44 345.56 73.22 345.51 72.96 345.63 72.69 345.77 72.43 345.79 72.25 345.69 72.08 345.55 71.91 345.42 71.74 345.35 71.6 345.35 71.39 345.38 71.2 345.41 71.1 345.41 71.02 345.28 71.02 345.11 71.02 344.93 70.98 344.81 70.85 344.71 70.72 344.64 70.59 344.56 70.48 344.44 70.31 344.17 70.25 343.94 70.3 343.68 70.48 343.31 70.7 343.04 70.95 342.86 71.21 342.77 71.46 342.79 71.72 342.81 71.81 342.67 71.85 342.45 71.97 342.2 72.19 341.88 72.29 341.68 72.35 341.48 72.48 341.17 72.49 341.06 72.47 340.94 72.48 340.82 72.58 340.68 72.72 340.56 72.88 340.46 73.03 340.35 73.16 340.2 73.28 339.89 73.28 339.62 73.23 339.36 73.17 339.07 73.19 338.92 73.23 338.81 73.32 338.74 73.42 338.7 73.68 338.55 73.82 338.35 73.88 338.07 73.9 337.65 73.84 336.83 73.65 336.09 73.45 335.36 73.33 334.63 73.36 334.14 73.44 333.51 73.56 332.9 73.74 332.52 73.97 332.42 74.2 332.51 74.43 332.52 74.63 332.24 74.67 331.94 74.63 331.55 74.56 331.16 74.54 330.85 74.56 330.57 74.61 330.29 74.67 330 74.7 329.7 74.73 329.54 74.78 329.42 74.83 329.31 74.81 329.13 74.75 329.06 74.63 329.01 74.5 328.96 74.43 328.86 74.36 328.63 74.32 328.35 74.28 328.07 74.22 327.81 74.17 327.71 74.1 327.63 74.02 327.56 73.98 327.45 73.93 327.13 73.93 326.72 73.95 326.31 73.99 325.98 74.12 325.43 74.22 325.05 74.25 324.68 74.16 324.15 74.09 323.75 74.07 323.38 74.1 323 74.15 322.56 74.21 322.13 74.22 321.93 74.19 321.74 74.09 321.37 73.97 320.96 73.88 320.57 73.93 320.24 74.24 320.06 74.33 319.8 74.1 319.27 73.75 318.71 73.47 318.32 73.29 318.09 73.16 317.97 73.06 317.81 72.95 317.5 72.89 317.23 72.85 316.96 72.8 316.68 72.68 316.37 72.34 315.67 72.07 315.03 71.84 314.36 71.6 313.59 71.47 313.17 71.34 312.77 71.18 312.4 70.98 312.06 70.73 311.8 70.44 311.67 70.14 311.57 69.86 311.38 69.45 311.21 68.78 311.15 68.12 311.29 67.73 311.7 67.57 311.99 67.36 312.15 67.13 312.21 66.96 312.17 66.73 311.94 66.66 311.64 66.65 311.27 66.57 310.89 66.31 310.44 65.84 309.66 65.46 308.9 65.49 308.49 65.77 308.43 65.95 308.46 66.07 308.38 66.16 308.06 66.15 307.78 66.1 307.38 66.03 306.99 65.96 306.75 65.86 306.52 65.73 306.26 65.59 306.03 65.46 305.83 65.21 305.69 64.95 305.84 64.69 306.04 64.43 306.08 64.23 305.84 64.19 305.5 64.19 305.12 64.13 304.79 63.88 304.58 63.55 304.53 63.27 304.41 63.14 304.04 63.01 303.71 62.77 303.48 62.47 303.32 62.23 303.17 62.01 302.89 61.84 302.52 61.73 302.1 61.63 301.67 61.29 301.36 60.7 301.16 60.29 300.83 60.48 300.13 60.77 299.88 61.16 299.83 61.54 299.84 61.85 299.82 62.08 299.63 62.03 299.36 61.87 299.11 61.75 298.9 61.66 298.57 61.62 298.31 61.61 298.03 61.63 297.67 61.59 297.25 61.39 297.07 61.12 296.98 60.89 296.81 60.8 296.59 60.78 296.36 60.78 296.12 60.72 295.88 60.44 295.46 60.06 295.23 59.67 295.02 59.34 294.7 59.24 294.46 59.23 294.2 59.25 293.9 59.27 293.61 59.18 293.41 58.94 293.19 58.7 293.01 58.52 292.9 58 292.74 57.4 292.62 56.82 292.45 56.36 292.15 56.04 291.82 55.58 291.31 55.17 290.75 54.97 290.27 55 289.7 55.14 289.08 55.28 288.44 55.31 287.82 54.99 287.05 54.41 286.69 53.78 286.43 53.3 285.98 53.24 285.71 53.24 285.38 53.24 285.06 53.16 284.79 52.9 284.57 52.55 284.51 52.18 284.49 51.87 284.38 51.66 284.19 51.49 283.93 51.36 283.62 51.29 283.26 51.3 283.05 51.36 282.83 51.42 282.63 51.43 282.41 51.37 282.22 51.27 282.06 51.17 281.91 51.12 281.73 51.23 281.02 51.52 280.25 51.69 279.52 51.43 278.95 50.99 278.65 50.54 278.28 50.2 277.76 50.16 277 50.24 276.57 50.28 276.29 50.24 276.06 50.07 275.79 49.78 275.51 49.52 275.36 49.32 275.16 49.17 274.74 49.14 274.38 49.15 274.12 49.14 273.86 49 273.52 48.7 273.16 48.32 272.91 47.95 272.67 47.62 272.33 47.45 271.62 47.56 270.89 47.7 270.23 47.61 269.71 47.47 269.46 47.41 269.21 47.34 268.97 47.22 268.75 47.1 268.48 47.12 268.18 47.19 267.87 47.21 267.5 47.11 267.17 46.94 266.89 46.71 266.73 46.45 266.74 46.12 266.82 45.87 266.82 45.62 266.78 45.33 266.8 45.07 266.94 44.77 267.19 44.47 267.47 44.22 267.7 44.09 267.79 43.97 267.87 43.83 267.97 43.72 268.09 43.63 268.3 43.69 268.45 43.79 268.58 43.8 268.74 43.38 269.16 42.74 269.23 42.08 269.11 41.59 268.91 41.23 268.46 41.08 267.75 41.03 266.94 40.96 266.2 40.91 265.9 40.89 265.6 40.9 265.28 40.97 264.95 40.97 264.63 40.82 264.37 40.62 264.14 40.49 263.88 40.49 263.62 40.54 263.31 40.6 263 40.66 262.72 40.66 262.28 40.54 261.91 40.35 261.59 40.17 261.3 40.03 260.99 39.92 260.68 39.81 260.37 39.67 260.08 39.41 259.77 39.08 259.54 38.74 259.31 38.45 259.07 38.24 258.74 38.08 258.32 37.92 257.89 37.75 257.54 37.7 257.45 37.63 257.35 37.57 257.25 37.52 257.16 37.46 257.08 37.38 257.04 37.3 256.99 37.24 256.92 37.24 256.78 37.29 256.63 37.35 256.49 37.37 256.37 37.26 255.99 37.17 255.68 37.13 255.38 37.15 254.93 37.22 254.61 37.31 254.28 37.4 253.95 37.45 253.6 37.46 253.32 37.45 252.96 37.41 252.65 37.32 252.45 37.09 252.41 36.91 252.67 36.76 253.05 36.56 253.38 35.88 253.69 35.11 253.5 34.36 253.09 33.78 252.71 33.18 252.65 32.45 252.82 31.78 252.88 31.38 252.45 31.09 251.57 30.78 250.97 30.35 250.58 29.74 250.35 29.23 249.99 28.91 249.34 28.67 248.56 28.41 247.75 28.55 247.23 29.15 246.79 29.89 246.4 30.43 246.01 30.84 245.38 31.04 244.74 31.01 244.13 30.7 243.6 29.94 243.09 29.14 242.77 28.36 242.4 27.68 241.71 27.45 241.22 27.2 240.6 26.91 240.11 26.54 240.01 26.37 240.14 26.21 240.37 26.06 240.62 25.94 240.85 25.84 240.94 25.72 241.01 25.6 241.11 25.57 241.26 25.58 241.53 25.57 241.79 25.5 242.03 25.36 242.26 24.9 242.45 24.3 242.35 23.66 242.17 23.14 242.14 22.75 242.34 22.29 242.63 21.88 242.79 21.62 242.62 21.61 242.44 21.66 242.18 21.71 241.9 21.73 241.69 21.66 241.32 21.54 240.97 21.49 240.59 21.59 240.14 21.84 239.86 22.14 239.78 22.46 239.75 22.73 239.57 22.84 239.23 22.67 238.98 22.41 238.83 22.25 238.73 22.12 238.53 21.96 238.21 21.82 237.88 21.77 237.59 21.81 237.28 21.92 237.04 22.04 236.81 22.12 236.52 22.05 236.17 21.83 235.9 21.57 235.66 21.4 235.39 21.34 235.16 21.34 234.91 21.32 234.67 21.27 234.44 21.28 234.04 21.54 233.75 21.9 233.54 22.15 233.41 22.47 233.05 22.53 232.73 22.44 232.41 22.32 232.08 22.24 231.45 22.22 230.86 22.16 230.3 21.93 229.82 21.69 229.61 21.39 229.38 21.14 229.07 21.07 228.64 21.15 228.4 21.31 228.19 21.49 227.94 21.63 227.61 21.68 227.16 21.57 226.88 21.34 226.69 21.07 226.49 20.92 226.25 20.93 225.93 20.97 225.59 20.93 225.26 20.71 224.98 20.39 224.88 20.05 224.9 19.7 224.94 19.44 225 19.1 225.09 18.77 225.17 18.54 225.18 18.27 224.8 18.29 224.15 18.37 223.41 18.25 222.79 17.98 222.12 18.1 221.7 18.37 221.29 18.57 220.64 18.56 220.02 18.37 219.85 18.11 219.82 17.86 219.68 17.81 219.46 17.82 219.17 17.79 218.93 17.57 218.87 17.26 218.97 16.97 219.06 16.78 218.95 16.83 218.49 17 218.2 17.25 217.97 17.49 217.74 17.66 217.5 17.75 217.16 17.69 216.93 17.56 216.74 17.4 216.51 17.09 215.87 16.8 215.22 16.47 214.59 16.09 214.03 15.85 213.81 15.63 213.65 15.4 213.46 15.2 213.19 15 212.85 14.82 212.53 14.57 212.31 14.21 212.27 13.99 212.39 13.87 212.63 13.79 212.92 13.73 213.24 13.6 213.55 13.46 213.71 13.32 213.81 13.19 214.02 13.15 214.3 13.18 214.59 13.18 214.87 13.1 215.1 12.79 215.27 12.5 215.08 12.26 214.75 12.06 214.47 11.85 214.29 11.64 214.19 11.45 214.11 11.23 214 11.05 213.76 10.95 213.46 10.84 213.19 10.59 213.07 10.27 213 10.08 212.86 9.94 212.7 9.72 212.53 9.43 212.42 9.19 212.36 9 212.22 8.81 211.84 8.62 211.2 8.4 210.51 8.21 209.82 8.04 209.16 8.01 208.93 7.99 208.56 7.98 208.15 7.98 207.83 8.06 207.4 8.15 207.07 8.16 206.79 8 206.47 7.76 206.3 7.43 206.25 7.08 206.27 6.79 206.32 6.42 206.32 6.08 206.17 5.77 205.97 5.44 205.78 5.16 205.59 4.86 205.32 4.55 205.11 4.22 205.04 4.02 205.19 3.79 205.45 3.56 205.65 3.37 205.63 2.99 205.19 2.6 204.75 2.23 204.29 1.93 203.74 1.78 203.21 1.72 202.57 1.69 201.92 1.64 201.31 1.51 200.53 1.3 199.98 0.96 199.73 0.48 199.79 0.28 199.75 0.11 199.51 0 199.19 0.01 198.85 0.18 198.57 0.43 198.38 0.65 198.19 0.71 197.89 0.62 197.53 0.46 197.19 0.32 196.87 0.25 196.49 0.41 196.21 0.82 196.25 1.25 196.41 1.5 196.54 1.99 196.85 2.72 197.22 3.46 197.34 4 196.88 4.08 196.28 3.91 195.7 3.65 195.21 3.46 194.82 3.42 194.54 3.39 194.27 3.34 194.01 3.19 193.82 2.95 193.82 2.68 193.94 2.43 194 2.29 193.82 2.14 193.52 1.91 193.43 1.67 193.37 1.5 193.15 1.45 192.89 1.49 192.71 1.61 192.52 1.75 192.24 1.85 192.09 2.01 191.86 2.15 191.61 2.2 191.37 2 191.06 1.64 190.91 1.24 190.78 0.94 190.54 0.8 190.01 0.87 189.45 1.03 188.84 1.25 188.14 1.7 186.55 2.15 184.96 2.6 183.38 3.05 181.78 4.72 175.87 6.39 169.95 8.07 164.04 9.75 158.14 10.8 154.49 12.82 147.37 14.86 140.25 17.43 131.32 20.01 122.39 22.6 113.47 25.18 104.54 27.78 95.64 30.39 86.72 32.84 78.39 35.29 70.07 37.75 61.75 40.21 53.43 42.68 45.12 45.16 36.81 47.65 28.51 50.14 20.21 50.9 17.68 51.66 15.16 52.42 12.63 53.18 10.1 53.95 7.58 54.7 5.06 55.47 2.53 56.24 0 65.84 2.58 75.46 5.08 85.11 7.49 94.8 9.82 104.5 12.08 114.22 14.25 123.98 16.34 133.75 18.35 143.54 20.28 153.35 22.13 163.18 23.9 173.03 25.59 182.9 27.18 192.78 28.7 202.68 30.14 212.59 31.5 211 42.26 209.41 53.02 207.81 63.79 206.23 74.57 204.66 85.35 203.09 96.13 201.53 106.92 199.97 117.7 198.41 128.5 196.86 139.31 195.32 150.11 193.78 160.92 192.25 171.73 190.74 182.54 189.21 193.36 187.7 204.18 186.19 215 184.69 225.83 183.19 236.68 181.7 247.5 180.22 258.34 178.73 269.19 177.27 280.03 175.79 290.87 174.33 301.73 172.87 312.57 171.43 323.43 169.98 334.29 168.54 345.14 167.11 356 165.68 366.87 164.26 377.73 164.25 377.96"/></g></g></svg>