<svg xmlns="http://www.w3.org/2000/svg" viewBox="0 0 244.48 377.96"><defs><style>.cls-1{fill:#c9dcec;fill-rule:evenodd;}</style></defs><title>British Colombia</title><g id="Layer_2" data-name="Layer 2"><g id="BC"><path id="British_Colombia" data-name="British Colombia" class="cls-1" d="M45.57,228l.15-.38.05-.33-.07-.39-.8-2.48-.13-.73-.13-.38-.37-.41-.11-.35-.15-.75-.67-1.32-.29,0-.22.3,0,.56-.4.26-.19.24,0,.31.07.48-.17.12.15.43.46.72.07.41-.1-.13-.1-.07-.12,0-.15,0,.09,1.5.19.67.56,0-.33.53-.11.53.11.38.37.07-.1.44,0,.42.17.25.32-.1.21,0,0,.28-.12.39-.27.33.22.1v.21l-.09.29-.09.36.63-.29.49-.51.36-.64.4-1Zm8.61-4.41-.21.18-.76,1.36-.35.49-.16.27-.24.79-.08.15-.18.08-.08.32v.37l0,.23L52,228l-.07.69.1,0,.26-.31.43-.4.26-.35.68-1.8.21.27.21-.28.16-.5.17-.73,0-.39,0-.34Zm-2.89,16.15-.89-.44-.36,0-.29.28-.21.41-.13.39-.06.12-.12.11-.08.14,0,.09.08.06h.11l.18-.15.07.2,0,.29,0,.13.12.16.07.47.13.07.56-.69.09-.09.22-.35.29-.24.34-.12.34,0-.11-.48Zm-7.52-29-.35-.17-.4,0-.4.34-.25.53.13.28.24.22.06.35-.16.05-.14.14-.05.16.1.12.35-.19H43l-.05.29-.12.46,0,.34L43,214l.07.47,0,.79.05.38.21.24,0,.07.28.66.18.1.36.07.2-.13.16-.44.19-.89v-.48l-.11-.27-.16-.24-.1-.38-.13-1.65-.22-.61-.06-.36L44,211Zm.55,61.66-.16.12-.19.06-.7,0-.06.24.35.26.27,0,.13.27.41.15.1.16.13.11h.18l.23,0,.22-.1.1-.19v-.3l0-.16-.13-.22-.76-.39Zm6.1-15.57-.13-.94-.23-.71.26-.24.09-.45V254l-.08-.66H50l-1.46.47-.72.38-.53.61-.18,1,.1,1.26-.06.35-.13.57,0,.58.09.51.17.32.33.16.21-.09H48l.19.52.22.39,0,.18,0,.17,0,.16.12.14.23,0,.38-.08.38-.19.24-.3.09-.44,0-.58-.05-.51-.14-.27.54-.79Zm1.91-15.65-.32-.07h-.3l-.29.06-.11,0-.12.08-.13.11-.32.36-.05.08-.25.13-.36.37-.26.41.1.46-.05,1.11,0,.23-.06.16,0,.13V245l.08.14.15.09.19,0,.16,0,.13-.15.25-.42.14-.18.15-.08.3-.06.14-.08.3-.46.89-2.15.17-.14-.16-.19Zm.35,7.45.57-.85.32-.37,0-.39.15-.35.39-.71-.12-.43-.38-.21-1.05-.13L52.2,245l-.2,0-.42.09H51.4l-.32.1-.44.35-.81.83-.27.19-.13.18,0,.3.1.5,0,.24-.59,0-.33.26-.24.34-.07.3.18.29.33.17.64.17h.1l.24-.05.06,0v.18l-.07.13-.08.1,0,.07,0,.54v.2l-.12.36-.16.17-.15.11-.12.18-.07.08-.16.24-.13.26,0,.15h.36l.38-.1h.28l.07.3.53-.05.29-.1.21-.19.11-.32v-.31l0-.32v-.33l.17-.12,0-.2L52.37,249ZM46.59,236.5l.74-.81.59-1.05.22-1.06.14-.15.11-.18.18-.43v-.26l-.06-.2-.18-.38-.15.07-.15,0-.16,0h-.15l.24-.18.09-.06.07-.16-.69-.08-.39,0-.27.08-.29.38-.19.5-.1.52,0,.43,0,.11-.12.25,0,.12.22.27-.08.24-.24.49-.08.24,0,.41.21.67-.08.46Zm1.37-6-.15,0-.15.13-.13,0-.11-.13-.06-.17,0-.19-.07-.18-.16-.29-.18-.15-.21.1-.25.41.21.31.14.42.19.34.36,0,.15.23h.21l.14-.16-.09-.28.31-.16.08.19,0,.32.16.23.15.13.3.5.22.53.37.37.1.31.11.24.24.15.28,0,.24-.1.61-1,.3-2.87.36-1.34-.08-.37-.27.23L51,229l-.13.44-.39.15-2-.71h-.12l-.14.07-.09.09,0,.07v.09l-.21.31,0,.18.06.11.2.2.07.11-.12,0-.13.06.17.36.08.1-.16.15Zm-6.82-15.85.17-.05.18-.09.16-.14.14-.19-.24-.08-.11-.17-.11-.5-.11-.13-.64-.17-.63-.48-.24-.08.1.21.35.3.09.18,0,.13.18.39.07.09h.15l.11-.07.1,0,.14.11.07.15,0,.19v.44ZM39,283v0l-.08,0Zm19.48,41.36-.14-.16-.31-.27-.3-.19-.29,0-.25.18,0,.3.11.27-.07.3,0,.26.42.4.15.07.13-.06.2-.45.17-.18h.27l.07-.14-.05-.21Zm-8.12-52.68.19,0,.1.07.22,0,.35-.25.16-.41-.22-.24-.18-.06h-.69l-.22.06,0,.11,0,.33.06.22Zm43.2,82.86-.16-.37,0-.41.13-.95-.1-1.61,0-.24.11-.1.05-.28,0-.28v-.11l.08-.31,0-.2-.06-.15-.15-.16-.17-.09-.28-.07-.28,0-.18.07-.08.3.08.27.28.44-.75.13-.05.39-.29.72,0,.41-.85.47-.4.07,0-.38.17-.23.19-.12.19-.16.17-.35.07-.38-.05-.28-.09-.22,0-.23.08-.34.15-.15.16-.14.16-.3v-.19l-.18-.6-.09-.2L90.59,347l-.22-.36.05-.16.25,0,.29.11.25.21.15.27.16.15.21-.32.17-.48.05-.33L91.9,346l-.12,0H91.5l0-.09.08-.16.12-.15.09-.06.24-.11-.1-.44-1.29-2.64-.13-.38,0-.24-.57-.78-.47-1.07,0-.15.35-.06.13.23.07.34.16.25.24,0,.13-.18,0-.31,0-.35.4-.07,0-.36-.27-.8,0-.49,0-.44,0-.39-.15-.34h-.22l-.58-.42-.35,0-.18-.09-.15-.27v-1.09l-.07-.36v-.15l.32,0,.06-.16v-.21l0-.17-.26-.4-.45-.27-.95-.32-.19-.12-.3-.34-.2-.13-.48,0-.21,0-.17-.19.33-.2.58.11.31-.05-.53-1-.2-.19-.17,0-.24,0-.16,0-1.49-1.19-.12-.14-.09-.22-.24-.35-.39-.24-.87-.33-1.41-.85-.67-.58-.47-.69,0-.16-.06-.6-.12-.16-.32-.27-.1-.2-.26-.34-.77-.16-.25-.38v-.22l.08-.48v-.19l-.1-.17-.27-.23-.24-2.86-.06-.27-.22-.51-.06-.19-.09-.19-.13-.12-.08-.18.06-.34.12,0,1.15.73.27-.06L79,318l.1-.44,0-.34L76.19,311l0-.35v-.84l0-.38v-.22l.16-.45v-.2l-.32-.92.16-.38-.29-.79V306l-.21-.2-.36-.48-.18-.43.35,0-.13-1.5.15-1.51v-.41l-.06-.42.18-.14,0-.5-.15-.46-.24-.36-.64-.44-.44-.66-.33-.24-2.38-.43-.16-.12-.4-.62-.63-.5-1.43-.6-.29-.21-.72-1.07-1.14-1.2-1-.73-1.19-.32-.3-.19-.56-.58-.34-.21-1.51-.21-.28-.33-.09-.15-.38-.28-.15-.07-.07-.06-.13-.18-.1-.06-.12,0-.13.32-.14.09-.38-.16-.3-.83-.29-.29-.33-.21-1-1.1-.32-.22-.49-.19h-.1l-.15.07-.23.27-.11,0-.19-.13.08-.13.18-.15.13-.16,0-.22-.21-.16-1.52-.57-.19-.24.1,0,.21-.13.1,0-.07-.1-.09-.09-.08-.06-.09,0,.08,0-.09,0-.15-.06-.69-.45-.16,0h-.11l-.1,0-.12-.11v-.41l0-.15-.2-.15L52.3,284l-.24-.21-.11-.19-.08-.24-.13-.31-.32-.42-1.08-1-.24-.38-.29-.61-.07-.6.4-.35-.3-.24-.36.25-.39.43-.38.33,0-.22v-.16l-.05-.29,0-.21.1-.19.1-.14h0l0-.4,0-.31-.13-.22-.25-.12h0l-.36-.52-3.91-3.41-.49-.29-1.52-.34-.5-.38-.29-.15h-.34l-1.07.4-.41-.4-.7.1-.77.23-.63,0-.48-.32h-.14l-.42.22,0,.06-.28-.05-.35,0-.23.15.07.31-.16.4v1l-.11.5v.19l.1.26.12.23.1.11.19,0h.35l.18,0,.24.18-.16.13-.37.05-.35-.05-.22,0-.06.26,0,.45,0,.27.13.1.32.06.47.55v.29l-.16.56v.89l.09.1.14.1.12.15.16.29.06.21,0,.4.06.18.16.19.35.29.13.39.1.18.11.16.08.08.27,0,.07-.12v-.19l0-.27,0-.06-.11-.07.35-.31.23.18.16.37.2.25.7.18.74,0,.75-.19.3.07,0,.42,3-.08.72.21.39,0,.12-.36-.15-.37-.27-.35-.68-.51L43,281.31l-.24-.21-.27-.39-.21-.44-.05-.37.67.77L45.8,282l.18.15.12.24.12.31.09.14.07.2.13.11.28-.14.39-.12,1.49.16-.27.51-1.25-.09-.56.48-.38-.2-.39.48-.19.69.49.91.1.87v1.57l-.35-.31-.18-.52-.23-1.8-.13-.43-.25-.29L42.83,284l-.47,0-.45.1h-.43l-.43-.36-.22.3-.24-.06-.45-.38-.18,0-.17.2-.11.27v.24l-.06.16-.34.17-.36.43-.42.64-.27.07,0,.41.22.47.33.28.21,0,.42-.21.15,0,.13.18.17.58.13.05.21,0,.18.11.06.22-.15.29-.22.1-.44-.08-.24.19.19.26.07.15.09.42.07.1.28.08h.36l.15,0,.06.17-.09.26-.17.08h-.34l-1.48,1-1.13.45-.25.24,0,.44.26.31.7.34,0,.1.13.43.09.13h.19l.22-.1,1.12-.77.75-.37.74-.21.64.05-.26.21-.27.27-.21.33-.07.38.15.37.32.08.69,0,.53-.15.66-.44.64-.25.48.39-.75.34-.35.21-.25.26,1,.38-.71.12-.24.15-.13.44,0,.42.12.41.35.66.25.27.32.17.36.07.4,0,.4-.12.29-.21.21-.29.17-.39.09-.41,0-.5.08-.4.16-.12.17.22.16.42.12.44v.29l.11.23.35.23.4.1.36-.23.37,0,.14,0L49,296l.1-.2.11-.18.21-.13,0,.55-.26.45-.4.27-.71,0-.36.22-.36.35-.29.41,0,.12.07.1,0,.12-.13.16-.09,0-.09,0-.12.05-.73.56-.23.32v.41l.6,2.37.22.32.35.11.41,0,1.93.66.16,0,.23-.36.46-1.18.21-.44.09-.14.1-.22.08-.1v.43l-.3,1.68.05.23.17.08.27.07.25,0,.35-.18.34-.27.21-.3V302l-.33-.58.1-.31.45.67.18.39,0,.8.13.5.22.44.27.23.4-.06.4-.18.22,0-.13.61-.3,1-.07.41-.26,2.2,0,.45.23.32.4.21.47.05.44-.12.38-.3.21-.32.27-.84.16-.16.21.13.33.37.19.15-.07.15-1.53,1.07-.26.36.05.32.28.36,1.51,1.2.21.11.52-.16,1.71,0,1.21.32.13.1.09.18,0,.22,0,.23h-.82l-.15-.08-.3-.27-.21-.07h-.19l-.4.1L56.27,312l-1.15-.61-.55-.13-.92.37h-.58l-.29.07-.29.13-.07.09-.13.17-.12.19,0,.17-.05.13-.14.11,0,.34,0,.13.07.14-.05.15-.09,0,0,.28-.06.16-.1.15-.12.23-.22.6v0l-.27.47-.19.26-.07.28.1.5.12.34.16.24.25.12.4,0,.46-.16.08-.24-.06-.36v-.54l.19-.17.33-.23.34-.16.27,0,.1.23,0,.64.13.35-.29.15.09.23.24.26.16.24.1.26.13.22.35.38,0,.11v.15l0,.14.14,0,.09-.07.27-.32.37-.37.21-.35.1-.38,0-.38.24-.06.13.16,0,.3-.08.36,0,.22.16.2.21.15.18.08.11,0,.07-.1.09-.08.29,0,.27,0,.32,0,1-.12.13,0,0,.17-.16.41-.12.21-.34.3-.18.27-.05,1,.12.27.27.33.09.2.37-.08.33-.19.28-.34.23-.52.24-.27.78-.44.3-.39.07.46-.37.51-.49.5-.78,1.15-.56.24-.55.11-.45.34.11.55.13.39.2.26.3.16.32-.1.87-.6h.41l.16.16.12.3.13,0,.15-.11L61,323l.18-.25.34-.64.33-.41.35-.32.26-.18.1,0-.13.35-.23.38-.25.33-.23.23-.14.25-.33.89-.06.23.12.21.21.06.27-.07.27-.17.18,0-.16.36-.41.65-.47,1.27,0,.54.46-.18.55-.36,1.71-.6-.19.44-.23.19-.22.15-.18.3-.22.2-.71.17-.26.32-.13-.08-.75.28-.15.09-.37,0-.24-.13-.18-.25-.15-.35-.3.13-.5-.06-.21.13-.12.3.06.27.15.23.16.19,1.41.91.28.52.1.26.3.4.33.79,0,.13v.34l0,.19.15.24.47.32.16.26.12.25.18.27.21.23.19.14v.1l.12.09.3.13.16,0,.13-.14.11-.14.07-.06.35-.05.68-.53.64-.18.27-.42.25-.47.29-.28.15,0,.1.15.07.18.1.14.17.08.56.16,0,.16h-.38l-.4.19L66,333l.27.27.75.31.32.31.29.11.39-.18.67-.47h.42l.23.22.2.31.35.24h.17l.38-.13h.19l.75.42.4.09.78-.14h.29l.36-.08.29-.4.48-1,.3-.3.36-.26L75,332l.26-.46.33-1,.19-.9,0-.18.11-.15.12-.11.13-.09.12-.06L76,330.54v1l-.26.41-.35.33-.26.39-.5.93-.72.76-.8.53-.69.26h-.77l-.38.06-.41.26-.26.26-.05.16V336l-.07.35-.13.18-.21.07H70l-.38-.08H69.4l-.18,0-.22.1-.15.12-.27.33-.12.11-1.15.31-.34.29.28.47.15.38.26,1,.16.28,3.65,3.41.19.27.28.74.44.64.85.89,2.15,1.4.28.22.11.08.4-.28.21-.11.23-.07.17,0,.49.26.13.16-.33.12-.45.22-.22.27.32.26.38.17L80.43,352l3.26,2.79.73.37,1,.27L86,356l.35.44.28.24.16.44.2.14h.24l.5-.11.28.06-.13.43.34.21.39-.06,0-.38.21-.16.36-.2.18-.13.13-.21.07-.22.12-.14H90l.32-.15.73-.86.33-.19.93,1.45.45,0,.51-.1.32-.16.28-.55,0-.51-.12-.46ZM54.06,284.22l.54,0,.38.51,1.51.7.4,0,.18,0,.13,0,.07.13.1.12.11,0,0-.24-.18-.39-.21-.45-.14-.22-.64-.08-1.48-.6-.48-.35-.48-.24-.28,0-.36.18-.27.3.33.39Zm13.47-42.83.13-.55-.17-.31-.16-.06-.5.24-.28.07-1.64-.06-.29,0-.3.14-.22.23-.28.33-.29.27-.4.1-.32.27-.18,0-.3-.08-.16,0-.5.23H61l-1,.34-.6-.22-.58-.1-.62.58-.3,0-.56.38-.56.53-.31.41-.22.74,0,0-.12.13-.09,0H56l-.12.07-.23.22-.15.19-1.07,1.82-.34.77.06.42.23,0,.62-.1h.28l.75.2.35,0,.5-.08.43-.27.11-.53.14-.44.4-.51,1.37-1.39.34-.15.38,0,.13-.07.33-.44.19-.17.17,0,.4.1h.18l.78-.16.42-.18.27-.3.74-.19.1.06.19.23.13.06.08,0,.15-.16.09,0,1.49-.21.77-.35.78-.73-.3-.52.11-.44Zm-27.75-26,.44-.37.17.09.11.5.17.18.23,0,0-.3,0-.39v-.32l0-.51-.31-.28-.78-.24,0,.32.06.52-.22.85ZM52,310.5l.16-.53.11-1,.35-1.18.1-.45,0-.38,0-.4.12-1.19v-.63l-.16-.14-.39.14-.24-.26L52,304l0-.37-.51-.11-1.17.26h-1.4l-.36-.05-.17.07-.25.27.31.29.13.06.12.1.13.3.1.09,0,.07.12.28.08.1h.11l.16,0,.17,0,.13.08.05.23-.18.11-.28,0-.46-.06-.21.08-.19.17-.18.22-.12-.38L48,305.6l-.17,0-.22.43.53,1.39.63.92.14.36.12.52.15.3,1.61,1.53.63.15Zm-11.9-97.92.52.38h.49l.08-.57-.16-.72-.21-.48-.15-.21-.34-.18-.4-.11h-.33l0,.8.15.63Zm-.47-16.24.11-.22.16-.18.15-.24,0-.31-.11-.24-.49-.56-.22-.1-.18-.14-.06-.3.05-.33.12-.29.18-.25.23-.22-.07-.25-.23-.46-.16-.23-.28,0-.19.24-.12.4-.09.45-.27.15-1.18.4-.8.38,0,.21.15.29,0,.17,0,.24,0,.62.11.36.46.33.34.75,1,.58.56.8.34.14.15-.86,0-.38,0-.38.17-.13Zm6.27,101.93h.13l.07-.1,0-.08,0-.24-.23-.43-.31-.18-.27,0-.2.09-.09.14-.07.15-.11.1-.07.21.09.24.14.17.09.27.18.08.51-.39Zm11.48,23.61v-.35l0-.34v-.3l.33-.52,0-.65-.16-.61-.25-.43-.29-.08h-1l-.32-.08-.11.07-.12.28-.05.23-.26.29v.3l0,.29-.07.31-.24.07,0,.68.43.28.53.15.27.33.61.5.32.08.42-.16ZM3.22,199.5l1.26.34.29-.13-.16-.29-.1-.13-1.68-1.1-.15,0H2.55l.4,1.17Zm36.61-23.94,0-.12-.18.13v-.21l-.34.14-.4.1-.31.21-.08.5.19.19.4.15.38-.06.15-.45.13-.13.11-.15-.08-.07v-.1Zm12.85,67.07-.07.24,0,.39-.09.42V244l.07.27.16.29.21.18.22,0,.46-.12.67.49.38,0,.18-.18.17-.21.19-.18.51-.27.18-.22.4-.55-.18,0-.13.07-.13.09-.13,0-.13-.08-.22-.21-.11-.07L54,242.76l-.21,0-.4.2-.16,0-.36-.31ZM39.58,169.23l-.29,0-.27.1-.15.18-.06.21,0,.19,0,.16-.11.14-.24.21-.2.28-.28.15-.15.22-.58,1.26-.11.16-.13.16-.09.17,0,.2,2.23-.64.2-.15,1-.37.3-.21.23-.24.49-.63,0-.09v-.08l.06-.19.06-.37h-.25l-.38.16-.26.06-.18-.22-.09-.29-.15-.18-.36.14,0-.3ZM34,187.94l-.14.31,0,.15.13.11.21.08.21.42.06.07h.35l.21-.27.09-.4,0-.38-.14-.28-.18-.21-.13-.26v-.4l.26-.23.25-.31.25-.25.27-.07-.13.4.1.09.21-.1.21-.14.16,0,.13.23.13.48.16,1,.19.32.42.26.35-.15.37-.54.36-.61.33-.38.26-.06.63.23.42,0,.18,0,.11.15-.21.1-.08.13,0,.15.15.13-.08.17-.46-.19-.46,0-.29.13-1.12,1-.16.11-.19.11-.23,0-.1,0,0,0-.11.29-.07.56.28,0,.4-.24.34-.08,0,.11-.08.58v.2l.12.09.46.19.16,0,.22-.13.15-.19.14-.22.19-.21.63-.48.35-.18.8-.3.34-.3.16-.48,0-.61-.06-.54-.13-.27-.07-.2-.21-1.25-.47-.87-.34-.27-.36.37-.29,0-1-.21-.09.29-.92.27-.27,0h-.3l-.32.18-.32.24-.3.16v0l-.1-.06-.15,0H35.8l-.14.11-.28.38-.1.06-.27.1-.34.31-.25.35,0,.2.07.22-.19.37ZM9.67,205.55l-.28-.23-.9-.11H8.16l-.08.38.21.41.35.25.49.22.64.11h.34l.15,0,.27,0,.1-.16-.12-.15-.21-.12L9.72,206l-.3-.16v0h.23ZM7.13,166.16l.11.13.15.12,0,.23-.09.28.11.18.24,0,.13,0,.07-.18.18-.3.33-.3,0-.15-.07-.2-.13-.24L8,165.57l-.4-.29-.32-.07-.3.15-.23.28,0,.21.31.19Zm5,44.24,0-.49-.21-.14h-.4l-.44.12-.29.29-.18,0-.73-.27H9.46l.07-.38-.09-.2-.21-.07-.27,0,.4-.23.89.39.43,0-.9-.67-.57-.19-.46.18-.13.52.29,1.12-.3.4L8.65,212l.12.34.34.08.51-.26-.28-.79.32-.42,0-.05h0v0l0-.11.24.23.32.74.21.32.26.11.37,0,.29-.14v-.38l.48-.51.21-.4Zm0,16.79-.09,0-.08.05-.07,0-.08-.09-.09-.28-.12-.13-.22-.41.17-.2,0-.16,0-.13-.15-.08-.23-.22H11l-.15.16-.53.72-.16.31-.11.59-.16.41-.1.39.12.24.12.17-.13.22-.26.2-.26.12.21,1,.16.51.3.32,0-.38v-.19l0-.18.55.06,0-.39-.12-.57.1-.38.19.35.24.29.15,0L11,229l-.44-.69-.08-.42.32-.5,0,.5.1.14.47,0,.43.27.25.07.26-.14.24-.4,0-.27Zm1.23-27.33-.11-.12,0-.19,0-.44V199l-.16-.27-.73-.7.08-.17.36-.06.16-.41.18-1.4v-.1l-.15-.12-.18.06-.19.1-.18,0-.88-.36-.63.07-.24.18-.1,0h-.07l-.13-.1-.07,0-1.2.35-.28.23-.28.12L6,195.56,5.42,195,5.18,195,5,195l-.36.18-.15,0-.41,0-1.17-.52-.3-.27-.28-.39-.3-.3H1.63l.09.72,0,.31-.26,0-.11.11,0,.37.16.41.21.23-.34.3-.07.34.11.3.23.19h.27l.32-.08.22.06v.4l.27-.05.53.13.27,0-.08.07-.16.21,1.07.43.46.33.2.69.18.27.78.12.15.22-.15.22-.3.17-.33.1H5.14l-.08.17.08.15,0,.18,0,.19-.09.22-.46-1.16-.05.28,0,.24.07.18.13.14-.31.23-.2-.23L4,200.19l-.12-.12L3.71,200l-.18,0-.19.08-.12,0-.33-.3-.21,0-.2.11H2.43l-.11.5v.26l.06.51.13.42.69.83-.41.19-.14.4,0,.46,0,.35.05.11.19.21.07.11v.07l0,.21v.07l.2.75.07.16.34.09.61-.59.36-.05.2-.13.12-.46.12-1,.2.31,0,.94.11.44.57.7.18.46-.24.41-.07.15,0,.11,0,.13v.16l0,.21-.11-.19-.07-.24-.08-.46-.26-.89-.26.09.12.29.18,1-.16.12-.26-.92-.11-.21-.26-.19-.27,0-.62.42.46,1.71.66,1.1.13.12-.23.44,0,.12.18.1.07.17-.08.26-.13.29-.06.24.08.35,1,2.23.24.38.6.6.22.42-.07.55,0,.08.1.74.1.23.18,0,.21,0h.2l.22.18.2.32.11.41-.06.44-.18-.26-.32-.31L7.13,217l-.32.27v.1l-.16.7,0,.06.07.13.16,0,.33,0-.28.29-.3.24.09.17.12.12.16,0,.19-.08,0,.31,0,.37V220l.32.41v.33l0,.39v.37l.09.62.19.66.3.2.41-.76.1,0-.08.48.11.76-.07.37-.08.3,0,.42,0,.43.15.28.47-.11.28-.83.25-1.84.28.62.11.38,0,.33-.07.33-.3.79-.06.39.22.48.5-.28.52-.73.27-.88.24.2-.05.28-.13.32v.36l.17.15.64.27.23,0,.23-.14.31-.28.28-.35.13-.35-.11-.28-.3-.06-.61.09-.19-.37-.32-.25-.75-.34.06-.14h.43l.43.13h.42l.39-.36,0-.37-.33-.37,0-.27,0-.28-.24-.21-.31-.09-.25,0-.56.23-.13-.24-.09-.13h-.13l-.18.3,0,.33.27.59-.36-.18-.49-1.08-.35.18,0-.45.23-1-.12-.3.26-.21.11.09v.28l0,.38L10,220l.16,0,.39,0,.17,0,.13.08L11,220l.23-.34-.44-.17h-.21l-.24.13.19-.42.29-.35.32-.23.61-.09.25-.31,0-.32-.66,0-.6-.16-.29.09-.28.27-.13.29-.11.36-.22.49L9.65,219H9.44l-.25.07L9,219l.49-.34,0-.33-.31-.25-.36-.1.22-.31.89-.92-.15-.38L9.38,216l-.13-.39.43-.44L9,214.86l-.22-.24.19-.37L8.79,214l-.24.06-.26.17-.23,0-.13-.15v-.4l-.07-.12-.26-.15-.1-.1-.09-.13.07-.16.31,0,.33-.12.16-.18-.22-.22-.19-.26-.13-.9L7.62,211H8l.18-.56,0-.75-.05-.55-.21-.47-.32-.23-.82-.27L7,207.9l.69-.49-.2-.37-.13-.15-.18-.09h.24l.21,0,.15.15.09.27.59-.32.6.09.59.23.52.1v-.28L10,207l-.44-.08-1.72-.77L7.82,206v-.74l-.08-.06-.15,0-.1,0,.07-.25.05-.05.09,0,.11-.07.11-.13.18,0,.11-.08,0-.21,0-.11L8.14,204l-.25-.38-.4,0-.45,0-.45-.13.07-.16,1.5-.11.07-.14L8,203l-.16-.16-.12-.21-.07-.2.13,0h.09l.21,0,.32.16.17.35.07.47,0,.53.12.53.24.22,1.45.59.35,0,.7-.35.44-.15.15-.12,0-.13v-.16l0-.12h-.07l.25-.27h.08l.26-.16.22-.21,0-.17,0-.1-.1-.41-.12-.14-.15-.12-.31-.39-.84-.64-.86-1.17-.31,0-.19.09-.45.1-.22.1-.15.13-.5.54V201l0-.29.1-.33.17-.4,0-.22-.47-.42-.07-.3,1.35.6.27.07.62,0,.26.06.57.35.23.24.18.31L12,201l.7.32.16.31,0,.21.1.17.16.11.18,0,.21-.08,0-.09-.07-.14,0-.21.19-1.17,0-.27-.09-.17Zm22.42,2.34,0,.2,0,.19v.07l.31.11.12.13v.21l-.12.43.1.19.42.22.17.28v.29l-.11.34-.2.44,0,.29.21.33.48.53-.15.4,0,.47.29,1.37.1.18.16.18.33.18.41.13.16-.08.22-.18L39,209h.22l.1.19,0,.28.06.28.18.16.4-.13.35-.44.26-.56.11-.49,0-.82-.35-3v-.29l.11-.5,0-.18-.09-.18-.15-.71-.36-.84-1-1.38-.27-.85-.73-1-.38-.91-.23-.37-.64-.52-.44-.83-.31-.27-.18-.38-.33-.32-.66-.38-.35.1-.36.44-.33.58-.24.53,0,.18.09.09.13,0,.08.07.19.77.06.17.12.13.21.1.42.06.34,0,.28.09.25.41-.6-.23h-.35l-.24.21-.06.35,0,.42.15.69.05,1.34.07.23,1.18.69Zm19,28.42-.1.38.13.18.42-.25.12-.13.52-.78.3-.38.07-.11.1-.12.35-.33.15-.23.12-.24.3-.52.12-.17.35-.3.15-.23.1-.21.23-.39.11-.24-.17-.24-.22.16-.23.3-.21.22-.36.08-.62-.22-.61,0-.08,0,0,.07-.23.58,0,.19v1.18l-.1.39-.28.38,0,.44,0,.12-.05.15Zm-5-18.11-.36.21-.13.31-.18.62-.24.63-.27.58-.38.46-.57.28v-.31l-.22-.1-.3.1-.24.29-.18.28-.5.45-.24.41-.28.86-.12.49,0,.33.16.25.5.16V219l.07.57.74-.11.89-.42.55-.36.12-.14.23-.32.1-.11L49,218l.36-.22.18-.09.31-.08h.29l.57.18.07-.16-.19-.2-.07-.2-.05-.57-.08-.23-.24-.4-.06-.28,0-.12-.1-.06-.12,0-.25.11,0-.09,0-.17v-.13l0-.18,0-.19.06-.23.1-.29.49.94.19.58.29.4.21.57.15.62,0,.44-1.23,0-.64.23-.23.58-.33.1-.64.62-.3.07-.63.33-.6.12.36.79.05.28-.19,0-.7-.77-.28-.18-.24.18-.17.57-.09.63v.38l.06.79.1.31.31.29-.07.17-.12,0-.09,0-.1.07-.12.06.11.23.19.58.83,1.51.38.5.47.22.55-.14.59-.56v.28l0,.31v.25l.09.13h.2l.12-.16.06-.25,0-.76.12-.36.5-.85.5-1,.3-.47.26-.15.33-.14.22-.52.1-.6,0-.38.26,0,.14.21.13.29.24.21.27-.13.19-.46.21-.91.13-.15.15.07.11.18,0,.18,0,.16-.2.46-.21.4-.11.16-.73.92-.33.16-.24.08-.22.21-.27.54-.24.39-.64.61-.26.41-.15.45-.21.87L49,227l-.17.39-.22.38-.25.38-.3.37,0,.18.42-.1.33,0,1.37.54.19,0,.16-.17.34-.56.17-.22,0-.15L51,228l-.09-.06-.12,0,.49-.37.24-.3.29-1,.15.16.15-.1L53.51,224l.55-1,.43-1,.38-1.16.21-1,.18-2.14,0-.17v-.15l-.07-1.18-.11-.24-.58-.31-.26-.34-.82-1.52L53,212.22l-.29-.69-1-.42-.45-.61-.3-.12-.33,0-.24,0-.26.22-.06.22,0,.24v.32l-.07.31-.13.45Zm6.52,28.78.07-1.19-.29-.27-.46-.27-.51-.14-.45.12-.41.22-1.25.16.17.29.21.22.25.15.3.09h.32l.41-.07.22,0,.21.19-.08.24-.27.16-.63,0-.27.11-.2.22-.07.28.18.38.36.18.75.14.5.41.3.17.29-.07.28-.38,0-.38-.06-.34,0-.29Zm-1.32-37,.79.74.22-.35.25-.69.54-.64.09-.37.3-.3.7-.41-.18-.28-.32,0L57,202h-.3l-1.25-.51-.66,0-.39.05-.21.13-.21.17-.69,0-.26.07-.55.39-.2.28-.24.53-.47,1.4-.56.86-.46,1-.38,1-.15.57.46-.45.49-.39.28-.12.21,0,.21-.11.27-.38.12-.63.16-.38.24-.1.19,0,1.84-1Zm-.38,21.91-.49.38-.35.41.1.37,0,.36-.17.34-.3.33-.17.23-.15.5-.17.2-.23.23,0,.19,0,.17v.17l-.75,2-.21,1,.18.62-.16.12-.27.47-.36.24-.38.15-.35.19-.22.46.31.34.5.21.38,0,1.44-.84.14-.24.51-.54.18-.23.12-.23.1-.22.07-.23.07-.35v-.34l.16-.49.07-.26,0-.23,0-.11v-.3l.53-1.72.07-.08.16-.26.12-.3-.12-.3-.07-.58.27-1,.19-.94L55,226ZM43.86,183.13l-.2,0-.19.06-.18.16-.44.61,0,.25v.32l0,.29L43,185l.23,0,1-.16.11-.49-.12-.57-.31-.33,0-.18ZM41.59,190l-.16-.17-.68.23h-.32l-.26.07-.28.29-.52.69.67.62.14.29,0,.44-.17.34-.22.32-.21.35-.15.45.06.19.45.26.72.85-.06.39-.4.7-.07.39.13.29.25,0,.51-.14.59,0,.65.17.54.38.21.63-.17.13-.41-.48-.81-.34-.86,0-.56.41-.1.52.2.25.64.18.33-.1.35-.32.32-.16.25.36-.38.14h-.12l-.08.17.25-.06.17.11.25.4-.38.06-.19.06-.2.16.29.11.21.14.09.24-.11.44-.22.36-.58.66-.11.2.17.39.32.1h.32l.16.1-.09.29-.23.41-.41.62,0,.22v.54l.07.22h.49l0,.08-.07.14-.08.15,0,.12.27.75.1.15.24.05.24-.06.21,0,.13.19-.27.08-.07.18.35.5h-.09l-.16.06h-.1l0,.4.23,1.17,0,.32-.12.53.15.29.33.07.4-.12.21.43.3-.12.21-.48,0-.67.13-.3.06-.41.08-.33.2-.09.18.61.2.15.38-.45.11-.31.07-.36.11-.4.22-.41.19-.23.26-.24.27-.2.24-.06,0-.44-.15-.56-.22-.5-.22-.26-.86-.26-.35-.24-.19-.45-.13,0-.31,0,.28-.3.21,0,.51.63.21.13.24.07h.3v-.3l-.05-.27-1.06-2.75L44.78,198l-.06-.21,0-.34-.25-1.38-.1-.16-.26-.28-.08-.2L44,195l-.05-.22-.35-.38-.43-1.34-.21-.32-.05-.19,0-.24-.07-.09-.38-.33-.1-.18-.14-.58-.5-.7Zm-5.06-10.15-.27.32-.28.24.07.36.41.87.14.07v.35l.2.32.3.19.3,0,.34-.58-.13-.82L37,179.74l-.27-.1Zm11.35,30-.35.35-1.28.69-.32.4-.3.52-.24.57-.11.55,0,.23.2.38.06.17,0,.27,0,.19.11,0,.21-.24.26.22,1.05.45h.37l.22-.33L48,213.2l.16-.57.16-.3.26-.41.09-.22,0-.28,0-.34,0-.28.11-.3.24-.39.05-.27,0-.32-.11-.26-.16-.21-.31-.31-.27-.13H48l-.05.27.09.48,0,.24Zm6-4.34,0-.39-.45.15-.6.41-.4.39-.38.83-1.06.75-.94.87,0,1.17.19.11.53-.18H51l.68.19.21.16.4.49.23.13.21,0,.2-.19.12-.27,0-.24.32-.23.18-.19.1-.24.05-.4-.14-2.07.06-.54Zm-10.93-26-.22-.67-.21-.11-.24,0L42,179l-.23.28.19.44.28,1.14.26.43v-.15l0-.1.1,0,.07,0,.15-.13.07,0V181l0,.19.51.27.7-.4.49-.69-.11-.61-.35-.19-.52.16-.5.42-.26.6,0-.21,0-.71Zm32,117.13-.73-.1H74l-.15,0-.35,0-.37.08h-.52l-.7-.24-.6,0-.13,0-.09.07,0,.11,0,.1v.09l.11.17.05,0,.32.18,1.64.42.28-.07h.2l.23.16,1.46,0,.09-.2.08-.43-.16-.34Zm2.81.48-.32,0-.19.12-.2,0-1.18.08-.26.11-.06.21-.24.25-.38.14-.36,0-.12.14.15.18.23.2.32.4.55.29.53,0,.41-.07.27-.12L77,299l0-.17,0-.12.44,0,.16-.06.21-.19.33-.47,0-.51Zm13.5,23.91.2-.25,1-.56h0l0,0,0,0,0-.12-.43-.09h-.72l-.15,0-.1.14-.13.32-.18-.27-.22,0-.24.09-1.24.73.06.72.21.58.4.21.57-.39.73-1Zm-13.78-15.4h.41l0-.37.18-.21.26-.18.24-.3.09-.32,0-.34,0-.28-.22-.29-.1-.54-.18-.18,0-.14V302l-.18-.23-.42-.07-.49,0-.34.13-.23.27-.24.45-.17.52v.7l-.16.71-.08.26v.3l.12.24.13.17,0,.13.08.3.57.92.15.44-.19.07h-.07l0,.26.16.55v.27l-.07.53,0,.28.17.24.12-.23.15-1,.21-.8,0-.23,0-.26-.09-.12-.11-.1-.1-.19-.08-.5.13-.25Zm6.77-1.54-.63-.44-.4-.5-.26.2-.27.35-.24.15-.28.06-.12.3v.39l.2,1,.15.2.32.15h.58l.22.1.07.38-.25.08-.29,0-.23.12-.05.29,0,.58.06.32.12.16.35-.05.52-.24.48-.29.24-.24v-.56l-.32-.34-.24-.44.18-.87.21-.35.13-.15,0-.12Zm-3.08,1.7-.9.63-.5.31-.22.21,0,.29.39.8,0,.21,0,.2-.11.29-.1.19-.14.32,0,.31.26.17.21-.12.42-.58.27-.07.48,0,.5-.08-.05-.28,0-.25,0-.28.11-.37,0-.07-.06-.18,0-.16.08,0,.07,0,.06-.13.06-.16,0-.13,0-.5-.4-1.64-.09-.19-.06-.05-.1,0v.29l.08.62,0,.28ZM79.24,321.2l-.13-.18-.21-.55-.18.08-.22.46-.15.51.07.46.79,1.64.31.28.18.11.11,0,.19,0v-.21l-.17-.22-.1-.1Zm1,2.19.21.39.11.12h.16l.23-.14.21-.28.22-.08.28.16.17,0,0-.17-.08-.12-.6-.62-.41-.19-.38.18-.16.39Zm-.16-22.76.07-.59v-.17l-.08-.07-.24,0-.09,0,0-.15-.06-.36-.09-.1-.15-.12-.61-.83-.27.18-.28.34L78,299l-.13.41-.1.41-.15.31-.29.09-.57-.41-.35-.07-.29.37-.11.61.15.36.32.14.42,0,.17-.09.15-.13.18-.1.43,0H78l.12,0,.11.23.13.17.19,0,.2-.06.17.06,0,.1,0,1.46.06.45.34.52-.07.47-.21.53-.24.42-.49.68-.07.15.12.25h.14l.14-.11.42-.16.3-.4.55-.93,0,.2.11.17.16,0,.2-.23.09-.33v-.33l0-.29v-.22l0-.33-.29-1v-.64l-.16-.68v-.23Zm14.84,51.12-.13-.15-.11-.3-.07-.31-.1-.26,0,0v.32l0,.11,0-.14v.08l.09.34.12.32.07.33.19.21.19-.21,0-.25,0-.06ZM82.71,317.69l-.18.13.3.67.22.31.57.41.44.64.22.19v0l.27.4h.13l.1,0,.09.07v.06l0,.42.16.66,0,.16-.1.15v.14l.85.51,2.12,2.86.35.77.23.26.4-.16-.09-.82-.26-.73-1-2-.1-.35,0-.33,0-.26-.27-.64V321l-.11-.63-.53-.6L85.12,319l-.41-.46-.57-.37L84,317.9l-.13-.67-.11-.27-.13-.16-.16-.12-.18-.07-.2,0,0,.24,0,.1-.11.16,0,.16,0,.17-.05.16Zm14.45,30.87-.33-.1-.12-.15.1-.27.05-.32-.15-.3-.24-.41-.15-.12-.21-.1-.18.06-.05.17.11.26-.07.2-.13.41v.19l.18.28.1.14.3.43.24.15.24.11.38.19.23,0,.12-.15v-.33l-.21-.13Zm-4.78-12-.67-.43-.51-.56-.08-.19,0-.22L91,335l-.5,0-.14.11,0,.12,0,.06v.11l-.05.11v.29l.2.4.89.75.38.24.27,0h.35l.08.05.16-.06.09-.26,0-.24Zm2.54,11-1.2-1.8-.24-.53,0-.11.07-.16.1-.09h.1l.07.1.11.25.15.21.19.14.22.07-.75-1.55-.92-1.34,0-.29,0-.13,0-.14-.22.8,0,.54.1.47.24.58-.47.19-.11.42.12.51.21.43-.05.16-.28.18-.15.3,0,.34v.29l.06.33.12.19.14.17.13.26.19.15.35,0,.38-.06.26-.12,0-.21-.19-.62,0-.22.69.56.41.07ZM85,325.73l.1.17.43.45.28.22.42.2.17,0h.16l.24.07.62.5.28-.11.08-.23-.65-1.14-.26-.21-.25-.13-.19-.18-.18-.1-.42-.13-.09,0-.31-.36-.17,0-.18.1L85,325l0,.19.15.12.09.21-.08.16ZM99,331l.2-.08.18-.14.23-.11.24,0,.2.17,0,.27-.25.33.55,0,.43-.37.21-.58-.15-.58v-.75l0-.17-.15-.07h-.17l-.16,0h-.44l-.41.13-.3.26v.39l-.06.18-.24.14,0,.22v.28l-.14.32ZM96.43,344.6l-.45-.25-.29-.43-.52-.41-.41-.22-.19-.19-.87-1.28-.25-.49L92.68,339l-.16-1-.15-.07-.16.2-.06.45.29,1.17,0,.21.25.33,1,2.48,1.17,1.36.43,1,.31.38.48-.06.19.21.2-.09.14-.29v-.38Zm-10.87-39-.36.5-.18.36,0,.46v.32l0,.15,0,.15.15.07.4-.11.6-.34.47-.72.15-1-.2-.81-.42-.51-.35-.1-.22.12-.27.1-.3.23-.24.32-.44.45v.21l.06.1.23.33.17.19.22-.07.63-.71.2-.27.08-.16.07-.19,0-.24.07,0,.1.23,0,.31-.16.32ZM59.51,288.07l.07.17.47.33.54.17.73.05h.1l.21-.05.08-.15-.09-.18-.16-.18-.52-.31-.07-.09,0-.12-.15,0h-.22l-.26,0-.49-.2-.15,0v.13l.16.22V288Zm-12-119.19.5-.12.91-.43.69-.09.23-.09.27-.2.91-.89.26-.16.47-.22.26-.15.5-.44.32-.46.18-.53.08-.66,0-.43-.39.12-1.2.92-3.4,1.84-.73.23,0,.28,0,.37v.32l0,.16.06.49v.16Zm52,179.4-.77-.31-.49-.52-.27-.45-.29-.16,0,.25.07.09.1.14v.19l-.05.17-.05.18-.07.24.22.33.18.2.15.2.35.07.26.08.27.16.24-.08.24-.15.13,0,.3,0,.19,0v-.11l-.1-.22Zm144.92,28.34-.27-.19-.32-.1-.26-.14-.15-.22-.21-.37-.19-.38-.1-.27v-.34l.1-.26.1-.24,0-.25-.1-.14-.24-.26-.24-.29-.16-.2-.22-.26-.25-.08-.27,0-.29-.09-.19-.13-.15-.14-.16-.1-.25,0-.24,0-.28-.1-.23-.19-.11-.33,0-.32.13-.15.14-.11.09-.21-.09-.21-.24-.11-.28-.08-.19-.1-.09-.16v-.18l0-.19,0-.19-.05-.12-.07-.1-.07-.1,0-.1v-.69l-.15-.25-.19-.11-.2-.09-.16-.19,0-.07,0-.08,0-.08,0-.08-.07-.18-.09-.06-.1,0-.1-.07-.24-.52-.12-.62,0-.66.23-.65.25-.4.32-.58.19-.6-.12-.46-.17,0-.21.09-.21.11h-.21l-.14-.08-.13-.1-.14-.1-.13-.06h-.11l-.16,0-.15,0h-.08l-.06-.1v-.28l0-.09-.1-.08-.1-.05-.1-.07-.08-.09-.13-.21,0-.18,0-.21.15-.29.17-.21.2-.15.21-.07.19,0h.21l.07-.11,0-.17.09-.2.18-.25.08-.16,0-.16.1-.24V359l0-.09v-.1l.08-.12.12-.09.12-.08.12-.09.1-.12.1-.24v-.21l0-.21,0-.22v-.12l0-.09.07-.05.08,0,.21-.11.11-.15,0-.22,0-.33,0-.64-.15-.58-.16-.57-.09-.58,0-.38.06-.5.1-.48.14-.3.18-.07.18.07h.18l.16-.22,0-.24,0-.3,0-.3,0-.24,0-.22,0-.23,0-.22,0-.24,0-.13,0-.09,0-.09v-.14l0-.06-.09,0-.1,0-.06-.08,0-.18,0-.22,0-.22,0-.2,0-.08-.05-.06-.06-.06,0-.08,0-.25v-.32l0-.33,0-.26.1-.43.08-.3,0-.3-.07-.41-.06-.32v-.28l0-.3,0-.35,0-.33V344l0-.15-.08-.3-.09-.32-.07-.31,0-.26.24-.15.07-.2-.18-.41-.28-.44-.21-.3-.14-.18-.1-.1-.08-.13-.09-.24,0-.22,0-.21,0-.22-.1-.24-.26-.55-.21-.5-.18-.53-.19-.61-.1-.33-.1-.31-.13-.29-.16-.27-.2-.21-.23-.1-.23-.08-.22-.15-.32-.14-.52,0-.52.11-.31.32-.12.23-.17.13-.18,0-.14,0-.18-.18-.05-.24v-.29l-.06-.3-.21-.35-.36-.61-.3-.6,0-.33.22,0,.14,0,.09-.06.07-.26v-.22l0-.32-.05-.3-.05-.19-.08-.18-.1-.2-.11-.18-.1-.16-.2-.1-.21.12-.2.16-.21,0-.15-.18,0-.27v-.3l-.05-.26-.19-.17-.26,0-.22-.09-.11-.29-.1-.26-.19-.18-.23-.13-.19-.12-.18-.22-.13-.29-.09-.33-.07-.34-.27-.25-.46-.16-.32-.26.15-.55.23-.19.3,0h.3l.24,0,.18-.15,0-.2-.13-.2-.09-.16-.07-.26,0-.2v-.22l0-.29,0-.33-.16-.14-.21-.07-.18-.13-.07-.18v-.37l0-.19-.22-.32-.3-.19-.31-.17-.26-.25-.07-.19v-.2l0-.23v-.23l-.07-.16-.18-.17-.19-.15-.13-.09-.41-.13-.47-.09-.46-.13-.36-.23-.25-.27-.36-.4-.32-.44-.16-.38,0-.45.11-.49.11-.5,0-.49-.25-.61-.45-.28-.5-.2-.37-.35-.05-.22v-.5l-.06-.22-.2-.17-.27,0-.29,0-.25-.09-.16-.15-.13-.2-.1-.24-.05-.28v-.17l0-.17,0-.16V313l0-.15-.08-.13-.08-.11,0-.14.08-.56.23-.61.13-.57-.21-.44-.34-.24-.36-.29-.26-.41,0-.6.07-.34,0-.22,0-.18-.14-.22-.23-.21-.2-.12-.16-.16-.12-.33,0-.28v-.41l-.11-.27-.24-.28-.3-.19-.29-.19-.25-.27-.14-.56.09-.57.11-.52L218,303l-.1-.2-.05-.19-.05-.19-.09-.17-.1-.22,0-.23.05-.24,0-.29-.08-.26-.13-.22-.18-.13h-.2l-.26.07h-.2l-.19,0-.22,0-.21.11-.24.19-.24.22-.19.18-.19.13-.11.07-.09.1-.07.17,0,.12.07.1v.13l-.33.33-.5.06-.52-.09-.38-.16L213,302l-.11-.56,0-.63-.05-.58,0-.24,0-.24v-.25l.05-.26V299l-.12-.2-.16-.18-.1-.21v-.2l0-.24,0-.24,0-.22v-.35l-.1-.29-.14-.26-.14-.22-.11-.24-.17-.49-.11-.23-.21-.25-.26-.18-.27-.18-.23-.19-.16-.26-.13-.33-.12-.33-.13-.28,0-.07-.05-.08,0-.08,0-.07,0-.06-.06,0-.06,0,0-.06v-.11l0-.12,0-.11v-.09l-.08-.3-.07-.24,0-.24,0-.35.05-.25.07-.26.07-.26,0-.28v-.5l0-.25-.07-.15-.18,0-.14.21-.12.3-.15.26-.53.24-.61-.15-.59-.33-.46-.3-.47,0-.57.13-.52,0-.32-.33-.23-.69-.24-.47-.33-.3-.48-.18-.4-.28-.25-.51-.19-.62-.2-.63.11-.41.47-.35.58-.3.43-.31.32-.49.16-.51,0-.48-.24-.41-.6-.41-.63-.25-.61-.29-.54-.54-.18-.38-.2-.49-.23-.39-.29-.08-.13.1-.12.18-.12.19-.1.18-.07.07-.1.06-.1.08,0,.12v.41l-.05.19-.11.18-.36.15-.47-.08-.5-.15-.41,0-.31.16-.36.23-.33.13-.2-.14v-.14l0-.2,0-.22V281l-.05-.29-.09-.27,0-.3.08-.35.19-.22.24-.06.25,0,.22-.15.09-.27-.13-.19-.21-.12-.13-.07-.1-.16-.12-.25-.11-.27,0-.22,0-.24.09-.19.1-.18.06-.23-.05-.28-.17-.21-.2-.19-.14-.21,0-.18v-.39l0-.18V275l.21-.23.28-.16.19-.1.26-.29,0-.25-.07-.26-.1-.26-.06-.5v-.46l0-.44-.18-.38-.19-.17-.24-.18-.2-.24-.06-.34.07-.19.13-.17.14-.19.11-.26,0-.35-.08-.23-.18-.15-.22-.15-.11-.19v-.25l0-.27,0-.26-.18-.22-.25-.07-.27,0-.27,0-.21,0-.27.07-.26.06h-.18l-.22-.3,0-.51.07-.58-.1-.49-.21-.52.09-.33L195,265l.16-.51V264l-.15-.13-.21,0-.2-.11,0-.17v-.23l0-.18-.17,0-.24.07-.23.07-.15-.08,0-.36.13-.22.19-.18.2-.18.13-.19.07-.27,0-.18-.1-.15-.13-.18-.24-.5-.23-.51-.25-.49-.3-.44-.18-.17-.18-.13-.18-.15-.16-.21-.16-.27-.14-.26-.2-.17-.28,0-.18.1-.1.18-.05.23-.05.25-.1.25-.11.12-.11.08-.1.16,0,.22,0,.23v.22l-.06.18-.24.13-.23-.15-.19-.27-.15-.22-.17-.14-.16-.08-.16-.06-.17-.08-.14-.19-.08-.24-.09-.21-.19-.09-.25-.06-.15-.1-.12-.13-.17-.13L188,258l-.18,0-.15-.11-.15-.29-.16-.5-.16-.54-.15-.55-.13-.52,0-.18,0-.29v-.57l.06-.34.07-.26v-.22l-.12-.25-.19-.14-.26,0-.27,0-.23,0h-.29l-.26-.12-.25-.16-.25-.15-.23-.15-.24-.21-.24-.17-.25,0-.16.11-.18.21-.18.16-.15,0-.3-.34-.31-.35-.29-.36-.24-.43-.12-.42,0-.5,0-.51,0-.49-.1-.61-.16-.43-.27-.2-.38,0-.16,0-.13-.19-.08-.25v-.26l.13-.22.2-.15.17-.15,0-.24-.07-.29L181,246l-.11-.26-.06-.29.13-.22.32,0,.34.13.2.1.38.24.58.29.58.1.43-.36.06-.48-.13-.45-.21-.39-.15-.3,0-.22,0-.22,0-.2-.12-.15h-.18l-.22.1-.2,0-.11-.14-.11-.24-.18-.07-.19,0-.13-.17,0-.2,0-.15.09-.15.11-.22.09-.12.12-.18.11-.19,0-.19-.15-.25-.29-.11-.32-.1-.23-.19-.11-.41,0-.45.13-.48.17-.55.35-1.25.35-1.25.35-1.25.35-1.25,1.31-4.65,1.31-4.65,1.32-4.64,1.32-4.64.82-2.87,1.59-5.59,1.6-5.59,2-7,2-7,2-7,2-7,2-7,2.05-7,1.92-6.54,1.92-6.54,1.93-6.53,3.88-13.06,1.95-6.52,1.95-6.52,2-6.52.59-2,.6-2,.6-2,.6-2,.6-2,.59-2,.6-2,.6-2L219,89.6,213.3,88l-5.72-1.66-5.7-1.69-5.69-1.73-5.68-1.77-5.66-1.81-5.64-1.84-5.62-1.87L168,73.67l-5.58-1.95-5.57-2-5.55-2-5.53-2.06-5.52-2.08-5.5-2.13-5.49-2.16-5.47-2.2-5.44-2.23-5.43-2.26L107.5,50.3,102.11,48l-5.37-2.37-5.35-2.41-5.33-2.44-5.31-2.48-5.29-2.51-5.27-2.55-5.25-2.58L59.7,28l-5.21-2.65-5.19-2.68L44.14,20,39,17.2l-5.11-2.78L28.8,11.59,23.73,8.74l-5-2.89-5-2.93L8.71,0V.21l2.43,3.9-1,2.54-.09,1.17,2.22,9.87,1.64,7.85-2.08,6.07-1.47,1.6,1,.45,2.94-.83,7-.75,2.78,1.28L27,31.5l2.18-4,.58.67,1.31.22,1.75-1.17.18-.74-.72-1.36.84-.16,1.34.19,2.88.84,6.92-.36.5,2.05.87,1.59-.35,1,.17,1,.42.18.33,1.91L45,35.61l-.56.1-.72.46.6,1.57-.89.67v1.92l2.41,2.23-.45,1.33L45.89,46l1,.5V49l-1,1.4.79.75L46,52l.13,1.83,3.14,5.19.26,3.41,1.54,6L49.76,69l-.17,2.37.67,4.49-.52,4,.46,3.55,0,2.5v8.22l.28,2.32.27,2.24,0,1.81,0,2.32-1.09.84L48,104.83l1.83,1.69,1.35,1.23-2.81,3.46L50.5,114v.21l-.22.26-.28.26-.19.22-.1.26,0,.22,0,.44,0,.86-.09.45-.17.48-.52.92,0,.27.27.27,1.29.66,1.42.36.3.17.21.33.28.82,1.19,2.11,1.06,1.88.95,1.66.82.94,2.06,1.31.69,1.06L60,133l.39.58,1.18.92.22.3,0,.41-.32,1.71,0,.38.1.26,1.22,1.1.5.45.38.23,1.35.15.24.21.11.53v1.06l-.06.56-.13.55-.35.92-.49,1-.21.33.4-.5.23,0,.19,0,.12.15v.3l-.46.24-1.21,1L61.62,147l-.39.41-.26.52-.13.52v.39l.1.23.1.14,0,.18-.11.34-.14.24-.43.56-.58,1-.28.83-.09.8v.91l0,.28,0,.2v.22l-.19.56-.13.61v.21l-.09.29-.42,1-.1.46.17.84,0,.47-.31.41-1.22.72-1.18.5-.16.15-.11.13-.46.37-.14.06-.12.1-.62.72-.64.49-.1,1.29-.12.42,0,.38.17.28.28.15.32,0,.16-.11.53-.52.55-.63.63-.6,1.8-1.17.36-.39.58-.87.32-.39.28-.1.69-.38.18-.19,0-.15,0-.15.28-.61.13-.14h.35l.15-.11.16-.18.12-.21-.14,0-.07-.08,0-.13,0-.21.13,0,.1-.06.24-.24-.13,0h-.15l-.14.05-.16.1-.07.3-.13.13-.11,0V158l.11-.3.13-.22.16-.18.19-.18.17-.1.3,0,.19-.15.07-.16.1-.27.13-.24.18,0,.15-.24.1-.63.1-1,.41-1,.13-.45.07-.46.29,0-.07.69-.52,2.44,0,.47.16.57-.41,1.05.16.26.17-.09.7-.59.19-.11h.19l.54.25.37.3.19.08.21,0,.45-.17.18,0,.21-.08h.09v.11l-.1.26-.05.1-.06,0h-.12l-.58.19-.38,0-.78-.56-.42,0-.18.15-.43.42-.15.07-.1.1-.11.27-.13.27-.17.07-.32.06-.41.29-.74.73-.08.13-.05.15-.06.15-.1.11-.1,0-.15,0-.25.13-.38.07-.2.1-.18.15-.17.16-.35.43-.13.1-.18.14-.06.1-.08.26-.06.1-.23.22-.18.11-.18.07-.22.12-.67.58-.39,0-.38.31-.69.9-.46.44-.23.26-.09.23.09.24.13.06.34,0,3.49,1.87.8-.08-.41.39h-.34l-.66-.41h-.18l-.44.08-.19,0-.15-.16-.22-.47-.16-.13-.35.08-.78.55-.37,0-.38-.14,0,0-.09,0-.23.2-.15,0-.16.07-.18,0-.19-.06.33-.34.3-.16.17-.19-.1-.43-.23-.24-.36-.07-.39.07-.35.16-1.08,1-.53.15-.35.23-.35.29-.25.25.32-.07.53,0,.27-.08.56-.42.24-.07.18.18-.27.27-.29.24-.29.19-.29.15-.5.15h-.1l-.21,0-.1,0-.13.15-.15.32-.1.14-.39.4-.09.07-.26.16-.13.13-.38.61.16.18.39.23.15.18.13.38.09.14.19.12.17.29.12,1.11.11.46.26.36.33.24.94.4.12.08,0,.11-.27.12h-.19l-.23-.09-1-.74-.28-.37-.13-.44,0-.69,0-.16-.1-.16-.28-.27-.58-.82-.62-.45-.73-.21-.81,0-.75.5-.16.81.2.87.32.65-.16.21-.08.08.25,2.23.15.38.3,1.23.32.57.4-.33.2-.44.18-.35.21-.26.28-.18,1-.09.16,0,.11.27-.16.23-.29.16-.29,0-.5-.13-.21.09-.29.37-.05.37-.63.72-.2.44v.41l.26,1.09.1.24.16.11.18.06.14.09.11.19v.13l-.1,0-.21-.06-.34-.21-.26-.29-.18-.38-1.08-5.48,0-.35v-.16l-.13-.77,0-.93-.07-.42-.16-.38-.22-.29-.3-.19-.2.16,0,.57.16.6.1.24-.21.26-.19-.1-.19-.19-.19,0-.16.17-.14.22-.25.51-.17.6,0,.47.28.8-.34,0-.6-.23-.36.09-.23.2-.24.3-.17.34,0,.31-.29.38,0,.4.1.32.15.16.25.16.56.55.33.09.67-.12.33,0,.27-.06.26-.3.26-.38.27-.31-.16.46-.63,1,0,.24.07.2-.12.35-.16.35-.08.22.05.22.21.33.09.25-.51-.14-.87.12-.19.06,0,.09v.1l-.15.41v.18l1.21.86.1.35,0,.27.1.26.16.2.16.11h.17l.3-.23.19-.05.2,0,.58.29.18,0,.46-.33.17,0,.36.07,1.14-.2.84.16.75.47,1.54,1.58.39.21.12-.07.38-.37.16-.06.85-.17.39,0,.05.47-.2-.09h-.21l-.44.1H53l-.16,0-.42.26-.52.15-.36-.07-.86-1.08-.41-.07-.21-.1-.21-.46-.16-.16-.41-.19-.32-.06-.43,0-.44.12-.35.22-.26.41v.35l.09.34-.06.41,0,.13.18.62v.26l0,.54v.3l.06.37.27.92.36.5v.46l-.09.52,0,.48-.13-.16,0-.2v-.58l.09-.27v-.15l-.05-.07-.23,0-.08,0,0-.12v-.34l0-.12-.11-.1-.11,0-.1-.07-.08-.16V189l0-.15,0-.16,0-.21v-.78l-.09-.77-.07-.19-.21-.33-.06-.18,0-.21.07-.23,0-.24-.07-.23-.3,0-.84-.16-.15-.11-.26.35-.78.75-.28.41-.68,1.82-.38.78-.49.45.08.23,0,1,.06.24.18.47,0,.25.17.1.67-.18.08.09-.18.29-.23.18-.44.2.4.44.1.15,0,.22,0,.49V194l.06.19.28.52.13.69,0,.15.13.09.33.05.1.09,0,.72,0,.22.21.37.22.25.13.33,0,.61-.16-.33-.1-.13-.14-.1-.07.16.13.29.21,1v.3l0,.3.33,1.27.25.24,1.76,5.52.5.52.24-.11.37-.34.38-.4.27-.34.26-.44.27-.57.1-.5-.23-.22.06-.15.32-.08.29-.46.39-1,.29-.55.27-.27.82-.48.19-.06.2,0,.15,0,.19-.06.2-.23.19-.28.17-.18.33-.16.4-.1.39,0,.29,0,.25-.12V199l.2-.45.23,0v1l.12.39.54-.21.52-1,.29-1.15-.18-.77.07-.16.33.16.16.28.1.74-.19.26-.16.31-.28.67.64-.73.26-.19v.35l-.19.39-.58.63-.25.43,1.49-.87.64-.71.47-.14.47-.22.36-.62.08.21.1,0,.28-.07.06-.13.19-.1h.06l.47-.42.46-.51.43-.34.58-.3.54-.12.29.17-.35.13-.21.12-.13.16-.16.43L63,197l-.12.14-.87.78-.29.35-.06,0h-.1l-.1,0-.07.17v.16l.05.13.08.09.21,0,.08.13.07.18.32.29.45.59.28.19.49,0,.22.1.15.27,0,.37-.12.08-1-.53-1.12-1-.32,0-.3.38-.28.44-.28,0-.3-.1-.36,0-.38.18-.36.33-.24.47-.08,1-.21.38-.63.63-.35.27-.12.15-.16.34-.05.25v.27l0,.23.06.11.09.3v.52l.09.4.36-.07.15.69v.36l-.09.37.16.14.39.24.33.37v.53l0,.28.06.23.13.16.15.1.05.13,0,.49.08.18.18.07.15-.08.15-.1h.17l.52.24.19,0h.32l.33-.12.3-.24.23-.38.27-.21.3.25.5.66,1.42.37.89.46h.34l-.18.25-.06.29,0,.23.1.13.07.17,0,.64,0,.17v.76l0,.08v.19l.2.62.11.15L66,215l.38.46.08.22-.05.33-.29.49-.11.32,0,.5.21.35.15.37-.13.55-.74-1,0-.33.46-1.27,0-.3-.11-.38-.39-.6-.13-.3-.21-.23-.36.11-.72.45.53-.65.13-.19.1-.11.19-.16.09-.15v-.11l-.05-.24.07-.52-.1-.37-.21-.29-.28-.18-1.43-.53-.69-.48-.39-.72-.37.47-.33.18L60,210.61l-.18.06-.39.19h-.19l-.06.15.23.13,0,.21-.08.28-.33.67-.16.24h-.11l0-.36,0-.14.07-.16.07-.14.06,0,.11,0v-.16l-.06-.17,0,0-.08-.27-.41-.65-.51-1.71-.24-.49-.18-.18-.19.05,0,.16,0,.24.1.39-.16.14-.13-.62-.07-.22-.35-.41-.08-.13v-.42l.21-1.14,0-.43-.28-.18-.36.17-.37.27-.34.15-.37-.16-.55-.71L54.3,205l-.07.62L54,206.8l0,.5.12.3.13.06.18-.13.26-.23.24-.13h.23l.42.2-.35.34-.72.34-.28.46-.07.33,0,.2,0,.16-.23.22-.19.25.11.18.43.18-.32.18-.37.28-.29.4-.08.52.1.79.11.37.21.22.14.2.8,1.9.22.24.37-.08,0-.43,0-.25.07-.19.11-.1h.11l.06.08,0,.21v.21l.21,1.78.08.33.18.19.89.24.19.19-.29,0-.72-.15-.21.12-.08.49.21.16.29.1.13.33h-.2l-.19,0-.18,0-.15.2-.08.27,0,.46,0,.13-.17.51-.26,1-.17.51-.17.87-.15.51-.17.18,0,.11,0,.73.06.19.1.16.06.19-.13.6.1.15.81.41.75.76.39.23.41.07.21-.06.15-.11.16-.14.21-.15.68-.3.27-.24.4-.41.39-.47.22-.44.09,0,0,.35.21.13,1,.07.09,0,0,.19-.09.12-.13.05-.61-.1-.53.08-.49.32-.36.65-.17.5-.22.95-.16.49-.13.29-.09.11-.1.07-.33.36-.11.1-.1.12-.12.25-.13.17-.55.31-.16.18-.13.23-.11.23-.1.18-1,1-.3.38-.12.27-.16.74,0,.08-.18.49-.07.68-.24.42-.33.35-.32.24-.14.19-.11.23-.12.18H52.9l-.13-.08-.1-.08-.11,0h-.19L52,236l-.3.37-.2.46,0,.49-.58.1-.32.12-.3.24.13.16.16.12.36.16.12.12.07.19.1.18.2.08.27-.13,1.08-.73,1.11-1.26.15-.07.31-.08.15-.08.15-.15.16-.26.13-.16,1.26-1.2.13-.15.1-.14.12-.08h.34l.19-.1.36-.27.34-.09,1.47.21.67-.22.3,0-.32.48-.18.22-.18.16-.16,0-.35,0-.18.08,0,.14,0,.24-.08.2-.22,0,0-.1-.05-.21-.09-.22-.15-.15-.64,0-.67.46-.52.76-.21.94-.16.1,0,.35.11.28.09.28-.11.75.12.31.33.52,1-.69.49-.44.25-.47v-.41l-.07-.19,0-.18.12-.33.18-.3.17-.22.12-.19,0-.21.21-.15.33-.32.15,0,.18.16-.06.18-.17.19-.15.14-.22.15-.22.1-.21.15-.18.31,0,.24.05.81.25.83v.37l-.27.26h-.22l-.38-.14-.23.1-.17.17-.12.17-.13.15-.19.12-.06.29,0,.3,0,.25.28.32,0,.29-.13.31-.09.29,0,.56.13.15.27-.14.4-.28.16-.07.21,0,.19-.1.14-.17.12-.26.15-.24.27-.35.71-.7.41-.26.35,0-.57.58-.21.17-.11.15-.23.47-.17.22.3.26.36-.07.37-.19.33-.08.29.17.23.23.23,0,.28-.47.41-.15h.76l.82-.15.57-.59.52-.44,2.78-.24.32-.15.24-.33v-.14l0-.18,0-.23.08-.28.12-.15.18-.11.27-.1.1-.42.29-.11h.33l.21-.14,1.2-.56,1.76-.48,1.46-1,.22-.28,0-.22L74,234.5v-.11l.23-.56,0-.18.05-.81-.19-1.31v-.68l.14.1.06.16,0,.19.05.21.52.75.18.46-.17,1v1l-.08.47-.28.48-.72.46-.26.35-.34.54-.39.16-.82-.07-.36.14-.71.44-.66,0-.4.15-.4.22-.81.57-.21.33-.36,1.26,0,.16.09.14.08.23,0,.75-.32.24,0,.28.18.52v.12l0,.14v.14l.05.15.1.07.27.06.12.05,1,.7.57.17.6-.08.48-.15.48-.07,2,.05.41.26.07.63-.58-.21-.59-.13-.69,0-.26-.12-.06,0-.11.19-.08.06-.51-.07-.14,0-.35.33-.12.34v.34l.09.69v.29l-.12.29-.3.38.1.92.95,1.46.36.81,0,.28,0,.64-.06.46L72,252l.13.15.1.17.06.44-.11.4-.2.44-.22.57v-.35l0-.93-.05-.33-.22-.7-.13-.24-.17-.62-1.11-2.58-.25-1,.33-.47.09-.46-.06-.44-.32-.89-.23-.32-.3-.21-.72-.31-.69-.45-.37-.07-.26.1-1.31.9-.36.19-.36.09-1.12-.19-.43.1-.3.33-.16.13-.26,0-.42,0-.21,0-.12.2,0,.25,0,.13,0,.2.05,1.29-.49.23-.55,0-1.21-.42-.19,0-.67.5-.69.33,1.28-1.29.22-.09.79.4.28,0,.27-.13.28-.39.15-.39-.05-.27-.19-.17-.33-.07-.53,0-.64.18-.64.3-.55.44-.39.58-.75,1.48-.43.51,0,.21-.36.13-.39-.12-.72-.39h-.28l-.67.27-.56,0-.28.27-.26.38-.24.41h-.11l-.08,0-.07.1,0,.11,0,.29v0l-.38.46-.08.11-.05.27v.36l0,.18-.25.63,0,.2,0,.19v.17l-.12.16-.16.15-.11.17-.18.43-.15.57.06.27.13.21.07.39-.12.45-.16.42v.27h.4l-.13.36,0,.29,0,.27-.05.3-.1.14-.15.08-.1.13v.26l.06.06,1.14.18.24.12.15.21.13.35.12.15-.05.15-.34,0-.93-.35-.33.18v.17l.16.82.18.13.7.21h.39l.41-.2,1.19-.9L55,260l0-.37-.15-.36.07-.18.33-.19.51-.63.33-.3,1.12,0,.25-.2,0-.35-.3-.16-.77-.16-.32-.23-.55-.56-.32-.21.07-.18.5,0,.51.08.45.2.34.33.38.26.36-.26.68-1.05.21-.27.09,0,.09.08.62.16.15-.1.17-.36.22-.38.35-.45.38-.39.29-.24.07.38-1.06,1.69-.29.21-.18,0-.58,0-.19.07-.11.19-.33.95.08,0-.09.11-.08.06-.14.08h0l0,0-.08.07-.12,0,.21.45.56.15.58-.18.29-.57.29.17.44.72.33.26,2.5.43,5.35,3,.54-.54.22-.08h.18l.16-.09.18-.29.06-.38,0-.41,0-.44.33-.47,0-.1v-.08l0-.19,0,.27.07.28,0,.29-.1.28.07,1.31-.17.1-.16.22-.15.23-.13.18h-.1l-.24-.14-.08.07-.09.26-.05.11-.08.08-.41.12-.47-.14-4.6-2.32-4-1.14-2.43-.17-.41.06-.41.21-.3.38-.15.47-.12.51-.19.5-.2.25-.2.1L55,261l-.21.11-.11.18-.05.26-.07.19-.15,0-.39-.06-.35.08-.36.23-1,.83-.28,0-.4-.11-.34,0-.47.07-.45.19-.3.29,0,.52.32.35.44.18.3,0,.43-.1.45.16.79.48.44,0,.87-.19.46.06.25.21-.21.2-.41.16-.39.09-.06.15,3.24,1.59.44,0,1-.24.4,0,.24-.15.83-.78.34-.24-.1.41-.25.49-.32.47-.32.32-.13,0-.58.06-.78.25-2.4-.5-.11-.12-.18-.32-.13-.1-2.14-1.11-.66.16-.36.15L50,265.83l-.33.09-.32.14-.34.06-.1.32-.17.25-.12.25.05.34-.09.48.91,1.38-.12.47.24.43.39.16,1.29.17.45-.05.38.05.22.35-.05.15-.35.1-.37.52-.4.66-.41.47-.1.35.24.43.41.35.41.07-.1,0,.17,0,.14.08.1.14,0,.2-.07.14-.2.1-.39.14.17.34,1.2,1.19.25.17.35.16h.12l.27,0,.11.05-.08.51.21.53.11.16,1.11.7.62,1.18.29.32.3.13.38-.12.92-.52.38,0,.22,0,0-.13-.15-.18-.18-.15-.79-.29-.35-.23-.62-.6-.59-.37-.34-.32-.16-.35.24-.27.15.24.21.12.38.11.41.28.19.21.12.23.29.34,1.88.67.15-.09.12-.17.26-.23.18-.1.21-.06.18.05.12.26.11.51.12.17.47.27.14.19.06.21,0,.16.33.36.3.23.33.1,1.7-.15.27-.14.28-.33.35-.15.25-.3,0-.75.09-.55.35-.59.72-.95.1,0L66,277l-.31,1.26-.08,1.23.24.44.68.58,2.28,1.1H69l.66-.24.23,0,0,.38-.3.32-.4.2-.33,0-1.32-.71-.7,0-1.49-.74-.16-.16-.1-.17-.13-.09-1,.54-.29.2v.23l-.17.36,0,.25.07.19.33.27.1.2.26.33.47,0,1.31-.35.38,0,.77.25.69,0,.22.1h0l.21.09v.08l-.06.15,0,.16,0,.12.32,0,.37-.22.24-.08-.05.38-.27.46-.29.38-.17.38.11.5.34.31.41,0,.43-.11H70l.67.23V286l-.48.22-1.26.27-.48.31-.4.18h-.7l-.38.31.06.5.35.21,2,.34.22,0,.55-.29.23-.08.35.07.1.23,0,.32.1.32.18.12.28.06.29,0,.16-.12.38-.22,1.69.48-.05.16.44-.14.86-.8.49-.28h.25l.2.06.17-.06.18-.37,0-.18-.33-.57v-.18l.14-.37.18-.38.13-.22.21-.15.3-.14.29-.1h.2l.44.1.4,0,.37-.21.39-.39-.05-.23-.24-.39L78.8,284v-1.29l.1-1.25.08-.43.17-.58.61,1,.08.48-.15,1.56,0,.51,0,.2,0,.24,0,.26-.09.28-.17.27-.15.08-.15,0-.16.12-.36.51-.19.33-.21.13-1-.27-.32.1-.24.42v.53l.14.51,0,.49-.38.49-.23.1h-.44l-.24.06-.16.12-.13.16-.53.79-.16.15-.19,0-.15-.07-.17-.19L74,289.9l-1.2-.19-1.5.1-.38-.07L69.83,289l-.45-.12-1.2.06-1.55-.44h-.42l-.39.06-.16.07.06.08.07.13,0,.51.09.15,1.24.41.47,0,1.23-.21.44.08.85-.07.39.08.18.48-.39.18-.33,0-1.35-.2-.47.22-.06-.08,0-.12L68,290.2h-.19l-.44.14-.53-.06-.13,0-.2.26-.13.35-.15.72-.29-.6-.22-.24-.29.06-.31.12-.29,0-.11.11.19.4.22.24,1.55.85.31.06.41-.11.28.7.68.42.83.18,1.56-.14.19-.11.3-.29.14-.1h.37l.39.17.61.51-.28.21-.52-.11-.24.25.27.24.44,1.29.11.2.07.08.5.13h.23l.24-.06.21-.13.38-.28.13-.17.16-.33,0-.15v-.31l.09-.28.66-.12.27-.36.24-.46.28-.35,0-.49.29-.72.43-.6.46-.17.49-.1.52-.33.48-.19.39.32-.19.14-.3.28-.16.11-.19.08-.44,0-.34.15-.28.21-.26.3-.27.41-.35.63,0,.22v.42l0,.25-.12.29-.48.8-.21.27-.26.15-.24.1-.12.16.12.35.24.18.39.13,1.36.19.35-.09.35-.22.18-.22.21-.32.16-.33,0-.21.48-.07-.05.6-.18.76.12.45.19.14.05.13.09,0,.29-.16.45-.43.24-.15.16.12V297l-.11.16-.13.16-.07.17v.19l.12.41.07.71L80,299l.27.13h.39l.51-.17.38-.34v-.51l.53-.5,1.18-.46.42-.6,1.17-.47.13-.19.08-.08h.08V296l0,0h.15l.12,0,.6-.5.05-.22-.07-.24v-.35l.11-.28.46-.81L87,293l0-.38-.21-.3-.28-.18V292l.2-.63v-.2l-.11-.16-.26-.22.32-.22.65-.15.33-.14.93-.77.2-.21.21-.51.19-.23.2,0,.25.07.23.2.06.33V290H89.5l-.32.16-.66.57-.22.16-.43.18-.51.4-.06.08-.08.21,0,.16.12.17.74.76,0,.53-.19.33-.63.51-.29.47-.36,1-.26.35-.06.13-.1.47,0,.15-.1.14-.33.35-.12.08-.74,0-.33.16-.3.61-.25.18-1.18,0-.18.07-.13.08-.11.16-.24.57-.15.24-.11.25v.22l0,.12-.22.83-.18.13h-.15l-.13.06-.17.3-.1.64.33,0,.46-.23.8-.22.26-.55.12-.69,0-.55.28.21.16.46.05.56-.07.54-.17.27-.21.16-.13.19.07.35.13.11.67.16.33.18.29.24.31.18H85l1.12-.42.21-.14.22-.22.81-.56.29-.43.27-.15,1.19.54,1.38.1,1.41-.28.87-.55.45-.15.06.33-.21.22-1.14.71-.34.12-.83.14-.32,0-.18,0-.38.26-.19.06-.18-.06-.39-.33-.35-.13-.51-.08-.5.1-.33.38-.12.3-.12.13-.54.33h-.14l0,0,0,.26.19.33.32.32.25.36,0,.43,0,.31.15.46v.27l-.1.16-.49.57,0,.43-.32.41-.44.3-.41.08,0,.45-.22.12-.29,0-.28.21.31.48,0,.17L85,310l-.16.24-.16.2-.12.07-.3.1-.1.44,0,1-.2-.35-.33-.93-.26-.26-.16-.31-.19-.55-.21-.32-.27.36V310l.36,1.79.3.71.64.94.21.12.13.16.07.52.08.15.29.21.26.38.46,1.17v.18l-.14.56v.26l.05.21.49.35.57.69.37.23.8.07.42.14.18.63.27.26.28,0,.07-.57.42,0,1.2.39.38,0,.8-.11.39-.15v-.36l.13-.19.22,0,.24,0,.18-.07,0-.29-.09-.33-.11-.19.83-1,.17-.14.18.19-.05.3-.19.31-.21.21,0,.14.11.29v.14l0,.22,0,.08,0,.06,0,.13-.1.55,0,.25.21.16.12,0,.07,0,.07,0,.1,0,0,0,.48-.17.19-.19.36-.49.17-.17-.1-.47-.41-.6-.15-.42,0-.42,0-.5.1-.51.16-.47.24-.39.26-.19,2-.26.71-.33.39-.27.21-.27,0-.14L98,313l-.09-.15,0-.17,0-.34,0-.14-.21-.32-.57-.46-.25-.29-.13-.28-.12-.35-.08-.38,0-.38.3.24.44.77.56.41.72.84.13.28.27,1.08.25.3,0,.24-.42.42-.8.6h-.21l-.72-.13-.21,0-.37.25-.68,0-.41.34L95,316l0,.6.2.28.26.23.18.32,0,.52-.23.87-.16.43-.26.41-.72.54-.3.34-.06.5.09.23.4.57.49,1.64,0,.44-.09.51.18.13,2.08.33,2.37-.56-.49.65-.77.32-.83.07-.9-.11-.16.09-.16.13-.19.1-.53-.07-.16,0-.31.32-.13.45,0,.49,0,.44-.22.27-.22.33-.21.14-.2-.28,0-.42.07-1,0-.39.12-.32.18-1,0-.13-.18-.95-.44-1.3,0-.27v-.26l0-.23-.21-.15-.55-.13-.28,0-.27.13-.24.24-.45.63-.16.11-.24.1-.19.37-.11.45,0,.34.06.23.19.37,0,.23.11,1.44.12.55.1.29.1.1.14.07.21.17.12.21,0,.18v.19l0,.21.21.3.28.19.87.35.35.24,2.9,2.9.32.14h.29l.31-.12.38-.26.29-.44v-1l.24-.47-.17-.36.28-.16.75-.19.2-.1.52-.13.12-.07.16-.13.25.07.36.2.13-.1.33-.33.16-.09.2,0,.42.18.4-.16h.17l.15-.08.16-.36.07-.3.09-.62.15-.17.19-.18.23-.14h.22l.22,0,.3-.15L105,326l.17.38-.38.37-.83.4v.38l-.14.33-.22.24-.21.11,0,.12v0l0,0,0,0-.21.23-.44.65-.41.72-.1.27-.34,1.75-.13.37-.18.34-.28.3-.53.21-.25.25.11.21,0,.32,0,.42h.7l.25.09,2.68,1.77,1.41-.07,1.44-1.63.15-.3.18-.77.13-.19.13.06.1.2v.21l-.17.44-.19.39-1,1.62-.71.69-.73.25-.67-.35-.18-.21-.27-.15-.27,0-.22.11-.05-.2-.3.06-.28-.08-.18-.21v-.28l-.12-.15-.26-.06-.18.17.15.57-.52-.07-.64-.26-.47,0,0,.65.29.44.45.49.38.54v.31l-.23-.32-.32-.22h-.32l-.22.35-.24,1-.27.22,0,.16.58.56.68.2.75-.1.79-.35-.41.6-.46.32-1.07.5-.31.27v.19l.16.23.16.39,0,.34,0,.42,0,.31.86.26.06,0,0-.59.07-.46.36-.29,1.51-.4h.36l.37.07.38.16.17.21,0,.26-.27.32-.14.44.22.57.39.38.33,0,.39-.07.23.49,0,.24,1.54.46,3.43,1,3.43,1,3.44,1,3.43,1,3.44,1,3.44,1,3.45,1,3.45.95,3.45.94,3.46.92,3.46.92,3.46.9,3.47.9,3.47.88,3.47.88,3.47.87,3.47.86,3.49.85,3.48.84,3.49.83,3.49.82,3.49.81,3.5.8,3.5.79,3.5.78,1.92.42,1.59.35,3.5.76,3.51.75,3.51.74,3.52.73.19,0,3.33.68,3.52.71,3.52.71,3.53.69,3.52.68L233,376l3.53.65,3.53.65,3.54.64.29.05.09-.17.17-.19.17-.13.13-.17.05-.29ZM46.82,167.46l-.4,0-1.22.33-.16,0-.19-.05-.21,0,0,.26.05.28,0,.12,0,.25.17.48,0,.24.11.19.21,0,.2-.12.07-.08.33.39.21.1.22-.26.13-.22.42-.53.18-.17,0-.66,0-.28Zm.22,3.19.18,0,.44,0h.21l.37.12.2,0,.74-.12.38-.21.36-.36L50,170l.18-.32.1-.13-.2-.1-.07,0,.1,0,.1-.07.1-.12.1-.18L50,169l-.92.65-.74.09-.41.2-.8.55Zm20.87,114.2,0-.32-.08-.3-.3-.47-.27-.06-.61.13-.28,0-.58-.16-.3,0-.56.17-1.07.63-.58.25-.24-.19-.44.14-.83.56-.07.33-.16.18-.21.06-.25,0,.05.5.38.2.85.15.17.14.27.33.2.12.21,0,.16-.07,0-.16-.09-.24.41,0,1.1.85.94.26.44-.11.12-.51.62-.64.26-.17.83-.1.18-.18,0-.25-.31-.43,0-.34Zm-6.08,3.57.13.13.21.08.57-.05.22.08.18,0,.9-.12.28-.28L64.1,288l-.27-.13-1-.32-1.25,0-.26.19.15.18.14,0,0,0,.09.13.23.2.05.07h-.1Zm1-6.12-.32-.49,0-.11,0-.13-.05-.13-.09-.08h-.15l-.15.07-.19.12-.26,0L60.24,281,60,281l-.05.26-.3.29-.1-.22,0-.39-.09-.24-.53-.19-.26,0-.23,0-.19-.07-.07.17.19.35.24.77.76.58.2.07.08,0,.12-.09.1-.08,0-.05.09.1.14.3,0,.07,1.15-.06.56.07.41-.08h.2l.13.08.26.22.16.07-.09-.35Zm35.62,51-.1.19v.18l.13.11.47.19H99l.3-.06.33-.24.18-.18.16-.17.13-.19-.05,0,0-.06.12-.12.17-.2.17-.32-.12-.22-.39,0-.35,0-.29.11-.69.4-.22.28Zm-35.71-43,.12,0,1.65.39.1,0,.41-.21.21,0,.18.06.16.08.17,0,.22-.25-.25-.15-.17-.31-.19-.67-.53-.23-.18,0-.19.05-.34.24-.1,0-3.5-.32-.71.11,2.47,1.3Zm9.07,4.92-.24-.44-.16-.13-.72-.1H70l-.89.14-.23,0-.22.06.14.4.55.41.52.2.65.42.29.1.31,0,.49,0h.13l.2-.11v-.22l-.13-.22-.07-.17v-.28ZM47.65,276.46l.12.17.13-.07,0-.21,0-.09.07-.13,0-.12,0,0,0-.1v0l0-.15-.18-.06-.06-.1-.12.07v.17l0,.25,0,.31Zm32.58,34.36.09.11,0,.16.06.1.08.1.25.06.21-.27.17-.11-.19-.27-.07-.08-.17,0-.16-.12-.11-.12-.06-.1-.06,0,0,.07h0l0,.31Zm3.3,4.68.2-.07.26-.28,0-.33-.1-.18h-.09l-.31.27-.19.38,0,.3h.15Zm7.4,11.75v0l-.09.06,0,.08.07.07,0,.2,0,.2.12.21H91l.1-.06,0,0,0,0,0,0,0,0,0-.07,0-.06,0,0v-.29l0,0-.05-.2-.11-.27-.09-.05h0v-.06l0,.11,0,0,0,0,0,.08Zm7.33,4.47-.13.06-.28.18-.26.14-.11.13v0h0l.07,0,.36-.1.26.11.13,0h.19l.1-.11V332l-.21-.21ZM67,334.64l.05,0,.07-.07v.07l.08.13,0,0-.06-.07v-.08l-.06-.1,0-.07-.11-.11-.11-.06-.07-.11-.11,0,0,.06v.09l0,.1v.07l.12,0h.1l0,.07v0l-.05,0H66.8l0,.08.07.06v0l0,.07Zm-.57-.38H66.3l0,.1,0,.08h0l.08,0h0l-.11.06-.13.08h0l.11,0,.1,0,.14,0,.05-.12-.08-.15Zm-1.18.19,0,.2,0,0v.08l0,.07v.08l0,0h0l.05-.21-.07-.15Zm.42.83,0,.1v.06l-.16,0,0,.2.12.06.24,0,0-.12-.08-.27Zm1.41,1.32H67v.21L67,337l0,.1,0,.09,0-.07,0-.06.12-.16-.1-.22Zm28.27,10,0-.1,0-.05.09,0v-.25l-.21-.21,0-.07-.14-.15H95v0l-.08-.06,0,.13v.08l0,.06,0,.24.06.09.06.15.11.18.07,0,.06,0v-.08l-.08-.15h.07Zm-.95,2.4h0v-.06l.13-.08.11-.11v-.1l0-.12-.08,0-.06-.07-.08.13-.12.07,0,0,0,.18.1.11Zm1.12-.1-.18-.07-.07,0,0,0v.09l-.13.15,0,.1.07.26.19.24.07.05h0v-.06l.08-.05.13-.26-.08-.19Zm-1.56,2.6-.26-.14,0-.06v.12l.09.1.07.1.05.16v.1h0l0,0V352l0,.13v0h0l.22-.08,0-.3-.09,0Zm-92-179.14.17-.15H2.2l.13,0,.07-.11,0-.08-.06-.1v-.11l-.05-.09-.08.06H2.16l-.09-.09-.1,0-.07.05v.07l0,0v.18l0,.13.11.16Zm-1.7,9.54,0-.08,0,0v-.12L.1,181.6l0,0v.11l-.05,0v.07l0,0,.09.12h.1l0,.13.08,0-.06.07,0,.17,0,.12.4.08-.07-.42ZM13,206.37l-.13-.06h-.15l-.16,0-.12,0,0,.16.22.19h.09l0-.07.07,0,.18,0,.15-.07h-.1Zm-1.17,7.71-.07-.1-.25.11-.09,0-.07,0h0l0-.08-.1.15-.13-.05-.1,0-.05-.08-.11.07-.09,0-.12.06,0,.22.17.14.16.15.05,0,0,0,0,.17.56,0,.15-.07,0-.09.09-.18-.07-.33Zm-3.3-6.59,0,.13.22.4,1.46.69.12-.17,0-.24L10.2,208l-1.6-.62Zm49.62,72.43-.06.08.18.19.64.24H59l.57.23.4-.07.63.09h.25l.07-.2,0-.24-.16-.31-.59-.42h-.18l-.13,0-.33-.09-.48.12-.17.1v.07l0,.07v.1l.05.12.16.18-.67-.3Zm3.06,3.28-.23-.13h-.21l-.37.15-.13.08v.12l0,.07.29.27h.34l.1-.05.07,0-.07.07-.05.08.05,0,.45-.11.12-.15-.12-.09-.16,0,0-.17ZM57.91,287l-.11.13,0,.14.09.22.17.2.7.37.15,0,.1-.08,0-.12,0-.12,0-.1v-.08l-.36-.3-.06-.1h-.12V287l-.07,0-.1.1-.05,0V287l0-.08-.08,0Zm-5,24.39.16.09.27,0,.29-.44.08-.07.1,0,.09-.08.25-.12,0-.08.1-.09,0-.16-.25-.41-.13-.15-.15,0-.12.1-.12.19,0,.1-.1.1-.25,0,0,.08-.05.07-.09.06-.12.14,0,.11.33.25h.11l.19-.11.14-.18.06,0-.16.25ZM92.06,341l.06-.08v-.15l-.19-.62-.09-.06-.08,0-.07.08-.06,0-.08-.12-.08.11,0,.42,0,.33,0,.14.07,0,0,.1v.18l.06,0,0-.11v-.14l0-.05Zm-.13,1.18.07.19.13-.22.11-.53,0-.37-.06-.07-.11,0-.07-.07-.05,0-.12.06-.06.1.05.13v.09l0,.09,0,.2V342l.07.13ZM69,336.07h.16l.07-.06.07-.09.09,0h.12l.13-.07.11-.09,0-.08,0-.09.08-.15.24-.25,0-.16-.06-.11-.12-.07H70l-.09.06-.12,0-.1.06-.12.16H69.4l-.12.07-.1.1-.05.11-.07.06-.05.1,0,.1-.09,0h0l0,0,.06.19Zm-.86.12.22,0,.22-.08.06-.12-.06-.13-.13,0-.1.06-.12.11-.3.09-.07.1H68l0,0Zm29.24,10-.5-.58-.13,0-.12,0-.07.09,0,.24-.1,0h-.1l-.21-.18H96l0,.07.09.09,0,.11,0,.13v.1l.05.13,1.19.78,0,.07h.06l0-.07,0-.12-.12-.15,0-.11.07-.17,0-.14,0-.07,0-.1-.18-.27v0ZM24.57,175.68l-.48.41-.3.21-.3.16-.26.06-.51,0-.76.28-1.06-.11-1,.32-1.17-.12-.73-.25-1-.75-.35-.5-.22,0h0l.08.53.08.25.12.13,0,.16-.1.29-.24.56-.19.81-.12.3,0,.19.07.63v.26l-.07.07-.2.21-.79.65-.87.38h0l-.16.11-.16.17-.2.13-.07,0-.19.18-.08.07h0l-.1.18-.13.23h0l0,.36.17.51,0,.26v0l-.1.15-.12.17-.09,0-.49.21-.22.22h0l0,.06-.19.22-.2-.11-.36-.46-.49-.41-.31-.12-.33.22h0l-.06.29.17.26.25.2.24.09-.42.26-.44-.05L9.23,184l-.43-.05-.45,0-.27.15-.24.17-.23.1-.21-.08.75-.75.7-.19.68-.07.64-.39h0l-.52-.19-1.15,0-.53-.1-.17-.18-.18-.5-.15-.12-.28.07-.53.38-.28,0L6.7,182l.09-.1.08-.13.05-.3,0-.18-.1-.12L6.6,181l-.41,0-.09-.11.16-.16.09-.1.38-.11.41.12.71.41.4.09.8,0,.34.07H9.7l.79-.38.38-.07,1.48.47h.45L13,181l.17-.12.39-.39.38-.28h.19l.41.12.19,0,.69-.55h0l.14-.19.06-.56v-.58l0-.32.06-.08.26-.34.14-.25.11-.2.14-.44v-.44l-.1-.23-.34-.26-.13-.18-.1-.27v-.11l0,0,.07-.09.08-.15.08-.13.07-.38,0-.09-.23-.77,0-.36-.12-.16-1.58-.37-.36.15-.33.21-.35.17-1.18,0-.23.06h0l-.26.45-.22.3-.1.14-.29.26-.06.05-.31,0-.33-.12H9.91l-.19.08-.54.33-.12,0-.15-.35.17-.23.1-.13.64-.44.1-.06.41-.14.35,0,.34-.06h0l.42-.4.1-.19.1-.17.28-.58.21-.55h0v-.28l-.3-.26-.41-.72-.3-.26-.39-.09-.81,0-.35-.08-.7-.41-.78-.84L8,168.55l0-.22-.07-.22-.16-.21-.19-.12-.21.06-.22-.12-.22-.46-.28-.33-.44.26h0l.4.26-.24.35-.18.13-.84.6h0l.13.19,0,.15-.15.71-.05.22h0l0,.21,0,.18-.17.18-.14.11,0,0-.3.15-.07.05,0,0,0,0,0,.07-.09.05-.09,0-.19-.15H4l-.22.32,0,.16-.08.26-.19.36-.41.19H3l-.16.24-.32.26-.15.17-.16.18h0l-.15.53.06.46.24.87v.44l-.53,0-.29.13h0l-.09.22,0,0h0l.07.24.33.56.22.22.11.19.13.07.15,0,.16-.11.16-.07.13.1V177l-.19.29-.06.09h0l0,.23h0l-.28.37h0l.07.25.22.19.14.24,0,.26-.16,0-.2-.13-.11-.24-.21.19-.18,0-.14-.1-.1-.21v0l0,0,.13.62.7,1.65-.11.38-.07.23-.27,0L1.51,181l-.29-.13-.37.06h0l.09.42-.28.43.33.08h.4l.31.08.06.34-.21.07-.39.38-.23.12h0l1.35.63,0,0-.23.16-.68.32h0l-.12.18-.06.09h0l.07.25.28.07,1.22-.12.15,0,.11-.07.13-.19.14-.15.17.07.05.35-.23.3-.34.23-.3.1h0l0,.09,0,.06h0l.24.32.33.23.36,0h0l.41-.51.14-.17,0,.24-.14.5-.14.22-.18.26h0l.18.3,1,.86.3.17.1.17v.16l0,.1-.08.43v.22l.66,1.08.11.62-.36.44-.2.24,0-.26v-.24l-.08-.21-.3-.29-.08-.44-.18-.26-.07-.44-.13-.15-1.56-.72-.14-.15-.29-.42-.15-.07-.24.13-.89.67-.28.28,2.72.7.3.42-.14.21-.07.1L3.61,190l-.1-.24-.12-.17-.52-.06-.09.06-.07.09-.05.08v0l0,0H1.75l-.44.08h0l-.13.13L1,190.2H1l.55.28.48.37.53.81.25.12-.08.1-.06.07,0,0-.13.09-.38.2h0l.15.21.39.28.13.2-.33,0h0l-.08.15.34.51.26.1.28-.3.07-.06h0l.1,0,.06.11,0,.14v.05l-.09.15-.12.13-.06.05L3,194.2l.13.18.16.13.38.18.22,0,.45-.06.54.11h.21l.13-.07h0l.07-.19.05-.12.08-.16.14-.15.09.27.1.53.21.41.32.27.45.13.33,0,.4-.11.38-.18h0l.13-.11v0l.07.22.67.17.63-.07.12-.1,0-.17-.06-.18-.19-.06-1.15,0h0L7,194.65l-.52-.11-.18-.19-.06-.4.29.33.18.07h0l.09-.1.09-.1.21-.26h.21l.21.08.53-.07,1,.22,1.17.56.4,0,.52-.38,1.14-1.13.4-.27h0l.06-.45v0l.11-.29.59-1.1.13-.35.21-.89.07-.51v0l0-.1.06-.2,0,0,.14-.18.17-.15.21-.22.17-.26v0l.07-.22.08-.58.28-.5.38-.43.77-.72.36-.39.32-.42.26-.45.07-.14.21-.44.24-.44.27-.36.14-.14.19-.18.85-.67,1.59-1,.84-.67.36-.39.35-.37.64-.89.58-1,.15-.29.38-.74.13-.09.1-.15v0l0-.16,0-.22.08,0,.05-.06h0l.1-.17h0Z"/></g></g></svg>