<svg xmlns="http://www.w3.org/2000/svg" viewBox="0 0 393.66 377.96"><defs><style>.cls-1{fill:#c9dcec;fill-rule:evenodd;}</style></defs><title>Ontario</title><g id="Layer_2" data-name="Layer 2"><g id="Ontario"><polygon class="cls-1" points="393.46 244.21 392.69 243.79 391.8 243.29 391.21 242.97 390.55 242.6 390.47 241.78 390.38 240.76 390.26 239.54 390.12 238.05 390.01 236.88 389.95 236.27 389.88 235.58 389.81 235.54 388.58 235.38 387.73 235.59 386.92 235.54 386.07 235.34 385.24 234.99 384.81 234.9 384.43 235.02 384.33 235.13 384.19 235.4 384.09 235.51 384 235.58 383.69 235.68 382.7 236.26 379.81 237.06 379.35 237.34 378.95 237.76 378.55 238.34 378.13 238.78 374.25 240.58 373.84 240.95 373.16 241.86 369.58 244.8 368.49 245.25 368.07 245.58 367.76 246.05 367.53 246.69 367.34 247.53 367.25 247.77 367.04 248 365.94 248.54 365.67 248.59 365.39 248.56 365.11 248.45 364.35 247.92 364.08 247.82 363.94 247.64 363.69 247.43 363.2 247.1 362.97 247.01 362.37 246.87 362.15 246.88 361.78 246.51 361.25 246.4 359.73 246.47 359.27 246.61 358.13 247.23 358.06 247.31 357.97 247.48 357.93 247.63 357.91 247.99 357.89 248.12 357.76 248.34 357.34 248.76 357.13 248.89 356.89 248.98 356.37 249.07 356.12 249.05 355.86 248.96 355.35 248.68 355.11 248.63 355.01 248.43 354.86 248.44 354.41 248.3 354.28 248.29 353.87 248.35 353.1 248.25 351.25 248.31 350.72 248.22 350.41 248.11 350.16 247.95 349.94 247.7 349.51 247.01 349.34 246.81 348.89 246.45 348.63 246.14 348.33 245.39 348.13 245 347.87 244.68 347.62 244.49 347.34 244.4 347.04 244.4 346.7 243.97 346.41 243.51 346.17 243.02 345.78 241.9 345.56 241.46 345.25 241.17 344.81 241.01 344.06 241 343.68 241.07 343.27 241.29 343.17 241.38 342.96 241.62 342.97 242.05 343.12 242.39 343.34 242.76 343.53 243.13 343.62 243.45 343.42 243.99 342.98 244.29 342.44 244.4 341.99 244.36 341.18 244.2 340.34 244.06 339.51 243.88 338.7 243.59 338.15 243.33 337.57 243.02 337 242.67 336.48 242.27 336.16 241.86 335.99 241.42 335.85 240.97 335.64 240.53 335.18 240.12 334.55 239.83 334.27 239.61 333.99 239.38 333.69 239.32 333.19 239.22 332.96 239.14 331.62 238.5 327.78 237.69 327.3 237.73 327.34 237.74 326.58 237.76 322.78 237.67 320.57 238.23 319.24 237.93 316.84 238.33 316.02 238.74 315.53 238.87 315.24 238.68 314.93 238.4 314.4 238.41 313.54 238.66 308.44 238.87 307.92 238.72 307.6 238.31 307.33 237.8 306.93 237.48 304.03 236.37 303.11 235.79 302.31 235.08 301.54 234.17 301.22 233.64 300.99 233.07 300.7 232.6 300.23 232.3 299.39 231.9 298.79 231.29 296.77 228.51 295.85 227.9 294.8 227.22 293.8 226.4 292.87 225.3 292.08 224.47 291.14 223.75 290.28 222.96 289.69 221.87 289.52 221.07 289.39 220.25 289.23 219.41 288.97 218.6 288.74 218.17 288.44 217.81 288.12 217.5 287.78 217.21 287.25 216.73 286.67 216.2 286.04 215.65 285.57 215.06 285.18 214.21 285.08 213.34 285.2 212.49 285.43 211.7 285.49 210.98 285.33 210.16 285.08 209.32 284.84 208.54 284.66 207.88 284.48 207.2 284.3 206.54 284.11 205.87 283.66 204.44 283.29 203.08 282.5 200.16 281.72 197.26 280.94 194.35 280.14 191.43 279.36 188.53 278.57 185.62 277.78 182.72 276.99 179.81 276.19 176.9 275.4 173.99 274.61 171.09 273.81 168.18 273.02 165.27 272.22 162.37 271.43 159.47 270.62 156.56 269.83 153.66 269.02 150.75 268.22 147.85 267.42 144.94 266.61 142.04 265.81 139.14 265 136.24 264.19 133.34 263.38 130.44 262.57 127.54 261.76 124.63 261.56 123.89 260.46 123 258.29 121.8 257.97 121.74 257.7 121.55 256.66 120.2 255.85 119.75 254.1 119.23 253.19 118.81 251.84 117.83 251.44 117.76 250.46 117.85 250.21 117.76 249.84 117.42 249.6 117.28 249.12 117.27 248.15 117.56 247.66 117.52 247.17 117.38 244.84 117.26 244.46 117.41 243.94 118.21 242.94 119.18 242.44 119.97 242.25 120.49 242.25 120.98 242.16 121.31 241.34 122.42 241.28 122.65 241.25 122.91 241.18 123.15 241.03 123.27 240.86 123.36 240.42 123.89 240.07 124.18 239.24 124.46 238.89 124.76 238.59 125.61 238.4 127.45 238 128.16 237.84 128.01 238.11 127.48 238.14 127.37 238.09 127.15 237.97 126.96 237.86 126.89 237.61 127.25 237.35 127.46 236.82 127.7 236.92 127.22 237.07 126.83 237.3 126.5 238.11 125.8 238.21 125.57 238.41 124.59 238.52 124.27 238.81 123.88 239.84 123 240.1 122.67 240.19 122.51 240.28 122.23 240.33 121.96 240.37 121.37 240.4 121.15 240.77 120.23 241.26 119.43 241.83 118.75 243.45 117.44 243.79 117.29 244.01 117.03 243.94 116.59 243.52 115.64 243.25 114.55 243.02 113.98 242.73 113.78 242.39 113.71 242 113.45 241.63 113.12 241.36 112.81 240.49 111.49 240.11 110.69 239.4 109.7 239.12 109.22 239.02 108.91 239 108.73 238.94 108.57 238.69 108.3 238.28 107.96 238.07 107.86 237.87 107.84 237.65 107.7 236.87 106.92 236.56 106.66 235.83 106.25 235.23 105.76 235.06 105.65 234.36 105.34 234.3 105.27 234.28 105.18 234.24 105.08 234.15 105.01 234.05 104.99 233.83 105.09 233.72 105.11 232.85 105 232.4 104.76 232.1 104.29 231.99 104.05 231.42 103.42 231 102.78 230.85 102.6 230.39 102.36 229.45 102.27 229.03 102.03 228.6 101.71 228.38 101.83 228.18 102.11 227.76 102.23 226.35 101.81 225.63 101.44 224.2 101.42 223.48 100.95 222.33 99.5 221.69 98.85 220.83 98.53 217.1 99.36 216.75 99.59 216.33 100.43 216.03 100.78 215.65 101.01 215.26 101.11 215.58 100.3 215.93 99.66 215.78 99.49 215.66 99.67 215.53 99.81 215.21 100 215.45 99.57 215.82 99.18 216.24 98.95 216.62 99.03 216.93 99.14 217.03 98.92 217.06 98.44 217.27 98.36 218.85 96.97 219.22 96.8 220.93 96.74 220.67 96.5 219.85 96.02 219.64 95.93 219.41 95.75 218.93 94.7 218.69 94.31 218.81 93.78 218.76 93.4 218.58 93.12 216.99 92.27 216.4 92.14 215.76 91.68 213.45 89.48 212.75 89.02 212.14 88.91 211.55 88.65 210.46 87.06 209.92 86.63 209.96 86.24 209.69 85.85 208.56 84.91 207.24 84.06 206.95 83.94 206.19 83.92 206.05 83.83 205.88 83.69 205.68 83.56 204.99 83.47 204.19 82.78 203.72 82.61 203.88 82.31 203.84 81.93 203.67 81.57 203.44 81.28 203.26 80.94 202.99 78.89 202.96 78.05 203.08 76.38 202.93 76.09 203.07 75.82 203.34 75.62 203.6 75.52 203.77 75.37 204.34 74.51 204.56 73.95 204.55 73.63 204.4 73.1 203.13 70.21 202.74 69.54 202.05 68.67 201.79 68.27 201.57 67.83 201.4 67.41 201.33 66.99 201.3 66.57 201.19 66.18 200.89 65.86 200.88 65.36 200.79 64.69 200.75 64.08 200.88 63.78 201.13 62.32 201.15 61.94 201.07 60.86 200.98 60.15 200.79 59.86 200.57 59.6 200.05 58.3 199.89 58.02 199.49 57.58 197.56 54.04 197.26 53.71 196.14 52.93 195.95 52.84 195.76 52.8 195.56 52.87 195.4 52.99 195.25 53.06 195.04 52.97 195.17 52.59 195.05 52.28 194.23 51.48 193.99 51.2 193.81 50.88 193.64 50.48 193.2 48.7 193.13 48.15 193.04 47.9 192.83 47.84 192.82 47.69 192.56 46.98 192.61 46.81 192.8 46.42 192.82 46.28 192.78 45.99 192.89 45.23 192.84 43.81 193.13 41.05 193.06 37.29 193.16 34.03 193.06 33.46 192.79 32.97 192.61 32.9 192.23 32.94 192.05 32.87 191.96 32.7 191.58 31.84 191.5 31.72 191.42 31.6 191.36 31.43 191.36 31.27 191.41 31.19 191.47 31.13 191.48 31.04 191.44 30.75 191.42 30.55 191.37 30.37 190.87 29.73 190.68 29.3 190.63 28.84 190.74 27.89 190.72 27.34 190.54 26.88 189.79 26.66 189.09 26 188.7 25.95 189.07 26.39 189.5 26.72 189.67 27.07 189.29 27.52 189.72 28.06 189.84 28.33 189.57 28.18 189.29 28.2 188.67 28.23 188.36 28.09 188.28 27.95 188.28 27.82 188.29 27.69 188.23 27.56 188.13 27.5 187.94 27.47 187.82 27.39 187.57 27.15 187.35 26.99 187.11 26.93 186.8 26.96 186.61 26.89 186.38 26.7 186.13 26.55 185.85 26.61 185.91 26.72 186.03 27 186.09 27.12 185.7 27.19 184.81 26.82 184.38 26.77 183.99 26.95 183.05 27.82 182.81 27.92 182.02 28.05 181.77 28.04 181.24 27.87 181.02 27.91 180.78 28.26 180.53 29.2 180.22 29.39 180.41 28.66 180.42 28.5 180.4 28.15 180.5 27.93 180.6 27.78 180.63 27.62 180 26.5 179.06 26.21 178.12 26.42 177.45 26.83 176.59 27.7 176.2 27.87 176.05 27.82 175.66 27.55 175.46 27.47 175.25 27.47 174.64 27.65 172.83 27.79 172.4 27.64 172.19 27.62 171.53 27.85 171.26 27.83 170.01 27.43 168.21 27.34 167.9 27.62 168.38 27.97 168.61 28.09 168.9 28.17 169.53 28.11 169.91 28.15 170.11 28.34 170.23 28.77 170.38 29.04 170.77 29.51 170.8 29.75 170.71 30.02 170.73 30.33 171.08 30.65 171.03 30.85 170.8 30.71 170.62 30.55 170.48 30.33 170.4 30.04 170.55 29.63 170.6 29.38 170.49 29.3 170.31 29.24 170.17 29.05 170.04 28.8 169.9 28.58 169.68 28.45 169.5 28.51 169.33 28.62 169.11 28.65 168.9 28.54 168.7 28.37 168.5 28.25 168.28 28.3 168.25 28.44 168.25 28.93 168.19 29.05 167.87 29.04 167.88 28.85 167.94 28.51 167.76 28.12 167.07 27.68 165.53 27.36 164.8 27.07 164.41 27 164.01 27.21 162.47 28.75 162.19 28.82 161.68 28.84 160.67 28.63 160.16 28.7 157.36 29.69 157.08 30 156.55 30.24 155.56 30.95 154.72 31.21 149.48 30.91 147.88 31.25 147.16 31.64 146.53 32.23 146 33.01 144.78 36.47 144.69 36.97 144.6 38.78 144.49 39.32 144.25 39.82 144.06 39.96 143.98 39.69 144.04 38.95 144.16 38.25 144.17 38.09 144.1 37.87 143.88 37.54 143.82 37.4 143.87 36.95 144.64 35.67 144.75 35.2 144.89 34.18 145.01 33.66 145.15 33.41 145.51 33.1 145.65 32.91 145.71 32.65 145.69 32.18 145.77 31.93 146.1 31.67 146.48 31.52 146.75 31.23 146.74 30.54 146.48 30.01 146.05 29.8 144.31 29.76 143.38 29.53 140.7 28.22 140.23 27.87 139.96 27.41 139.74 26.86 139.4 26.38 139 25.99 138.64 25.71 137.14 25.19 136.73 24.86 136.39 24.48 136.08 24.3 135.75 24.27 135.31 24.3 134.41 24.15 132.68 23.3 131.84 23.29 131 23.46 127.44 23.11 123.2 21.43 121.35 21.3 120.79 21.2 120.19 20.84 119.88 20.77 119.27 20.77 118.65 20.63 117.68 20.14 117.35 20.09 116.53 20.41 116.28 20.28 116.37 20.19 116.4 20.11 116.4 20.02 116.44 19.89 116.02 19.82 114.91 20.15 110.92 19.9 110.27 20.39 110.31 19.33 110.16 18.92 109.72 18.81 108.53 18.99 108.13 18.89 108.1 18.42 107.82 18.2 107.43 18.12 107.06 18.15 106.66 18.34 106.51 18.72 106.44 19.16 106.28 19.57 106.17 19.19 106.04 18.86 106.34 18.07 106.4 17.89 106.36 17.49 106.23 17.38 106.04 17.34 105.79 17.16 105.22 16.4 104.81 15.98 104.43 15.82 104.23 15.69 104.09 15.32 104 14.96 103.93 14.8 101.4 11.77 99.85 10.48 99.57 10.15 99.15 9.3 99.09 9.22 98.97 8.93 98.79 8.78 97.93 8.41 97.02 8.31 93.71 7.19 92.8 6.61 92.66 6.45 92.55 6.29 92.41 6.17 92.17 6.16 92.02 6.1 91.61 5.77 91.05 5.17 90.55 4.72 90.08 4.43 89.79 4.48 88.77 4 88.2 3.86 87.91 3.6 87.41 3.01 86.77 2.42 85.47 1.65 84.88 1.17 85.12 0.75 84.99 0.54 84.7 0.49 84.4 0.52 84.32 0.45 84.18 0.11 84.08 0.01 83.91 0 83.77 0.08 83.51 0.28 83.13 0.32 79.73 5.41 76.69 9.96 73.63 14.51 70.56 19.11 66.2 25.6 61.78 32.11 57.31 38.65 52.81 45.21 48.8 51.12 44.76 57.09 40.7 63.1 36.61 69.13 34.32 72.52 32.01 75.93 29.7 79.33 27.37 82.75 25.77 85.12 24.18 87.52 22.55 89.85 20.83 92.03 17.43 96.01 13.99 99.98 10.54 103.94 7.05 107.89 6.27 108.77 5.5 109.64 4.72 110.51 3.95 111.4 3.1 112.38 2.24 113.37 1.39 114.36 0.53 115.35 0 116.03 0.1 117.48 0.78 127.88 1.47 138.28 2.14 148.68 2.83 159.09 3.34 167.04 3.86 175 4.37 182.96 4.88 190.92 5.07 193.83 5.25 196.75 5.35 198.69 5.46 200.63 5.58 203 5.74 206.09 5.8 207.33 6.83 207.68 8.91 207.49 9.91 207.71 11.17 208.35 11.48 208.58 11.72 208.99 11.92 210.06 12.13 210.65 12.23 211.14 12.23 212.32 12.39 212.84 12.63 213.35 13.48 215.97 14.43 218.87 14.51 220.25 14.54 220.78 14.56 221.28 14.63 221.7 14.82 222.15 15.07 222.44 16.85 223.71 18.19 224.2 18.89 224.26 21.81 223.7 22.15 223.73 22.3 223.8 22.48 223.91 22.65 224.07 22.79 224.25 22.85 224.44 22.95 224.99 22.99 225.12 23.33 225.24 26.81 225.22 29.64 225.19 30.37 225.64 30.99 227.56 31.58 228.15 31.97 228.19 34.41 227.61 34.71 227.72 35.27 227.35 36.58 227.14 37.1 226.7 37.21 226.28 37.15 225.91 37.16 225.63 37.75 225.4 38.28 225.07 40.49 224.47 42.72 224.44 45.41 224.38 45.84 224.49 47.18 225.24 50.04 225.82 51.42 226.01 51.79 226.43 51.88 226.87 51.55 227.04 50.79 227.31 50.47 227.53 50.38 228.15 50.68 228.51 51.16 228.56 51.52 228.62 53.02 228.26 53.79 228.21 54.46 228.48 54.8 229.06 54.97 229.47 55.09 230.55 55.23 231.19 55.47 231.6 56.13 232.36 56.86 233.61 57.11 233.85 57.42 233.81 57.87 233.59 58.27 233.29 58.47 233 58.39 232.45 58.17 231.93 58.09 231.4 58.41 230.81 58.79 230.56 60.61 230.11 62.09 230.05 62.61 230.33 62.9 230.87 63.13 231.53 63.43 232.16 63.75 232.53 64.07 232.79 64.42 232.97 66.37 233.65 67.93 233.72 68.32 233.88 68.64 234.15 69.3 234.9 69.01 235.61 69.47 235.94 70.8 236.03 71.17 235.97 71.31 236.01 71.49 236.19 71.54 236.44 71.47 236.72 71.46 236.95 71.69 237.04 73.23 236.73 73.64 236.81 73.99 236.99 74.33 237.07 75.37 236.39 76.92 236.03 77.56 235.49 78.08 234.76 80.23 232.83 80.95 232.38 81.27 232.09 82.67 231.06 83.53 230.76 84.15 231.07 84.23 231.32 84.08 231.65 84.09 231.89 84.24 232.22 84.41 232.33 84.61 232.4 84.83 232.58 85.04 232.92 85.25 233.7 85.48 234.12 86.17 234.48 87.03 234.36 88.57 233.68 89 233.59 89.24 233.75 89.49 233.96 89.85 234.05 90.03 234.01 90.53 233.69 90.72 233.61 90.85 233.65 90.96 233.71 91.1 233.74 96.17 232.41 97.2 232.32 98.07 232.59 98.33 232.83 99.47 234.33 99.73 234.59 100.03 234.79 101.16 235.24 101.49 235.25 103.14 234.29 103.52 234.15 103.84 234.1 104.16 234.16 104.56 234.32 104.78 234.36 105.37 234.14 105.75 234.11 106.92 234.26 108.61 234.09 109.25 234.01 110.61 234.21 111.03 234.17 111.42 234 112.97 232.8 115.4 230.89 118.48 228.47 120.45 226.91 122.68 225.13 123.75 224.61 126.61 223.29 127.16 223.18 127.69 223.28 131.28 224.72 134.87 226.17 138.47 227.61 142.07 229.03 145.69 230.45 149.31 231.85 152.94 233.25 156.58 234.64 158.62 235.45 160.66 236.24 162.7 237.04 166.8 238.63 168.85 239.42 170.9 240.2 172.96 240.98 175.42 241.95 177.89 242.91 180.36 243.86 182.83 244.81 185.3 245.76 187.78 246.71 190.27 247.65 192.75 248.59 193.08 248.72 193.4 248.86 193.73 248.99 194.06 249.13 194.39 249.26 194.71 249.4 195.04 249.53 195.36 249.66 195.71 250.03 195.99 250.55 196.61 251.98 197.25 253.43 198.22 255.65 198.59 256.22 200.37 257.75 202.7 259.73 203.19 260.02 203.68 260.14 204.21 260.07 204.54 259.87 204.74 259.56 204.91 259.21 205.16 258.85 205.5 258.19 206.05 257.85 206.71 257.65 207.66 258.04 208.66 257.16 209.36 256.48 210.27 256.44 211.02 256.69 210.65 259.3 211.03 260.13 211.49 260.72 212.06 261.34 212.03 261.89 211.99 262.27 212.18 262.73 212.41 263.2 212.69 263.85 212.76 264.21 212.87 264.52 213.17 265.11 213.89 265.77 214.62 266.16 214.93 267.07 215.05 267.14 215.34 267.39 215.84 268.05 216.11 268.27 216.43 268.27 216.7 268.05 217.53 266.76 217.78 266.5 218.07 266.35 218.47 266.34 219.45 266.41 221.21 265.7 222.15 265.6 223.16 266.07 224.42 267 224.78 267.2 225.18 267.5 225.47 267.85 225.49 268.24 225.02 270 224.54 271.81 224.12 273.34 225.85 274.01 228.2 274.89 232.25 276.41 235.97 277.79 241.34 279.76 244.87 281.05 245.83 281.86 246.35 282.86 248.44 288.15 250.53 293.43 254.72 304 256.82 309.28 258.92 314.56 261.02 319.85 263.13 325.13 263.24 325.4 263.37 326.03 263.38 326.76 263.12 328.52 262.88 330.28 262.63 332.04 262.37 333.79 262.12 335.56 261.87 337.31 261.62 339.07 261.35 340.83 261.45 341.74 261.67 342.62 261.55 343.51 261.29 344.46 261.28 345.42 261.32 345.95 261.21 346.76 261.25 347.21 261.58 347.69 261.68 347.88 261.73 348.16 261.73 348.66 261.84 349.79 261.71 351.8 261.57 352.56 261.29 353.41 260.89 354.02 260.33 354.44 259.66 354.67 258.92 355.88 257.45 358.96 256.94 359.62 255.04 361.18 253.31 362.19 252.69 363.05 252.29 364.02 252.11 364.94 252.18 366.01 252.55 368.23 252.54 370.12 252.83 371.31 253.91 373.27 254.65 374.33 255.35 374.94 257.21 375.63 259.8 376.6 263.18 377.85 264.1 377.96 268.26 376.98 268.74 376.74 271.15 374.39 273.55 372.05 275.94 369.7 278.33 367.34 280.71 364.99 283.08 362.63 285.44 360.26 287.8 357.89 290.14 356.81 292.49 355.71 294.82 354.61 297.16 353.52 299.5 352.42 301.55 351.44 301.82 351.31 304.16 350.2 306.48 349.09 309.05 346.94 311.61 344.8 314.17 342.64 314.57 342.31 316.72 340.49 319.26 338.32 321.79 336.16 324.31 333.99 326.84 331.82 327.64 330.57 328.14 329.08 328.05 327.96 327.81 327.54 327.33 327.33 326.85 327.29 326.35 327.14 325.78 326.88 325.45 326.66 325.19 326.42 325.12 325.85 325.13 325.44 325.05 325.22 324.86 325.04 324.59 324.86 324.25 324.61 324.06 324.42 323.95 324.19 323.85 323.82 323.86 323.54 323.91 323.3 323.93 323.06 323.89 322.71 323.83 322.43 323.13 320.13 322.93 319.71 321.87 318.2 319.51 315.44 321.06 314.08 323.2 312.19 326.33 309.4 327.4 308.71 331.67 307.58 335.93 306.42 340.19 305.26 344.45 304.08 348.7 302.9 352.95 301.7 357.2 300.48 361.44 299.26 361.52 299.16 361.6 299.07 361.69 298.98 361.77 298.88 361.85 298.79 361.94 298.69 362.02 298.6 362.11 298.51 362.48 296.86 362.85 295.22 363.22 293.57 363.59 291.93 363.96 290.28 364.32 288.64 364.69 287 365.05 285.35 365.35 284.73 366.43 283.04 366.48 282.85 366.48 282.63 366.49 282.4 366.6 282.16 366.77 282.01 368.52 280.56 368.84 280.24 369.01 279.72 368.96 279.58 368.62 279 368.55 278.83 368.88 278.02 370.03 276.44 372.66 274.17 373.11 273.79 373.26 273.36 373.32 272.87 373.38 272.14 373.84 271.08 374.26 270.09 374.81 268.39 376.36 265.67 377.91 262.92 379.34 260.35 380.23 258.74 382.24 256.37 383.12 255.79 383.37 255.56 383.95 254.67 384.18 254.41 385.09 253.68 385.6 253.02 385.87 252.82 386.18 252.7 388.52 252.25 389.04 252.07 389.74 250.62 391.29 249.04 391.58 248.64 391.63 248.24 391.58 247.69 391.7 247.04 391.91 246.46 392.15 246.06 392.3 245.93 392.81 245.65 392.97 245.48 393.27 245 393.31 244.91 393.48 244.76 393.66 244.33 393.46 244.21"/></g></g></svg>