<svg xmlns="http://www.w3.org/2000/svg" viewBox="0 0 337.73 376.9"><defs><style>.cls-1{fill:#c9dcec;fill-rule:evenodd;}</style></defs><title>Quebec</title><g id="Layer_2" data-name="Layer 2"><g id="Quebec"><path id="Quebec-2" data-name="Quebec" class="cls-1" d="M210.66,303.55l.24,0,.23-.16.17-.34.32-1v-.23l-.22.08-.41.18-.26.21-.22.29-.12.28,0,.23,0,.22.09.2Zm-35.19,62.71-.08.14-.07.1-.39.36-.15.09-1.18.31-.09.07-.16.18-.14.22-.07.2v.2l.09.2.16.18.11.07.12,0h.12l.85-.33.45-.27.23-.24.35-.22.12-.13.11-.16.13-.35.21-.37.09-.23,0-.07.05-.13,0-.13v-.12l0-.15-.87.48Zm134-153.33-.06-.27,0-.2.16-.38v-.27l-.45-.14-.51-.21-.76-.55-.28-.15-.39-.06-.1,0-.12-.1-.26-.28-.09-.08-.5-.07L306,210l0-.33-.92-.27-.4-.23-.27.16-.41.36-.17,0-.41-.14-.62-.11h-.19l-1.53.62-.7,0-.19.06-.19,0-.18-.08-.16-.09-.11,0-.64-.38-.21-.08-.18,0-.31.14-.18,0-.54-.19-.2,0-.23.22-.15.07-.21-.06-1-.47-.06-.07-.15-.22-.09-.09-.11,0-.22.06H295l-.79-.37-.4-.11-.78.21-.43,0-1.24-.2H291l-.32.08-.35.15-.28,0-1.2-.13-.57.33-.19,0-.72-.33-.41-.07-1.17.28-1.32-.09-1.13.41-2.5.31-1.9.57-1.21.51-1.34.26-3.4,1-.81-.11h-.13l-.36.11-1.63.08-1,.47-.17.15,0,.16,0,.19-.09.21-.13.1-.33.13-.68.44-1.09,1-.3.63,0,.6.28.1.39,0,.31.18.28.27.45.16.45,0,.32-.08-.43-.41.21-.27h.51l.45.39.34.14h2l1.78-.23,2.1,0,2.8.45,1.73.67.75.34.34.21.26.24.21.31.21.39.29.25.4.16.29.22,0,.39,1.9-.19.8-.27.32,0,.33,0,.53.13.82-.18,1.27.43.71-.12,1.22.14,3-.65,3.07-.38,2.33-1,1.42-.06,1-.3.37.07.36.12.43,0,.4-.12,1.34-1.1,1.08-.39,2-1.34.22-.08.66,0,.17-.07.38-.94.14-.1.26-.1.22-.17,0-.12ZM175,364.63l.14.13.32.19.14.11,0,0h.05l.27,0,.26-.07.11-.07.07-.06.25-.34.08-.07.2-.08,0-.08,0-.08h-.07l-.23,0h-.21l-.07,0-.19-.09-.08,0-.17,0-.87.16,0,0,0,0,0,0v.17Zm31.37-46.92.85-1.13.57-1.11.2-.2.1-.26.14-1.06.08-.33,0-.33-.17-.19-.23-.07h-.23l-.53.38-.36.71-.54,1.51-.93,1.45-.32.83.29.32.61-.2Zm-31.52,46,0,0,0,0,.19.08h.05l.17-.08.28-.06,1-.79.46-.52.15-.11.08,0,1.16-.33,1.6,0,.17,0,.14-.08.11-.15,0-.09.05-.31,0-.09,0-.08.22-.26.05-.07,0-.09v-.11l0-.12-.31-.69-.07-.23,0-.26,0-.25v-.22l0-.22.15-.52v-.12l0-.2-.1-.4-.08-1.21,0-.25v-.39l-.08-.16-.14,0-.26.2-.12.1-.09.11-.08.14-.15.39-.71,1.19-.11.23v.2l-.1.54v.26l-.11.6-.23.57-.26.35-.61.62-.17.13-.08,0-.17,0-.08,0-.28.17-.3.1-.07.07,0,.12L176,362l0,.09-.27.31-.7,1.09-.13.15,0,0ZM117,51.61l.45.46.69.46.26.23,0,.11,0,.12.1.42,0,.14,0,.12v.09l.2.39,0,.1v.3l0,.49v.25l.34.2.21-.13.06-.34-.1-.46.63.31.26,0,.1-.28-.3-.29V54l.25-.52,0-.14L120,53l0-.17,0-.11.14-.25v-.06l-.23-.24-.23.08-.21.12-.17-.1-.15-.34-.28-.91-.06,0-.21-.25-.43.08-.61.29-.08.21-.31.1Zm61.27,305.87.21-.52.21-.31.25-.28.09-.18-.06-.13-.16,0-.15.08-.69.52-.1,0h-.23l-.1,0-.13.09-.51.52-.25.37-.18.34-.4,1.09-.23.37-.18.47-.11.43v.17l.07.13.15.07H176l.91-.34.44-.28.19-.18.16-.19.12-.21.19-.5.21-1.11v-.3Zm-2.83,4-.08,0-.47.44,0,.06-.05.1,0,.11,0,.11.07.07.08,0,.07,0h.08l.17-.14.21-.28.13-.32-.1-.23Zm108-119.77-.56-.16-.46,0-.12-.14-.15-.43,0-.76.34-.33.46-.17.34-.34-.32-.22-.32-.18-.29-.09-.24,0-.27-.06-1-.7-1-.3-.4,0-.43-.13h-.19l-.13.09-.08.14-.11.09-.22-.05,0-.28.12-.1.35-.06.1-.15-.12-.15-.17-.11-.09,0-.22-.15-.33,0-.56.23-.68.63-.27,0-.09-.17.74-.52L277,237l-1.13-.33h-.35l.4-.19,3.46-.39.89.17.39-.06.29.1.47.23.39.09,0-.34-.35-.09-.38-.2-.61-.43-.29-.92-.44-.41-1.19-.44-.13-.09-.26-.24-.09-.07-.22,0-.43.06-.19,0-.64-.34-.32-.11-.72-.08-.18,0-.46-.24h-.13l-.12,0h-.19l-1.07-.39H273l-.43-.13-.18,0-1.07.29-.38,0-.77-.09-.8-.22-.35,0-.77.22-1.35.05-3.11,1.07-1.18.39-1.71.4-2.25.95-.58.44-.72.79L255,238,252.77,239l-2,1.36-3.29,3.42-1.14.8-2.65,3.14-2.34,3.17-1.94,1.85-.73.84-.55,1-1.51,1-.47,1-.51.4-.25.3-.38.6,0,.13-2.38,3.42-.24.19-.68.31-.32.24-.21.32-.21.73-.17.24-.64.4-.23.25-1,1.79-.25.88-.27.25-.62.35-.35.6-.29,1.57-.34.63L226,271l-.06.31-.07.24-.55,1.12-.27.21-.77.34-.19.25-.06.6-1.14,1.85-.73,1.68-.57,2.37-.91,1.73-.41,1.7-.17.33-.2.26-.53.52-.25.15-.18.25-.51,2.74.05.41.15.31.11.14.06.12v.23l0,.17-.25.45-.65,2.38-.64,2.88-.7,2.18-.4.37,0,.21,0,.23L216,298l-.11.13-.24.23-.1.14-.17.8.32,1.59-.1.8-1.2,1.8-.19.79-.19,2-.64,2.55-1.18,3.06-.21.28-.59.37L209.92,314l-.16.3-.1.63-.08.19-.11.09-.33.08-.14.06-.1.17-.15.39-.16.13-.15,0h-.36l-.18,0-.21.21-.47,1.06-.56.47-1.37.49-.51.5-.12.46-.11.95-.21.25-.24.21-.37.68-.22.28-4.94,4.64-.68.2-.72-.11-.4-.14-.36,0-.29.15-.33.77-.59.83-.14.43-.06.41-.13.35-.32.23-.35.15-.59.36-1,1.19-.06.27.05.35v.51l-.09.9-.29.66L190.64,335l-.63.83-.3.19-.2.27-.45,1.49-.55.9-.47.61-.18.33.15.37.11.32-.6,1.15-.36.23-1,1.1-.43.28-.48.19-.4-.07-.22.41-.23.44-.2.37-.17.31-.15.32-.06.24-1.33.84-.17.27,0,.17,0,.19V347l.06.26v.26l-.16.6,0,.28.13.43.17.38.11.37,0,.42-.29,1.18-1.48,3-.13.5-.05.7.12.73.37.6,0,.17.06.4v.24l-.06.23-.2.44-.14,1.11.06.27.1.3.09.2.6.78.11.33-.08.55-.1.15-.18.19-.2.11-.12-.07-.15-.16-.18.06-.3.24-1.28.24-.21.19-.09.15-.3.17-.1.19-.16.63-.08.19-.64.85-.16.33-.11.13-.34.09-.11.14-.61,1.87-.43.69-.56.49-1.45.46-.24.21-.34.71-.25.24-1.22.73-.28.23-.27.53-.13.17-.15.14-.13.09-.13.14,0,.23.06.25,0,.21-.24.76-.41.6-2,1.94-1.06.71.25-.06,1.48-.5,1.48-.5,1.48-.51,1.48-.51,1.48-.51,3-1,1.48-.52,1.48-.51,1.48-.52,1.48-.52,1.48-.52,2.95-1,1.48-.53,1.47-.53,1.48-.54,2.94-1.07,4.41-1.62,1.46-.55,1.47-.54,1.46-.55,1.46-.54,1.47-.56,1.46-.55,1.46-.55,1.46-.56,1.46-.56,1.46-.56-.22-.49L214,359v-.33l.25-1.17v-.26l-.07-.43,0-.25.14-.92-.05-.44-.33-.17-.46-.06.09-.2.58-.41.13-.28.21-.75.18-.32.29-.24.28-.06,1.52.33h.4l.38-.08.22-.24.17-.91.12-.38.12-.12.29-.18.11-.12.15-.38,0-.29.09-.25.3-.23.4-.07.34.17,1.34,1.58.3.17.17-.34,0-.22-.18-.39,0-.21.05-.2.21-.34,0-.22-.11-.42-.41-.93-.14-.44,0-.41.09-.35.2-.26.34-.12.34.06.7.34.38.06.3-.11.26-.27.08-.35-.29-.35-.35-.15-.71-.15-.34-.22-.3-.39-.11-.36.11-1.63.76-2.24.16-.32.68-.74.28-.55.14-.15.32-.13.15-.11.2-.34.05-.38-.08-.41-.2-.45-.15-.2-.12-.1-.1-.11-.06-.24,0-.16.17-.42.75-1.35.23-.65,0-.81-.12-.58-.17-.13-.27,0-.41-.07-.3-.23-.14-.33-.15-.84v-.08l.08-.19v-.09l-.06-.11-.08-.07-.1-.06-.09-.06-.14-.09-.08-.16.09-.28.37-.57.1-.38-.09-.46-.26-.43-.37-.35-.37-.07-.11-.45.06-1-.06-.88.07-.34.28-.22-.05-.22-.14-.48-.06-.51.22-.33.16-.18.73-1.44,0-.62-.39-1.47-.58-2.19-.31-1.15-.13-1,.1-.48.51-2.42.51-2.42.5-2.42.5-2.42.49-2.42.48-2.42.47-2.42.47-2.42.12-.37.13-.2.2-.11,2.34-.29.34.2.25.62.36,1.33.3.7.08.12h0l.11-.13.8-.85.89-.74.89-.73.82-.81,1.48-1.74.49-.58.3-.5.23-.61.2-.65.2-.61.23-.53.23-.54.09-.59-.16-.67-.17-.43-.18-.45-.34-.79-.34-.79-.67-1.57-.34-.79-.34-.79-.34-.79-.33-.79.9-.38.45-.2.45-.2.45-.2.45-.19.45-.2.45-.19-.08-.19-.07-.18-.08-.18-.08-.19-.07-.18-.08-.18-.08-.19-.07-.18.82-.36.82-.36.82-.36.82-.36.82-.36.82-.37.82-.37.82-.36.2-.09.07.1.13.23.14.25.08.14.09.23,0,.17.09.09h.23l.37-.07.35,0,.36,0,.4,0,.25,0,.25,0,.25,0h.65l.14,0,.12.09.12.15.11.14.12.09.47.06.08-.29-.09-.46,0-.46.12-.23.22-.09.24,0,.23-.06.19-.13.14-.1.17-.07h.5l.2-.08.18-.14.17-.19.14-.18.09-.17.07-.17.09-.19.18-.27.24-.25.28-.19.29-.08.32.09.47.15.43,0,.2-.28-.11-.33-.23-.27-.2-.32,0-.46.13-.41.23-.38.3-.27.33-.13H254l.15-.21.18-.13.44-.18.15-.13.23-.35.62-.44.37-.42.06-.17v-.17l0-.15.13-.12.34,0,.18,0,0-.44.59-.2V266l-.12-.88.45-.51,1.35-.48.58,0,.08,0,.11.06.09.09.06.09.07.06.08,0,.08-.06.08,0,.13.08.13.11.12.06.12-.11v-.15l-.15-.67-.27.09h-.25l.12-.21.2-.15,1.17-.53,1.35-.16.33-.28.15-.41.39-2,.07-.21.14-.14.22-.11.12-.12,0-.22-.05-.4.23.33.17.44.2.34.53,0,.8.37.63.07,1.73-.32,1.52.08.58-.17.51,0,.21,0,.12.09.23.28.11.1.33.08.43,0,.39-.14.19-.28,1.28-.71,1.08-1.3,1.13-2.05.6-.92.26-.74-.23-.17-.2-.26-.11-.23,0-.06.2.08h.2l.19-.08.2-.11,1.44-1.39,0-.4-.1-.48,0-.73-.07-.36,0-.09.05-.09,0-.16v-.33l-.06-.21-.11-.12-.15-.07-.21-.06.12-.16.35-.2.17-.34,1.16-1.53.57-.45.55-.61,1-.68.34-.33.09-.35-.24,0-.11-.41.06-.37.15-.33.21-.28.4-.36.07-.14V242l0-.2.07-.2-.24.09ZM154.17,31.13h.06v0ZM329.54,240.52l-1.52.9-.35.33-.22.37-.74,2.78.19-.36.26-.31.17-.49.18-1,.17-.44L328,242l.36-.26.39-.16.07.52-.07.52-.17.46-.23.33.32,0,.37-.33.27-.48,0-.41-.09-.37.13-.27.33-.39,0-.28,0-.27Zm7.92-107-.54-.85-.67-1-.8-1.26-.53-.83L334,128l-.92-1.44-.92-1.44-.31-.47-.57-.9-.81-1.27-.27.18-1.22.79-1.22.79-1.23.79-1.22.79-2.86,1.82-1.38.88-1.38.87-2.82,1.77L314,133l-2.84,1.76-2.85,1.74-2.85,1.74L302.64,140l-3.51,2.1-3.52,2.08-3.53,2.06-3.55,2.06-3.55,2-3.57,2-3.57,2-3.59,2-2.4,1.32-2.4,1.32-2.4,1.31-2.41,1.3-2.42,1.3-2.42,1.29-1.17.62-1.16.62-2.52,1.32-.39.21-.4.21-.4.21-.4.21-.57-.06-.72-.37-.41-.46.34-.26h.45l.7,0,.65,0,.3-.19-.1-.3-.28-.25-.34-.24-.27-.27-.6-.88-.63-.82-.68-.7-.75-.5-.21-.08L250,162l-.26-.15-.14-.21.06-.15.15-.14.1-.15-.09-.19-.42-.11-.5.2-.49.29-.39.17-.39,0-.7,0-.67-.06-.29-.24.29-.17.52-.2.28-.31-.47-.47-.19-.13-.19-.14-.19-.14-.18-.08h-.25l-.1.15-.05.22-.06.21-.19.15-.31.06-.34-.11-.28-.37-.08-.5,0-.68.08-.65.09-.42.26-.7.33-.66.41-.57.47-.44.56-.39.55-.4.55-.41.55-.4.3-.21.3-.22.29-.22.3-.22.27-.12.29-.07.3-.07.26-.13.27-.46-.29-.42-.57-.33-.53-.2-.3,0h-.29l-.29,0-.29,0-.32-.07-.35-.08-.33,0-.26.08-.25-.93-.25-1-.29-1-.38-.92-.37-.56-.42-.36-.45-.22-.45-.14-.34-.17-.22-.25-.18-.32-.24-.37-.51-.27-.62.08-.58.25-.37.26-.39.32-.45.37-.33.5-.05.71.18.43.28.37.32.37.25.43,0,.52-.16.45-.06.41.3.42.58.58-.06.34-.43.18-.49.09-.46.15-.4.28-.29.43-.11.61,0,.5.13.49.25.4.39.25.46.31.12.44V156l.1.59.23.41.59.58.25.39.08.3v.54l.05.29.17.29.24.23.26.17.24.12.45.26.41.32.41.37.42.39.18.17.18.19.17.17.19.16.22.27.06.31v.62l.09.54.19.56.26.55.29.51.24.36.27.37.26.37.22.36v.43l-.32.29-.43.19-.31.1-.31.26v.38l.16.47.12.55,0,.29,0,.19.09.16.15.23.21.25.19.21.09.22-.09.24-.2.5.18.42.34.45.3.62.07.51v.41l.1.36.35.34.25.2.23.25.24.25.25.2.19,0,.2-.05.2,0,.2.26v.23l-.05.32-.07.33-.05.25-.1.4-.2.31-.25.24-.26.22-.28.37-.11.42v1.5l0,.16-.09.08-.08,0-.08,0-.07,0-.05,0,0,.23,0,.28,0,.27-.07.21-.27,0-.3-.45-.34-.59-.34-.45-.53-.25-.51-.05-.48-.1-.41-.4-.3-.44-.23-.33-.06-.31.18-.38.27-.24.41-.42.2-.51-.33-.51-.57-.17-.59.08-.61.11-.61-.09-.47-.1-.61-.08-.58-.16-.42-.35-.17-.51v-.37l-.1-.32-.49-.36-.57-.18-.54,0-.53,0-.56-.17-.61-.33-.6-.33-.59-.26-.59-.14-.66.14-.57.37-.56.37-.63.11-.17-.07-.17-.12-.17-.11-.17-.06-.31,0-.28.13-.26.17-.24.17-.22.13-.19.14-.14.21-.06.33,0,.36.07.36,0,.35,0,.34.07.62.26.67.12.57-.35.31-.23-.06-.23-.17-.22-.2-.23-.15-.4-.09-.4,0-.39.09-.35.07-.2,0-.18.1-.13.16,0,.25.11.32.2.28.17.27,0,.3-.12.14h-.21l-.23-.06-.2,0-.28.08-.24.15-.24.15-.3.06-.48,0-.61-.06-.62-.16-.51-.33-.3-.49-.17-.57-.2-.53-.37-.37-.46,0-.33.28-.34.23-.47-.15-.25-.14-.24-.09-.23-.09-.24-.14-.19-.2-.16-.21-.16-.16-.19-.08-.36.13,0,.38.15.49.26.47.15.19.14.18.12.2.08.26V179l-.06.27v.29l.18.33.17.22.11.2,0,.09-.21-.09-.23-.11-.17,0h-.17l-.2,0-.53-.2-.39-.36-.33-.49-.35-.6-.34-.39-.32-.21-.27-.27-.19-.57,0-.29v-.26l0-.23.07-.22.17-.21.26-.29.23-.31.06-.29-.1-.06-.22-.15-.24-.17-.16-.14-.14-.21-.12-.23-.12-.21-.17-.18-.2-.15-.2-.14-.19-.13-.2-.12-.28-.26.11-.13.29-.06.23,0,.14-.29-.37-.38-.55-.38-.38-.27-.15-.2-.12-.22-.09-.23-.05-.24-.06-.2-.08-.13-.1-.12-.11-.16-.25-.58,0-.32.24-.12h.39l.28-.11,0-.32-.14-.41-.25-.38-.38-.31-.42-.28-.34-.34-.12-.49.2-.27.38-.43.29-.45-.08-.36-.38-.17-.4-.11-.39-.2-.34-.45-.33-.46-.38-.2-.4-.08-.4-.09-.23-.08-.26-.09-.25,0-.19.07-.14.2,0,.17.13.21.16.3.19.63v.51l-.19.37-.36.23-.39,0h-.35l-.17.2.17.62.23.52.52,1,.24.54.21.46.28.6.2.58v.38l-.34.33-.34.24-.25.36-.08.67-.17.4-.44-.39-.51-.66-.36-.38-.35.08.23.48.41.57.16.36-.22.11-.26,0-.28-.11-.28-.08-.28,0-.23.13-.21.17-.23.16-.4.11-.42-.11-.36-.37-.18-.68-.07-.64-.17-.6-.27-.58-.38-.61-.28-.39-.28-.41-.23-.43-.13-.47,0-.58.21-.47.19-.45,0-.54-.1-.47-.11-.56-.15-.53-.23-.39-.35-.33-.32-.24-.29-.32-.25-.54-.15-.71,0-.73,0-.71,0-.64-.14-.35-.35-.32-.39-.26-.28-.15-.21-.11-.2-.1-.2-.08-.19,0-.16.09-.06.21,0,.24-.07.21-.28.11-.25-.33-.28-.46-.38-.29-.26-.06-.22-.07-.2-.14-.22-.27-.13-.29-.1-.31-.12-.29L197,156l-.6-.24-.61.06-.57.21-.48.21-.49.17-.5.14-.52.11-.53.05-.93-.52-.26-1.3-.14-1.49-.58-1.09-.26-.14-.26-.09-.26-.06-.24,0-.32,0h-.38l-.38,0-.32-.15-.17-.2-.1-.23-.09-.25-.14-.26-.23-.25-.26-.17-.26-.1-.24-.08-.51-.15-.5-.17-.5-.2-.51-.22-.4-.28-.22-.36-.08-.41v-1.08l0-.31.08-.27.15-.28.12-.2.09-.23,0-.37.06-.27.13-.18.16-.16.15-.15.1-.18.06-.22.06-.22.09-.2.11-.09.16-.09.13-.13,0-.17-.14-.27h-.21l-.22.08-.16,0,0-.26.06-.51-.07-.54-.39-.32-.42-.06-.43-.06-.4-.17-.34-.39-.14-.31-.1-.3-.13-.28-.2-.28-.24-.2-.27-.15-.25-.18-.19-.28-.17-.47-.16-.57-.1-.54v-.41l.24-.39.45-.28.51-.13.46.05.63.3.76.3.69.1.44-.29.06-.21v-.21l-.09-.23-.16-.26-.14-.32v-.25l.07-.23.07-.23,0-.26,0-.21.07-.16.17-.12.28-.07h.29l.28,0,.27-.11.22-.22.26-.39.06-.39-.36-.23-.35,0-.34,0-.34.05-.33,0-.18.08-.16.12-.17.1h-.2l-.15-.11-.05-.19v-.21l0-.16,0-.29-.06-.17-.14-.11-.2-.1-.41-.1-.63-.12-.58-.22-.28-.39,0-.22.1-.17.1-.15,0-.18-.18-.21-.34-.11-.36-.05-.23,0-.47-.22-.35-.34-.32-.43-.38-.49-.33-.3-.35-.23-.34-.21-.31-.27-.34-.59-.06-.58.14-.5.26-.32.26-.11.3,0h.32l.31,0,.23,0,.11.08,0,.14v.24l0,.17-.07.17v.19l.1.23.24.14.35,0,.35,0h.23l.52.12.51.2.51.23.53.17.3,0,.29,0h.29l.31.08.22.18.25.3.25.32.24.25.53.32.51.15.48,0,.49,0,.56.09.74.12.67,0,.35-.32-.07-.17-.21-.14-.22-.14-.09-.17.11-.27.23-.13.27-.08.23-.07.17-.66-.84-.81-1.16-.77-.76-.53-.21-.44.18-.32.28-.27.06-.27-.17-.23-.23-.17-.25-.14-.2-.11-.22-.14-.17-.12-.16-.13-.19-.18-.15-.13-.17-.12-.16-.11-.13-.11-.18-.23-.08-.19,0-.2-.08-.27-.1-.28-.11-.27-.07-.27,0-.25.09-.17.16-.13.11-.14,0-.22-.34-.32-.51-.27-.53-.21-.38-.14-.24-.1-.33-.16-.33-.19-.21-.17-.14-.24,0-.14.11-.11.16-.13.39-.17.56,0,.57.24.43.5.34.4.32-.07.34-.24.37-.13.49.15.48.31.49.38.49.37.27.14.21.05h.21l.26,0,.21.07.22.12.21.13.22.11.91.52.9.6.88.46.87.12.26,0,.28-.05h.29l.31.08.32.15.35.17.35.13.3.06.13-.06.08-.16.07-.18.09-.14.24-.18.26-.08.28,0,.3,0,.16,0,.25-.05.26,0,.19.17.15.31.14.27.17.24.22.26.51.4.52.25.52.2.52.24.46.31.33.23.3.06.41-.16.5-.39.45-.48.45-.49.49-.41.22-.09.24,0,.25,0,.23-.06.23-.11.23-.09.23-.07.26,0h.6l.6,0,.59-.07.53-.18.9-.65.76-.86.75-.88.85-.7.51-.2.57-.1.59-.06.58,0,.56-.21.46-.4.4-.5.37-.5.36-.35.41-.19.47-.06.54.07.74.12.74,0,.73,0,.72,0,1.3,0,1.24-.12,1.17-.27,1.12-.43.45-.58,0-1-.23-1.17-.34-1.17-.34-1.27-.23-1.28-.12-1.22,0-1.14-.17-.63-.43-.35-.53-.15-.44-.05-.52-.1-.38-.25-.28-.45-.23-.73-.16-.65-.14-.64-.05-.59.09-.51.32-.45.41-.31.42-.31.32-.47.37-.68.56-1,.4-1-.09-.75-.31-.23-.41-.17-.42-.14-.34-.16-.28-.4-.16-.63-.11-.65-.14-.5-.47-.37-.54.24-.48.45-.34.27-.42,0-.44-.19-.45-.22-.44-.12h-.57l-.3-.05-.3-.2-.21-.26-.19-.29-.2-.29-.22-.26-.37-.34-.36-.2-.35-.14-.39-.15-.87-.29-1.07-.37-1-.6-.77-1-.2-.6,0-.46.14-.37.17-.36.09-.24.1-.26.11-.25.1-.22.16-.2.21-.12.22-.1.2-.14.11-.11.14-.21.09-.25-.06-.25-.27-.06-.34.21-.31.3-.16.17-.2.17-.21.14-.23.1-.26.06h-.27l-.29-.06-.28,0-.25,0-.35.21-.34.27-.36.19-.43,0-.13-.11-.09-.13-.1-.09-.17.06-.15.06-.12,0-.07-.14v-.23l.06-.19.05-.17V84.9l-.17-.13-.18,0-.17.17-.15.22-.1.2-.11.39-.2.6-.28.35-.34-.34-.25-.5-.23-.45L205,85l0-.42.24-.29.38-.34.24-.42-.14-.53-.46-.29-.63-.06-.59.08-.33.14-.17.2-.17.17-.19.1-.27,0-.09-.06-.11-.11-.12-.11-.1-.08-.14-.06-.12,0-.12,0-.14-.08,0-.49-.18-.58-.34-.54-.43-.38-.17,0h-.22l-.22-.06-.19-.19,0-.22.17-.13.22-.06.15,0,.68-.15.59-.18.52-.29.48-.47.2-.4-.11-.26-.33-.13h-.44l-.37-.11-.22-.38-.18-.48-.23-.4-.26-.2-.24-.08-.24,0-.23,0-.3-.13-.2-.16-.18-.21-.28-.27-.4-.23-.4-.1-.4-.14-.42-.3-.24-.39L197.5,74l-.06-.5v-.38l.21-.27.34-.33.17-.37-.32-.43-.42-.45-.05-.43.15-.4.19-.32.17-.1.26-.08.23-.11.08-.16-.14-.25-.24-.14-.25-.08-.19-.1-.3-.35-.2-.44-.07-.42.09-.32.09-.21-.1-.12-.19-.13-.22-.2-.1-.2-.13-.32-.12-.33-.06-.22.06-.42.23-.28.16-.36-.15-.62-.15-.22-.17-.16-.15-.16-.09-.22,0-.36v-.34l0-.34-.09-.38-.27-.32-.46-.25-.43-.1-.19.14.17.41.3.79.15.63-.29-.07-.38-.5-.18-.48-.11-.5-.15-.54-.11-.24-.11-.21-.05-.19.06-.17.09-.2.05-.23.06-.21.09-.17.24-.27.17-.33-.06-.35-.45-.33-.34-.2-.35-.32-.32-.39-.24-.46-.26-.53-.34-.53-.3-.51-.16-.48.06-.48L192,54l.23-.39.12-.45,0-.47,0-.61-.19-.61-.41-.46-.22,0-.18.14-.11.24v.28l.1.26.1.25.1.25.07.25-.05.4-.36-.14-.46-.38-.36-.31-.39-.19,0,.2.11.38V53l-.11.14-.14-.06-.17-.19-.2-.21-.19-.08-.17.06-.17.08-.19,0-.28-.25-.26-.36-.26-.34-.26-.18-.23,0-.22,0-.23,0h-.23l-.2.07.05.21.15.28.12.27-.25.4-.84-.55-1-.88-.63-.64-.38-.33-.41-.28-.4-.29-.37-.35-.31-.51-.25-.51-.28-.29-.39.13-.21.13-.2,0-.23,0-.27,0-.23,0-.19.1-.18.13-.2.11-.36-.08-.26-.44-.2-.6-.18-.53-.23-.9.19-.59.4-.38.43-.31.13-.16.09-.25,0-.29,0-.31-.09-.31-.14-.31L179.3,43l-.1-.29-.08-.26-.09-.23L179,42v-.25l.12-.34.21-.26.24-.23.23-.22.09-.34L179.8,40l-.07-.46.09-.39.37-.29.42-.15.34-.27.1-.61-.06-.35-.11-.25-.2-.17-.29-.11-.19-.12-.15-.19-.14-.22-.17-.19-.51-.23-.22.29-.1.49-.15.37-.26.25-.23.15H178l-.47-.24-.37-.31-.29-.37-.23-.45-.17-.53-.08-.77.16-.43.33-.24.42-.19.15-.16.17-.5.16-.17.23-.06.23-.06.23-.07.21-.11.52-.38.54-.38.51-.39.49-.44.32-.37.2-.46-.11-.5-.6-.49-.29-.15-.29-.15-.29-.14-.29-.11-.32-.07-.27,0-.26.05h-.3l-.45-.05h-.43l-.35.17-.2.41,0,.26,0,.27v.26l-.06.22-.18.22-.25.15L176,31l-.26.09-.37.3-.23.48-.14.59-.1.62-.18.49-.29.2-.39,0h-.63l-.19,0-.2-.09-.2-.18-.17-.29-.1-.3-.1-.31-.17-.3-.48-.4-.43,0-.37.18-.28.21-.26.11-.28,0-.29,0-.28.06-.23.15-.2.2-.2.2-.24.14h-.48l-.49-.15-.5-.17-.5-.09-.3.19-.14.42-.14.43-.29.21-.16,0-.27,0-.27,0L165,33.9l0-.18.1-.22.06-.24-.1-.23-.14-.09-.16-.07-.15-.09-.1-.15,0-.16,0-.34,0-.36v-.21l.12-.52.27-.41.38-.21.45.07.22.13.17.12.17.08.22,0,.26-.06.22-.09.23,0,.31.09.24,0,.19-.09.19-.1h.23l.34.06.28,0,.25-.11.23-.16.28-.2.33-.35.09-.44-.43-.47-.27-.16-.26-.14-.26-.1-.25-.06-.31,0-.29.11-.29.1h-.32l-.4-.23-.24-.4-.22-.43-.3-.33-.17-.09-.17-.07-.17-.09-.17-.16-.17-.33,0-.31,0-.3-.11-.29-.17-.19-.18-.1-.18-.09-.17-.17-.11-.25,0-.24v-.4l-.17-.4-.36-.24-.3-.21,0-.31.1-.14.09-.18,0-.18-.21-.16-.23-.16L163.3,22l0-.2.08-.2.11-.28.12-.27.13-.27.13-.26.12-.2.11-.18V20l-.18-.24-.47-.23-.45.09-.35.27-.22.32-.16.43-.15.45-.17.43-.21.36-.2.33-.2.34-.26.21-.39,0-.23-.11-.22-.13-.22-.16-.23-.19,0-.07v-.1l0-.1-.08-.09-.11,0-.08,0-.08,0-.09,0-.4-.14-.24-.3-.15-.42-.13-.52v-.32l-.06-.14-.09-.12-.09-.07-.09-.07-.08-.13-.1-.3-.05-.33,0-.32-.08-.31-.1-.22-.1-.12-.11-.09-.13-.14-.12-.15-.13-.16-.13-.17-.14-.17-.1-.1-.11-.1-.11-.11-.08-.1,0-.09v-.24l-.08-.15-.07-.13-.11-.11-.17-.09,0-.27.12-.18.12-.16.1-.21-.06-.18-.21-.11-.22-.12-.13-.22.17-.39.44,0,.31-.14-.21-.75-.36-.43-.35,0-.35.12-.32.06-.2-.06-.19-.06h-.17l-.14.12-.11.18-.11.09-.15,0-.23-.16-.17-.17-.17-.2-.17-.2-.18-.17-.21-.12-.2-.11-.13-.14,0-.24.15-.14.28,0,.3.07h.23l.17-.1.13-.16.11-.2.11-.19.11-.12.12-.13.05-.17-.13-.24-.16-.06-.28-.11-.19-.15.12-.17.25-.14.26-.14.26-.14.26-.14.11-.13-.06-.19-.17-.21-.21-.22-.63-.51h-.42l-.34.27-.33.33h-.31l-.55-.16L151.07,8l-.34-.27-.18-.62.17-.51.33-.4.3-.26.23-.14.26-.11.24-.11.22-.15.19-.2.18-.18.21-.16.25-.11v0H153l-.77-.19-.21-.1-.27-.1-.51.18H151l.09.15h.11l.06,0,.18.15-.11,0h-.46l-.49-.09-.24,0L149.7,5l-.12,0h-.12l-.1,0-.06.15.07.13.34.13.18.27.08.37,0,.43L150,7l-.11.29-.34.54,1.2.41.23.26-.1.27-.31.13-.23.2.11.46.19.38-.05.07-.14,0-.07.13,0,.14.11.16.1.13.05,0,0,.09,0,.22,0,.14-.11-.12h-.09l-.11.16-.1.21,0,.16.09.21.19.08h.35l.09.62-.13.28-.58.3.07.14.13.1.15.29.17.17.21.09.21,0,.21,0,.22.2-.17.07h-.18l-.16.06-.09.18.67.21.28.19L152,15l-.38-.25-.12,0h-.18l-.16,0-.06.07,0,.07.07.08,0,.09,0,.07.06.08,0,.09,0,.05,0,0-.12.21-.08.07-.32.13.09.15.57-.1.31,0,.26.24,0,.34-.32,0-.39-.07-.17,0-.11-.07H151l0,.1.11.21.12.11.31.15.16.16-.09.18,0,.05.08.13h.35l.85.29.58,0,.45.14h.15l.76-.21.08.15-.68.31-.38.06-.42-.07-.63.07-.52-.26-.26-.06-1.24,0-.14,0-.1.11-.06.28-.12.11-.06.14.1.19.17.2.17.16h-.19l-.26-.06h-.22l-.08.2.11.36v.15h-.1l-.1,0h-.32l0,0h0v.17l.55.27-.06.32-.25.39,0,.51.31.17.28.27,1.14,1.39L153,24.72l.32.2.26,0,.82-.35.82.05.59-.08.28,0,1,.51.73.28.71.14.6-.06-.12.21-.46.06-.1.09-.16-.09-1.67-.45-.12-.1-.12-.13-.1-.14-.05-.05-.06,0-.06,0L156,25l-.53,0-1.31.36-.14.12-.28.46-.36.14h-.88l-.35.14.33.26.35.05h.34l.32.07.06.13-.28.14.08.15,1.12-.08.42.18-.42.11-.1.14.06.34.2.46.23.26.25.1.23,0,1.11.92-.12.11L154,28.63l-.68-.12-.08.34.2.33.29.41.28.34.19.12h.22l.54.29.26.06.08.14-.14.19-.46-.05-.1.13,0,.19,0,.11v.07l-.11.09-.05,0-.12-.06-.15,0h0v.2l.65.75.19.37-1.17-.83-.51-.23-.56.09-.11.07v.07l.06.12.09.21.21.19,0,.26.29.23.22,0h.21l.28.11-.1.18,0,.17.05.23.17.36.15.11.85.51.49.55.19.16.21,0,.22-.14.17-.19.09-.2v-.15l0-.12,0-.12,0-.17,0-.12.1.06.12.12.08.06.18-.05.57-.06.63.19.75-.42.43.09.08.13-.23.28-1,.37-.43,0-.34-.09h-.14l-.19.07-.11.11-.26.45-.06.19.6.32.16,0,.19-.08h.2l.23.09.25.23-.12.14h-1.28l-.85-.4-.28.15-.08-.14-.29.54-.2.22-.24.14.42,0,.15.05-.34.14-.11.14,0,.26,1.25,0,.15.06.15.08.17.11.16.2.12.27,0,.2-.13,0-.36-.23-.82-.29-1.5-.08-.16.09.16.31.34.22.33.26.11.4-.06.1-.47.4-.11.29-.31.34.13.26.33.18.4.05.63-.07.9-.33.11,0,.06.22,0,.17-.11.25-.25.31-1,.26-.1.44-.75-.41-.11,0,0,.09,0,.29.09,1.45-.06.28.22.07.69,0,.14.14.23.37.22.41.1.28h.33l.57-.23.32.17.06.12.28.38.27,0,.27,0,.33.1.06.1.39.46h0l.09.07.44.09-.1.19-.41,0-.12.16v.17l0,.16.06.16.1.2.1.24v.14l-.06.11-.16.73,0,.36.08.29.24.1.29-.07.28,0,.2.33-.05,0-.2.27v.09l.1.16.11.19.07.14v.29l-.11.14-.15.1-.16.2,0,.32.09.36.13.34.05.28-.09.12-.18-.09-.46-.37,0-.5.37-.58.08-.38-.18-.49-.38-.48-.38-.39-.16-.21-.07-.15-.11-.29-.07-.32.07-.27V47.5l0-.18,0-.13L158,47l0-.05.06,0,0-.11,0-.32-.06-.33-.11-.28-.19-.2-.19,0-.37.1-.21,0-.08-.34-.19-.1-.21.08-.14.22-.15.11-.25-.08-.28-.19-.22-.2-.24-.31-.2-.3-.17-.2-.18,0-.21,0-.66-.07-.26-.08-.56-.41-.28-.15-.52,0-.85-.33-.06-.08,0-.11,0-.08-.18,0-.17,0-.09,0-.07.09,0,.13v.17l-.16.13-.15.21-.08.26v.29l.22.14.15.34,0,.37-.1.22.17.16.15.06h.32l.06.55-.25.21-.33.13-.17.33.2.61,0,.3h-.16l-.17,0,.06.19.17.27.16.18.17.26v.33l0,.34,0,.32.16.28.22.28.11.25-.1.18L151,51l.25.25.76.33-.14.25-.27.12-.58.11-1,.48.26.39,0,.31-.16.46.06.09.08.26,0,.2-.12-.14L150.1,54l-.17,0h-.31l-.26-.82L149,53l-.36.23-.08.32,0,.23.06,1-.07.29-.14.17-.41.21.23.25.15.13.09.13.09.25,0,.29,0,.18-.11.11-.13.07-.19,0-.28-.12h-.24l-.12.3,0,.52-.06.22-.1.15-.61.41-.28.4.06.92-.33.22-.44.14-.28.16-.11.28-.06.35-.06.77,0,.1-.18.06-.06.06v.11l0,.63.12.58,0,.94.06.54.22.38.32.26.23.28.14.34,0,.44-.13.7v.38l.19.52.26.32.15.22.06.2-.08.08-.16,0-.17-.09-.11-.08-.22-.41-.1-.45,0-.43v-.34l0-.32-.24-1-.62-.66-.42-.6-.23-.67-.09-1.2-.08-.34-.17-.31-.28-.28-.28-.16-.27-.05-.22.05-.17.17v-.35l-.38-.4-.09-.26.12-.73-.41-.39-.06-.51v-.47l-.26-.28-.29,0-.06,0-.07-.12L141,57.9l-.08,0-.3-.09-.24,0-.2.05-.08.19,0,.12.18.31.05.13v.64l0,.19.07.22.62,1.32.23.31.39.34-.24.64,0,.48.24.44-.3.22-.26.32-.15.42,0,.56.2.89v.23l-.08.26-.28.4-.09.25,0,.77-.1.33-.21-.19-.09-.34-.14-1.37.36-1.37.16-.2.4-1.38,0-.4,0-.45-.14-.43-.16-.36-.08-.06-.7-.43-.15-.11,0-.08,0-.11-.07-.14-.14-.14-.1-.07-.08-.07-.06-.09-.07-.14L138.9,59l-.07-.36v-.39l-.1-.32-.34-.15-.27.12-.18,0-.2,0-.06-.12-.08-.46-.48-.43-.43,0,.06.67.18.36.12.16v.1l-.18.16-.2.11-.26.06h-.28l-.19-.09-.06.24v.67l-.06.17.06.2.67,1.2,0,.15,0,.21,0,.19,0,.09v.11l.11.2.13.2.06.14,0,.88.07.49.16.49.16.33.16.38,0,.35-.21.25-.08.25.11.47.19.53.43.88.1.28,0,.29v.48l-.06.17-.25.26-.07.19v.19l0,.21,0,.22,0,.21-.36.62-1.25,1.14-.81.46-.54.76L133,74.43l-.66,1.11-.6.63-.09.27-.06.38-1.47,3.12.69-2.58.53-1.15.84-.78v-.1l.32-.54,0-.22v-.23l0-.21,1.15-.91,1-1.39,2-1.31.34-.47.38-1.91.13-.33v-.21l-.09-.27-.06-.06-.16-.2-.13-.23v-.13l0-.25-.4-1.44-.27-2.45-.23-.94-.21-.45L136,61l.09-.26L136,60.5l-.17-.23-.15-.15-.24-.34-.16-.51-.16-.9-.23.06-.22.62-.21.16-.28-.12-.09-.33-.06-.43-.19-.4-.3-.15-.35.38-.27-.15-.23-.43-.14-.85-.17-.36-.15-.09-.52-.13-.12-.06-.14-.2-.22-.47-.06-.24,0-.43-.07-.23-.17-.22-.17-.09-.29-.1-.17-.16-.13-.16-.15-.09L129,54l-.12,0-.58-.35-1.09-.26h-.34l-1,.29h-.31l-.12,0-.11-.08-.11,0-.16,0-.68,1.42-1.07.38v-.11l0-.24v-.14l-1.52.67-.6.44-.74.23-.22.2-.15.36-.23.17-.15.19-.1.08-.15.18-.09.32V58l.07.32L119,59.39l-.67.72-.3.49v.57H118l.16.34.05.21V62l-.18.19h-.06l-.22,0-.07,0v.09l0,.18v0l0,.49,0,.42-.18.65,0,.29.11.43-.17.12-.29-.07-.26-.13-.3-.22-.17-.15-.11-.14v-.11l.05-.43,0-.11.1-.09.1-.17.06-.18v-.19l-.06-.25-.07-.08-.53,0-.22.09-.15.23-.06.4-.12.21-.26-.29-.28-.49-.16-.36-.07-.45-.06-.23-.08-.08-.2.17-.08.12,0,.36-.16.33-.21.29-.18.12-.1-.06-.21-.23-.06,0-.81.37-.17,0-.39-.2-.32.07-.52.38.12-.37.17-.2.82-.21.63-.47.07-.1.08-.36.06-.14.12-.12.45-.13.2-.13.55-.7-.06-.14-.13-.11-.42-.5.18-.08h.19l.2.09.19.16.42.3.28.1.16-.09-.06-.24-.2-.33-.24-.31-.17-.19-.23-.83-.46-.47-.53-.15-.43.13.09-.16,0-.2,0-.27-.14-.37-.43-.59-.17-.32.07-.22.39.18,1.07,1.14.4.08-.1-.38.38,0,.45.29.1.63.13.14.12.09.12.06h.12l-.11-.32.06-.13.15.11.19.39,0,.31,0,.27-.13.5,1,1.11.33.19.25-.09.67-.67.08-.25-.08-.48-.15-.52-.15-.38-.07-.27.11-.07.19.07.15.1.17,0,.06-.18v-.4l-.06-.14-.47-.62-1.74-2.68.18,0,.13.08.13.15.22.2.15.11.24.13.17,0-.12-.68.08-.45.29-.68-.24-.26-.21-.11H117l-.2.07-.06.07-.1.26v.06h-.13l-.06,0-.06-.05-.1-.06-.24-.21-.13,0-.06.17v.09l0,.09,0,.09,0,.09,0,.25-.18,0-.26-.1-.2-.18v-.18l-.14-.12-.05-.1v-.19l-.23-.26v-.4l.4-1.23.1-.09.18,0,.1.14.08.16.11.12.1,0,.15,0h.15l.1-.11,0-.19,0-.06-.09-.09L116,49.8l-.08-.15v-.12l.17-.08.12,0,.51.3h.22l.24-.18.17-.3,0-.32-.21-.28-.16-.19-.11-.07-.22,0-.08-.26v-.27l0-.09-.3-.41-.3-.13-.23.13-.23.57-.21.12L115.1,48v-.34l-.32-.2-.33-.08h-.31l-.23.11-.57.94-.4.16-.1.1-.11.3-.07.09,0,.06v.22l-.06.08-1,.48-.18,0-.26-.16-.16-.27,0-.27.88-.93,0-.3-.05-.17-.12,0-.32.14-.07-.24,0-.19,0-.15.08-.11-.17-.23-.2-.21-.18-.17-.14-.11-.19-.06-.17,0-.13-.09-.06-.28-.38.21h-.12l-.17-.06,0,0v-.1l-.09-.25,0-.19.15-1.18.17-.49.23-.4.29-.25.18-.27.12-.55,0-.64-.31-.54h-.15l-.61.19-.12-.06-.08-.08-.09-.06-.14,0-.22.09h-.12l-.13,0,.06-.17.06-.48.29-.34v-.55l.11-.21-.19-.06-.2,0h-.19l-.16,0-.11-.07L108,39.3l0-.36-.09-.15-.11-.15-.08-.19,0-.26.12-.43v-.11l-.4-.11-1.58.14-.62-.17.27-.09.08-.21-.08-.34-.21-.48-.25-.14-.36.14-.8.6-.88.31L102,38l-.66.22-.69,0-.69-.21-.15,0-.9.6-.18,0-.4-.06-.18,0-.21.14-.57.69-1.06.29-1.78,0-.57.12-.45,0-.62.1-.25,0-.6-.25-1.27.25.3-.36,4.05-.35.53.22.25.06.28-.06,2.37-1.28.15-.21-.3-.15-.1,0-.07-.14.49,0,4.21-1.3,1,0,.25-.16.09-.37-.29-.13-.41,0-.23-.06-.24-.61v-.34l.2-.13h.38l.57.19h.15l.06-.11-.05-.32.08-.11.47-.26.11-.25-.2-.35L105,33l-.09-.28-.19-.33L104.5,32l-.07-.43-.07-.24-.09-.08-.51.23V31.2l.09-.51v-.26l-.25-.15-.46,0-.22-.24-.15-.14-.76-.57-.12,0-.24.08-.11,0-.23-.16-.11-.12.08-.25v-.35l0-.38-.06-.29-.19-.16-.31-.5-.17-.05-.25.05-.12-.09,0-.22v-.33L100,26.2,99.82,26l-.53-.24-.51-.44-.17-.1.12-.3,1-1,.11-.32-.08-.38L99.52,23h-.23l-.17,0L99,22.58l-.12-.39-.27-.33-.29-.24-.2-.11.08-.21.23-.38.14-.1.06-.15.12-.79.17-.4.48-.67.57-.38.25-.33.11-.45-.12-.54-.11-.14-.37-.42-.17-.26L99.5,16l-.1-.52-.07-.28-.46,0-.13.07-.17-.38-.32-.43-.34-.34-.23-.1L97.48,14l-.86-1-.28-.24-.27-.15-.27,0-.29.08-.12.14-.09.39-.06.1-.14.14.05.18.11.17.08.14v.21l0,.26,0,.23.06.2.17.45,0,.17.12.34L96,16l.32.22.22.18.19.7-.29.39L96,17.44l-.37-.75-.33.23-.28.5-.2.59-.07.51-.08.1-.14.32-.06.31.16.07.18-.15.24-.44.17-.16,0,.3-.14.45,0,.26-.08.2-.21,0-.35-.16-.11,0L94,19.35l-.11-.05H93.8l-.46.22-.18,0L93,19.42l-.07-.4-.27,0-.74.31-.07-.15.44-.34,0-.19-.05-.12-.1-.13-.1-.1,0,0-.08,0L91.91,18l0-.27v0l0-.1,0-.13,0-.12-.09-.15-.06,0h-.06l-.1-.11-.26-.33-.06-.2.06-.21-.15-.12-.14.29-.23.08-.21-.17L90.39,16l0-.14.15-.33,0-.11-.11-.17-.13,0-.14.07-.15,0,0-.23-.16,0-.33.13-.11.13-.06.18-.09.16-.17.07-.1,0-.25-.17h-.37l-.13,0h-.18l-.1.17L88,16l.19.3-.21.06-.55-.19-.26.06.07.14.12.05.08.07.22.22-.16,0h-.07l-.11-.05,0,.24.11.16.18.16.2.25-.34.07-.12,0-.08-.08-.14-.26,0-.07-.22-.07h-.23l-.2.07-.1.17.06.13,0,0,0,.06,0,0-.08,0-.16.1-.09,0,.15.19.15.13.15.07.14,0,.07.15-.2,0L86,18.1l-.58.39-.23,0,.08-.32.06-.08-.07-.15-.91-.24h-.42l-.08.33L84,18l.14.11.06.13-.11.11-.16,0h-.15l-.15,0-.15-.09.07,0-.39,0-.91.41-.06-.44L82,18l-.29-.11-1,0-.34.11-.15.23-.17.08-.7-.09-.11.08.11.37-.15,0-.26-.2-.2-.19-.09-.4-.18.07-.33.42-.9.53.34.43h-.14l-.29-.2L77,19l-.81-.53L76,18.26l-.24-.37-.28-.2h-.26l-.17.23v.34l.15.29.24.25.26.2-.08.17-.11.16-.15.14-.17.1-.13-.08L75,19.19l0-.57-.12-.12-.13-.16-.13-.13-.14,0-.09.09-.09.4-.1.12L74,18.38l0-.29,0-.6-1.16,0-.4-.08-.06-.13.22-.44.06-.29,0-.36-.2.08L72,16.21l-.23,0-.4.21-.23.05-.23-.08.07,0,.13-.2L71,16l-.09,0-.23,0,1.21-.31.28-.29,0-.17v-.16l0-.15.17-.12.31-.47-.43,0-1.07.63-.73,0-.59.23h-.42L69.42,15l.69-.55.3-.44,0-.46-.13,0h-.14l-.31-.09-.07-.15.09-.17-.08-.2-.14-.16-.09-.07-.34.26-.18,0-.18-.18.46-.39,1.13-.38.46-.37,0-.15-.06-.15v-.13l.14-.12.48,0,.09-.1-.06-.31-.22-.23-.26-.13-.19,0,.21-.08-.23-.21-1-.46-.28,0-.66,0-.26-.11-.12,0L68,9.56l-.67-.08-1,.09-.13.13.09.13.26.15.16.14.11.08.09.13.09.32v.15l-.06.11,0,.13.06.21.1.26.06.22v.17l-.1.1-.32.09-.11.09-.23.34-.12.1-.35.14-1.12.14-.17.16-.33.85-.06-.83.2-.44.41-.16.84,0,.23-.06.18-.15.13-.28.14-.69,0-.46-.06-.39-.09-.14L66,10.18l-.14-.06-.23,0L65.5,10l-.09-.19-.12-.17L65,9.42l-.26-.09H64l-.09.05-.07.36-.08.13-.11.08-.12,0-.27-.17-.16-.33V9.16L63.37,9l-.06-.14h-.07l-.18,0,.48-.37.18-.08-.2-.14L63,8l-.18-.16-.12-.16-.11-.17-.16-.19L62,7.11l-1.3.31-1.6-.22-.87.13-.35-.12-.1,0-.06.52.23.57.38.55.37.47L59,10l-.37-.06-.57-.49-.33-.68L57.54,9l-.11.74-.13.33-.4.16.42-1.79,0-.19-.14-.34L57,7.53l0-.14L57,7.21l.45-.34.07-.2-.11-.35-.16-.38-.06-.28L57,5.51l-.13-.15,0-.16.1-.14-.21-.2H56.5L56.13,5l.1-.54,0-.47L56,3.74l-.66,0-.45-.26-.22,0-.19.08L54,3.88l-.11.21.57.25.07.16h-.48l-1.25.34.09-.14L53,4.59l.08-.13V4.21L52.68,4l-.49-.13-.48,0-.38.07h-.18L51,3.76l-.14-.2-.18-.15-1.49-.54-.29-.27-.11-.47-.19-.3-.44,0-.74.11-.32-.17-.32-.27-.32-.23-.33,0L46,1.35l-.08.15-.1.11h-.21l-.11-.07-.11-.1-.13-.1-.17,0-.3.07-.19.11-.22,0L44,1.14,43.2.32,43,.11,42.64,0,42.4.11,42,.49l-1.13.6,0,.18v.34l-.06.34-.24.36,0,.33v.69l-.08.25-.14.21-.59.43-.3.69L39.29,5l-.17.09-.19,0L38.59,5l-.11.09-.1.14-.28.27.05.58L38,6.4l-.27.2-.12.14v.2l0,.13-.09.17-.18.22-2.82,1-.13.2L34.34,9l0,.42.12.33.25.21.8.41.56.07.71.3.3,0,.06.15-.41.11h-.85l-1.08-.29-.17-.07-.22-.3-.07-.08-.1-.06L33.6,10l-.74-.46-1.42-.33-.49.06-.34.28.07,0-.14.18-.06.65-.18.13-.1-.51-.12-.37-.19-.24-.31-.11-1.7,0-1.28.81-.18.21L26,11.61l-.73.81-.07.17-.39.61-.34.32-.22.51-.14.16-.62.21.34-.64.06-.22.1-.21.37-.24.1-.23.19-.61,1-1-.06-.13-.84-.27L23,11l-.34-.15-.66,0-.38-.27-.13,0-.17.08-.22.32-.14.1-.11,0-.25-.14H20.4l-.12.1-.11.15-.12.1-.17,0-.07-.1-.26-.39-.14-.15-.2,0-.41.12-.37-.15-.91.11-1.14-.2-.65.12-.87-.28-.6.22-.33,0-.36-.13,0-.15-.23-.13-.41.08-.2-.09-.24-.16-.25,0-1.61.25-.16-.08L10.35,10l-.2-.09-.23,0L9.69,10l-.18.22-.13.38-.1,0-.12-.11L9,10.41H8.91l-.34.15-.11.16-.07.06-.06-.07-.08-.13-.11-.09-.12,0H7.93l-.76.19-.11-.08-.25.1L6,10.73l-.08.06,0,.06-.06,0-.12,0-.1-.11-.21-.35-.08-.07-.7.09-.15.18,0,.21-.05.55-.06.25-.63.57-.31.45,0,.64,0,.29-.24.18-.49.16L2.44,14l-.72,1.21-.16.1-.09.1-.09.35-.34.35-.34.1-.1.14L.18,17.57v.2l.09.28,0,.21,0,.15-.11.08-.17.3.17.5.45.85.09.43.06.52.09.51.22.41.24.36.21.44L2,24.26l.22.52.24.4.45.25.23.37.2.41.17.27,0,.46.1.34.17.31.26.33.33.32.14.19.11.19.19.36.1.15.12.14.07,0,.07.08.13.24.08.27.07.24.1.21.28.32.34.21.33.09,1.28-.36.1-.25.06,0,.55.66.17.17.19.11.57.6.29.09.88-.26.32.07,0,.13-.15.11-.2,0-.15.08,0,.26,1-.15.55.12.42.42-1,.13L11,32.69l-.2.06-.16.14-.09.17.08.6.47.28,1.08.23-.15.4-.33.23-.77.24.25.53-.16.22-.32-.05-.25-.3-.16-.06H10l-.08.21.7,1.08.27.5.22.52.39,1.11.08.14.23.2.07.12.07.31v.22l0,.19v.24l.55.15.24.2v.38l-.47.32-.08.13v.46l-.06.11.06.22.19,1.3.1.26.11.23,0,.17-.11.11-.27.06-.14.06-.06.11-.08.34-.73,1.74v.27l0,.25-.51,1-.07.74-.1.33-.23.19v.22l.2,1.5,1.12-.68.36-.11.7-.74.41-.27.46,0-.68,1,.87-.44.28.09-.08.46v.25l0,.26L16.74,48l.51-.21,0,.14-1.77,1.81-.16.4.73-.44.41-.1.35.26-.17.16-.32.61-.13.61-.11.25-.3.45-.36.83-.14.14.05.13.7.69.28.21,1.14.46.23,0,.47-.22.1-.08.17-.27.1-.1.32-.13.91-.08.33.09.29.18L19,54.16l-.06.12v.15l.06.27v.13l-.15.43-.82,1.15-.16.48,0,.5.15.46.45.37.26.08.51,0,.25.09.07.11,0,.15,0,.11.21,0,.13.09.24.22v.77l.06.36.14.12.17-.15.26-.44.23-.1-.14.37v.12l.15,0,.29.12.93.61-.17.23-.23.12-.51.08.19.25.27.25.48.35.3.12.93.14,0,.13-.62.1-.1,0-.06.1-.12.11-.12.08h-.08l-.28-.13-.22.16-.35.48.17.21.1.09.11.07-.06.21-.23.34-.08.23.51-.15.11,0,.22.15.1,0,.85-.26.66-.06,0-.08,0-.32,0-.11.12-.07.14,0,.16,0,.15.05.1.39.25.08.27-.1.79-.76.27-.13-.11.38-.29.37-.35.27-.31.13.2.21.28.07.28,0,.21-.08.06.17-.24.05-.54.33-.16.22.23.06.23.12-.27.12-.2.17-.15.25-.12.34.11,0h.11l.12.08.13.14-.13.13-.46.15-.11.18.12.1.28,0,.32.09.23.28.23.37,1.14,1.23-.08,0,0,.16-.22.1-1,.23-.2.15-.11.28v.3l.06.24,0,.2-.26.14L25.3,71l-.22-.12h-.16v.34l.2.12.2.18.2.13.18,0-.06.27-.13.13-.16.08-.1.12.08,0-.07,0v0l0,.11.74-.08.24.08.21.24.22.38.15.38v.28l.4.33.52.13.87,0,0,.13-1,.24-.53,0-.41-.28-.14-.66-.44-.41-.91-.4-.18-.16L25,72.46h-.1l-.06.23-.12.17L24.5,73l-.41.14-.17-.08-.27-.32-.15,0-.83.09.23.06.23.11-.06.22-.11.14-.15.09-.17,0,.14.22.18.24.34.38.21.11.3-.07.17.16.21,1,0,.26.14.35v.22l-.91,1-.26.64.57.48.05.15-.23.06-.21.18-.12.28,0,.37.18.29h.22l.2-.13.15-.14.29-.52.2-.2.25.08,0,.07.1.24,0,0H25l.12,0,.2.1.07-.05,0-.14,0-.17.16.08h.29L26,79l-1,.77-.22.4.52.25.11.21-.09.36-.23.22-.65.19-.22.25.25,0,.46,0,.26.15-.56.46-.23.35-.46.16-.14.19-.23.47-.72.63-.22.47.17.21.23.52.15.24-.15.19-.4,0-.15.19.33.27.22.31.06.34-.17.38-.24.11-.4-.36-.2.17.44.68.1.22v.23h-.2l-.24-.1L22,88.06l-.05,0-.07.13-.07.16,0,.14.06.14.11.14.1.1h0l0,.36-.07.22-.11.2-.1.26.07.06,0,0,.05.06.12-.2.17-.15.37-.17-.29.65-.11.37v.32l0,.12.06.18v.17l-.3.31-.12.08-.1-.08-.06-.43v-.31l-.1-.16-.38,0-.21.1-.24.24-.08.37L21,92h-.25l-.3-.24-.32-.33-.29-.23h-.4l-.08.28.15.27.33-.06V92l0,.14,0,.15.13.32.25.43.32.46.32.31L21,94l.14.23.12.28.07.29V95l-.11.13L21.19,95l-.2-.13-.19,0,0,.17.11.32.09.17.13.11.59.29.17.13.18.21.16.28,0,.18-.12.06-.17-.08-.17.2.06.25-.15.12-.23.1-.15.16.23.18,0,.27v.34l.17.37.28.2.25-.05.51-.3h.12l.14.09.12.14.2.39.12.06h.13l.13.08.34.28.38.15h.33l.22-.25L24,99.06l-.55-.39-.28-.39.17-.26.53.21.94.69.59.68.1.16.19.16.82.1.86.43.17.16.16.23.2,0,.34-.17.16.07.38.31.22,0,.19.06.07.26v.57h.24l.8.34,2.38.25.82.4.26.08.87-.11L35,103l1.06.65.83.18.23.14.25.36-.05.17-.19.13-.16.2,1,.18.27-.08-.08,0,.24.16.53.46.27.18.24.06.48-.05.24,0,.92.43.89.63.17.2.3.43.13.15.14.11.1.06.1,0,.12,0h.12l.1.09.08.13.11.13.23.23,1,1.21.18.14.19,0,.08.14.48.29.18.23.13.21.24.28.24.24.15.1.15.13.72.79.91.77.5,1.32.21.28.66.73.78,1.16.42.49h.25l0,.08v.08l-.13,0,.16.17.36.51.13.09.19.07.19.22,1.76,2.6.86,1.61.2.6.1.22.17.24.17.16.16.12.16.17.11.26.1.34,0,.8.1.49.13.32.38.74.37.86.46.82.39.88.45.84.1.36.19.28.13.42.18.76.17.37.63,2.58.45,1.34.2.44V137l.09.22.13.25.15.24,0,.19.29.48.14.54.07.53.11.46.18.56.14.55.06.53-.11,1v.43l.13,1.41,0,.24.15.58.06,1.56-.06.73-.18.63-.34.49-.34.22-.15.14-.08.22v.2l.08.39v.2l-.11.46-.46.94-.88,3.05-.91,2-.11.68.22-.1.26-.43.31-.28.1-.21.08-.06,0,.29-.06.63-.18.47-.22.41-.51,1.38L55,165.29l-.23.16-.17.19-.65,2.4-.16.27-.8.61-1.22,1.77-.48.33.07,0-1.06,1.28-.68,1.33-.24.23-.09.11-.36.67-.52.56-.12.21-.13.17-.68.3-.53.64-.32.06-.41.78-.27.26-.3.15-.5.47-.56.32-.46.56-1.14.76-.2.24-.41,1.1-.17.19-3.68,2.3-.29.49-.14.11-.57.2-.08.07-.17.29-.87.39-.12.12-.09.14-.11.13-.36.19-.25.28-.25.18-.2.32-.15,0-.12-.08-.13-.17v-.17l.08-.16-.16.13,0,.27.12.2.07.34-.1.09-.13.07-.13.1-.62.91-.28.13,0,.15.83-.23.27-.21-.2-.29.15,0,.17.06.15.15.11.24,0,.17-.4.33,1.21-.33.1.25-.08.34-.13.37-.06.38.2,0,.15-.11.25-.32-.07,0H36.1l-.07,0-.09-.08.18-.24.27-.13.29,0,.25.23,0,.32-.21.23-.61.28.05.17h.43l.47.27.25.35-.26.25.13.07.12,0h.11l.11,0,0,.16.14.22.19.2.15.06.09.11,0,.3v.53l.18,0H39l0,.14-.24.22-.14.08-.17,0,.06.09.11.23.06.09-.05.09,0,.09v.08l0,.08.34,0,.31.29.22.47.05.47.35-.1.17,0,.17.18-.11.06-.06.07-.1.26.52.15,1.51-.19.13.1v.27l-.17.1h-.23l-.18-.06,0,.16.22.11,0,.15-.31.38-.12.24-.06.31.3-.19.46-.09.42.08.17.3.16,0,.14-.08.26-.21.11.41.29-.12.54-.55.72-.37.41-.11.33.08-.11.14-.1.34-.12.1-.4.14-.16.13-.11.23.13-.06.14,0H45l.14,0,0,.11v.23l-.23-.1-.05.1.12.17.25.11-.24.17h-.38l-.23.08.2.42-1.28.16L43,199l.34.09,1.67-.46.62.11-.05.12,0,0,0,0,.94.22.12-.12.19.25.65.16.3.32-1.12.13-.27.25.1,0,.06,0,0,.07.07.07-.16,0-.13,0-.11.09-.09.14.46-.17.23,0,.19.23-.47.13.46,0,.23-.07-.13.37-.41.08-.85-.07.53.14,1.06,0,.53.39-.37.11-.4,0-.37.1-.28.31h.32l.28.11.18.28.05.51L48.6,203l.63.1.51.47-.51,0-.56-.17-.52-.09-.44.32,0,.15.12,0H48l.25.07-.57.64.22.16.09,0h.12v.77l.09.28.32,0,0,.38-.07.15-.9.19-.21.14-.07.28.34,0,.64,0,.34,0,.33-.12H49l.14.12,0,.22-.1.14-.16.06h-.13l.14.25.14.1h.15l.18-.06,0,.11v.23l-.1.16-.24-.1-.07.23,0,.25v.26l0,.26.11-.11.24-.09.12-.08.26-.39H50l.25.08.19.16,0,.21,0,.13.36,0,.18.23-.05.28-.32.21-.27-.06-.34-.16-.28,0-.07.35.16,0,.13.11.25.28.15.08.35,0,.17.07-.21.31-.28.26-.32.06-.34-.31.05-.17-.13-.12.07-.1.1-.08-.16.05-.33.19-.26.27L49,211l.32.27.2.26.22.2.36.1.05.16-.13.17.06.12.14,0,.11-.13.08-.16.15-.14.18-.1h.17l.13.15.33.55.11.11.15,0,.15.13.13.2.09.22,0,.26-.11.35.05.28.13.14.21.16.18.19,0,.25-.11.29,0,.08.17.15.16.08.21.05.21,0,.14,0,0,.15-.08.08-.18.32.15-.08h.15l.14.09.11.23-.06.06-.3.21-.1.11.13,0,.12.06.12.1.11.15-.19.28-.17.16,0,.15.39.23-.17,2.31.23-.07.19-.11.19,0,.23.14,0,.34-.17.31-.23.23-.21.12.39.21.51.1.46,0,.29-.25-.07,0h0v0l0-.06.22-.1.14.09.12.19.16.21.19.11h.18l.35-.11v.17l0,.14,0,.13-.07.11-.25-.1-.35.26-.24-.1.12.39,0,.24-.27.39.18.06.18.19.3.37.21.14.21.08.2,0,.45,0,.16-.06.92-.59.2,0-.72,1.59,0,.16.14,0,.13-.06.11-.1.19-.27.18.4.09.28-.06.22-.25.23-.95.27-.17.22.07.4.31.1.37,0,.26,0,.29.32,0,.25-.21.18-.29.12,0,.13.47-.12h.3l.09.26-.15.63.24.13.23,0,.2-.06.17-.18.16.28.2.26-.28.08.05.16h.16l.16,0,.17.09.17.14-.25.15-.33.49-.27.08,0,.15h.2l.38,0,.19-.06v.11l0,.26v.11l.21-.14.16-.2.18-.13.29.08.06.39.27-.08.53-.4.16,0,.2.08.2.14.15.19.06.21,0,.11-.07.12,0,.23.63,0,.1.08.11.18,0,.21-.29.29,0,.21.16.17.25,0,.14.08v.26l-.06.27,0,.12.22.37.26.14.19.23v.61l-.29.69-.06.38.21.43.19-.23.29-.13.6-.12h.26l.22.11.21.15.27.1,0,.16-1.18,0-.36.14-.32.29,0,.24.52.71v.26l-.11.38,0,.21v.23l.06.5v.21l-.12.47-.22.25-.25.19-.23.29.09.07.17.14.1,0-.13.3-.23.14-.54.12.16.15.11.17.08.21.07.25,0,.1-.13,0-.12.06,0,.62-.15.29-.94.71-.55.26-.24.23.1.32.37.45.2.37.52.37.15.22v.35l-.12.4-.18.33-.29.25-.23.29-.15.1-.16,0-.29,0h-.14l-.25.1-.2.17-.12.28,0,.41.29,0,.19.18.4.51.2.14.24.11.46.13.08.57.27.27.37.06.37-.06.18.06.4.43.14.12.17,0,.34-.08.17,0-.11.38,0,.64.15.67.28.46.48.13.91-.33.43.33-.73.2-.12.06-.46.4-.12.37-.14.69-.16.28-.18.26-.13.28,0,.36.19.25.61.11.26.22-.29.06-.15.2-.16.62-.15.4,0,.2v.16l.15.87.1.39.16.28.5.14.26.27.26.32.23.21-.8-.07-.19-.08-.77-.64-.18-.27-.14-.31,0-.24.17-.38,0-.23-.13-.22-.29-.37-.66-1.36-.18-.22-.37-.32-.17-.23-.11-.28-.14-.52-.14-.23-.32-.21-.88-.38-.23-.21-.28-.21-.32-.19-.17,0-.09.12-.07.15-.12.15-.18.11-1.11.25-.15,0-.26-.4-.06-.46.1-.77,0-.63-.2-.13h-.33l-.75-.38-.28.2-1.13,2.22-.52.61-.56.26.31.35L56,256l.3.54.1.35,0,0,.63,2.22.68,2.46L58.4,264l.68,2.45.37,1.33.5.61.28.12.28.08.37.25.67.61.91,1.14.22.16.3.16.22.49.26.9-.22-.09-.14-.2-.1-.28-.09-.32-.12-.19-.61-.41-.2-.23-.34-.52-.2-.26-1.85-1.52.17.63.68,2.46.69,2.46.68,2.46.68,2.46.68,2.46.68,2.46.68,2.46.68,2.46.68,2.46.68,2.46.67,2.46.68,2.46.67,2.46.67,2.46.67,2.46.67,2.46.67,2.46.67,2.46.67,2.46.67,2.46.67,2.46.67,2.46.66,2.46.67,2.47.66,2.46.66,2.46.66,2.47.31,1.16.38,1.21.16.56.15.56.15.57.15.56.2.66.22.71.13.69-.06.61-.19.67-.1.72.08.74.33.71.4.5.53.46.49.45.45.4.28.25.27.27.25.3.2.36.22.69.13.71.11.7.15.68.5.92.73.67.79.61.67.71.78.93.84.69.88.58.78.51,1.7,2.35.51.52.71.34.39.26.24.4.19.48.28.45.64.77.68.6.77.49,2.44.94.34.27.23.43.27.34.45.13,4.29-.17.73-.21h.44l.26.24.24.16.41-.11.69-.35,2-.34,1.12.26,1.86-.47,3.2.07.64,0h0l.4,0,3.24.69,1.14.54.19.07.42.09.25,0,.23.2.24.19.53.24.39.35.18.37.11.38.14.37.27.35.44.34.48.3.49.26.46.22.68.25.7.16.7.12.68.13.38,0,.46-.09.37-.26.16-.45-.07-.27-.16-.31-.18-.32-.13-.28v-.36l.17-.21.08-.08.34-.19.32-.06.64,0,.36.14.26.25.19.37.33.95.2.42.24.38.28.37h.26l.23.08.21.16.22.27.17.33.25.64.22.26.38.3.15.17.36.59.19.21.21.14.26.09.45.08,1.56-.05.64.08.34,0h.11l.38.12h.12l.08.17.21,0,.43.23.22.08.21,0,.44-.08.2-.08.17-.11.35-.36.11-.19,0-.11,0-.3,0-.13.07-.14.06-.07,1-.52.39-.12,1.28-.06.45.1.31.32.18,0,.51.13.19.08.41.27.21.18.12.15.23.08.64.45.23.09.23,0,.23,0,.93-.46.17-.2.08-.2.16-.71.19-.55.27-.39.35-.28.92-.39,3-2.49.57-.77.34-.31,3.28-1.52.35-.37.34-.5.34-.35.4-.24,2.43-.68.84-.49.26-.09.07-.06.08-.1.12-.23.08-.09.32-.1.36.08.7.29.71.17.68,0,.72-.18,1,.14.06,0,.06.58.05.52.09,1,.12,1.26.1,1,.08.87.06.69.56.32.49.27.75.42.64.35.17.1v0l.15-.12.19-.09.09-.1.07-.13.87-1,.31-.17.12-.22.2-.93.15-.34.6-.38,1.41-.5.43-.61,0-.08,0,0,.09-.08-.41-.28-.49-.43-.36-.45,0-.38-.21-.27-.23.37-.34,0-.39-.16-.4,0-.38.08-2.49-.06-.45.11h-.38l-.28-.21-.26-.29-.29-.25-.26-.12.31-.06.52.37.25.11h.24l1.31-.61.24-.05H171l.31.14.56.38.19,0,.17,0h.34l.91-.28.57-.37.27-.27.15-.28.06-.21.1-.22.13-.19.33-.23.06-.17,0-.44.19-.87,1-2.35.91-1.08,2.52-1.35.82-1.19.35-1.23,0-.74.21-.39.5-.67.2-.73.24-2v-.84l-.05-.38-.1-.41.14-.57.66-.54.48-.23.57-.68,0-.75-.14-1.27-.24-.29.92-1.1.84-.84.93-.73.44-.29,1-.31.3-.17.51-.54,1.24-2.9.23-.32.63-.4.37-.56.23-.25.52-.37.4-.63v-.28l-.2-1.24v-.41l.16-.25.85-.79L194,329l.49-.5.43-.69.82-1.79.27-.13h.34l.41-.08h.15l.37.09h.17l.74-.28.34-.23.56-.67.67-.44.92-.93.65-.49,1.51-.69L203,322l.22-.43.2-.13.57-1,.11-.27,0-.27v-.12l.05-.84,0-.26,2-4.75.38-.55,1.52-1.46.41-.64.29-.74.15-.84.15-1.75.17-.29.09-.58,0-1.09-.08-1.06,0-.54.15-.29.06-.28-.28-1.11v-.38l.13.06.24,0,.14,0,.21-.37.32-.4.38-.35.76-.43.18-.15.23-.4.36-.33.1-.19.09-.56V299l0-.27-.1-.27-.13-.27-.11-.31,0-.37.12-.4.23-.49.11-.45-.22-.26.1-.31.21-.11.21-.07.14-.2.09-.22.43-.56.15-.33.18-1,.1-.25.25-.37.08-.23v-.48l-.17-1v-.43l.23-1.29,0-.43-.08-.54-.08-.29-.09-.17-.08-.18.09-.22.13-.21,0-.14-.12-.38-.28-1.15-.06-.4.17-.83-.06-.4-.4,0-.82.22h-.46l-.44-.16-.93-.87-.38-.2-.43-.05-.83.06-.41-.1-.74.74-1,.17-1.16-.21-1.08-.43-.09.15-.17.15-.18,0-.31-.37-.19,0-.21,0-.53,0-.73.18-.34-.09-.23,0-1,.23-.7.43-2,.81-.46.35-.43.72-.19.17-.33.07-.19-.16-.18-.27L196,285l.71-.33.33-.25.18-.31-.09-.36-.33-.15-.43,0-.81.15-1.42-.18-.34.1-.91.56.27-.21.38-.48.31-.19,1.63-.26.69.1h.19l.13-.09.12-.12.14-.09.37-.08.33.06.67.32.36.13.23-.06.54-.34,3-.37.25-.17.21-.36.35-.07,1.51.4.4,0,.38-.07.36,0,.86.43.4.08.7-.26.71-.44.72-.29.71.19.81.31.37.14.4.23.62.49.34.17h.34l.48-.25.22,0,.57.07.2-.06.26-.26.18-.39.45-1.74v-.09l-.05-.11,0-.13,0-.13.07-.06.22,0,.08-.05.16-.33.12-.39.16-.36.26-.24.23-.32,0-.55,0-1.09.52-1.77.15-1-.28-.74V273l-.11-.75.09-1.25.08-.14.15,0,.17,0h.14l.53-.52.09-.78-.46-2.93,0-.44.18-.25.6-.3.17-.22.09-.35,0-.23-.06-.2v-.16l.29-.24.15-.3.25-.28.59-1.15,0-.19v-.23l0-.21.13-.14,1.81-.94-.26-.19-.47.14-.25-.21.65-.79-.34-.49-.11-.6.06-.58.13-.44.22-.24.71-.53.17-.29.07-.16.36-.46.24-.7.11-.13-.13-.22-.34-.46L222,254l-.32-.22.16,0,.51.07.15.45.67.29.25.51,0,.4-.48,1.16.46-.2.2-.14.17-.2.25-.64.16-.27,1.28-.9.4-.48-.2-.39-.07-.15-.24-.31h-.2l-.36.32-.28,0-.85-.26-.06-.13.26,0,.75-.27.1-.09.1-.26.08-.11.1-.05.25-.07.09-.08.07-.6-.15-.61,0-.41h.63l.1-.38,0-.23-.06-.27h.44l.4-.19.61-.45.37-.13.84-.11.64-.23.12-.1.07-.17,0-.28.06-.17.29-.37.12-.09.81-.36.33-.29.2-.1.24,0,.29-.45.41-.28,2-.85.23-.34L235,242l.06-.67-.1-.54-.25-.7-.34-.65L234,239l-.23-1,0-.27,0-.37.16-.78v-.32l-.13-.38-.2-.26-.23-.24-.21-.32-.11-.34-.07-.39,0-.39v-.69l0-.41.12-.38.23-.23h.36l.26.15.18,0,.1-.4,0-.46-.07-.54,0-.48.21-.41-.12-.18-.2-.2-.13-.16-.05-.24v-.28l0-.51.27-.75,1.11-.92.48-.57.14-.38.06-1.37.18-.8.17-.37.23-.23-.16-.1-.13-.14-.12-.18-.09-.21h.28l.49.15.27,0,.15,0,.24-.15.13-.06.57,0,.44-.11,0-.08.07-.18.15-.23,0-.16-.1-.17h-.23l-.32.2-.28.25-.14.19-.56-.23-.25-.24-.09-.41,0-.38.17-.64.24-.51.19-.22.25-.11.29.09.12.12.14.2.12.21,0,.15,0,.16.1.06.77.07.39-.28.36-.4.4-.32.52-.2h.28l.29.12.3,0,.65-.35.33,0-.26-.26-.31-.37-.13-.34.27-.19.06.38.19.12.22-.08.16-.2.06-.27.09-1.12.24-.51.45-.2h.56l.55.12h.37l1.31-.55,1.24-1.1,1.09-.71.77-.82,1.91-1.13.11-.11.2-.33.08-.08.76.23.44.07.2-.2.19-.29.44-.17,1.19-.25,1.22-.57.22-.25.19-.07-.06,0,.1.06.26.08h.11l.06,0,.09-.09,2.9-1.69,1.06-.91.34-.61.2-.27.3-.16.4-.09h.43l.35.12.39.07,1.44-.28,1.32-.59.1-.12.17-.52.1-.14.71-.52.46-.49,2.16-1.32.14,0,.34.07.17,0,.55-.34.18,0,.19.08.3.23.14.07h.19l.12-.07.1-.11.15-.11h.17l.34.2.13,0,.7-.7.32-.19.36-.08.35,0,.33.17.28.36H276l.2-.07.31-.18,0-.15,0-.43.06-.19.28-.24,1.14-.34.55-.41.25-.3.09-.29-.13-.11-.23-.18-.14-.21.18-.22.59-.31.62-.1.18-.13,0-.15v-.46l.08-.19.17-.14.15,0,.32.22.2.08h.16l.35-.17.91-.66h.32l.23-.3.07-.16,0-.25.24,0,.26-.21.45-.51.07.13-.36.57.08.15,2-.82,1.39-.85.2,0,.17.09.17,0,.17-.15,0-.17,0-.22v-.22l.1-.17.13-.06.07.06.06.11.12.12h.06l.1-.14.17-.18.11-.16.14-.12.2,0,.3.11.35.08.73.05.35-.07,1-.5,1.51-.45.33-.21.13-.16.06-.19.08-.17.17-.05h.2l.17,0,.48-.28.3-.08.33.1.24.25.45.13.44.25.21.62h.45l.31-.28.43-.77.61-.56.24-.34,0-.49h.26l.16.22,0,.3-.11.2-.19.15-.87,1.12-.15.13-.16.19-.18.5-.24.16.08.14.85-.39.25-.22.47-.74.58-.56.66-1.1.85-.75,1.08-1.42,1-.71.3-.07.65.06.16-.08-.28-.28.14-.1h.47l.06-.1v-.12l0-.1,0,0,.26-.32.33,0,.09,0,0-.07-.07-.13-.06-.15v-.12l.2-.15.23,0,.24,0h.23l.06-.07.09-.22.1-.05h0l.07,0,0,0v0l.1.12.09.07H307v-.1l.56-1.73.28-.45.39-.06-.18.23-.15.28-.06.34.11.4.18-.17.53.17.11-.18v-.39l0-.31.12-.23.26-.15,0,.08,0,.08,0,.08v.1l.68-.38.13-.21.06-.2.08-.49.3.65.34,0,.61-.61.08-.16.05-.54.06-.15.34-.24.28-.31.09.33.17,0,.1,0,.05-.11,0-.16,0-.14h.11l.12,0h.11l.12,0,.26.23h.14l.08-.12,0-.11-.12-.1-.17-.08.11-.25.23-.12.52-.14,0-.2-.37-.63v-.27l.22.27.21.11.17,0,.13-.23.06.26v.25l0,.23-.06.2.34-.05.08-.52,0-.63.13-.39.27-.18,0,.07.26.44.11.26,0,.25-.06.23.5-.29.1.4h.09l.08-.2.06-.23v-.38l.07-.12.11-.07.08-.1v-.22l.41,0,.26-.19.12-.36,0-.44.13-.12.24.08h.16l-.14-.37v-.17l.09-.18.22-.29.36-.72.12-.45-.09-.44-.17-.17,0,.23.06.33.08.15-.2,0-.19-.11-.15-.23-.08-.28-.3,0-.11,0-.07-.13.11-.45v-1.06l.07-.45.21,0,.22-.25.23,0,.07-.21,0-.2.05-.18.33-.3.35-.54.63-.52.1-.19,0-.29-.06-.32,0-.28.06-.23.08-.16,0-.18-.13-.3-.05-.26.07-.25.12-.23.06-.23,0-.23-.16-.57,0-.25.09-.16.15-.06.12-.12,0-.31-.17,0-.14,0-.08-.11v-.17l.09-.1.4-.16.15-.12.12-.35v-.72l.12-.39.11-.14.08-.06,0-.09v-.22l-.08-.22-.13-.17-.11-.16v-.17l.26,0,.39.18.31,0v-.43l-.11-.22.19-1.31-.13-.57-.37-1-.07-.39.09-.23.17.06.19.23.13.25.06.31,0,.66.1.31.43.49.52.27h.46l.25-.38h-.14l-.11,0-.11-.08-.13-.12.23-.27.07-.19,0-.19-.09-.27.06-.18.08-.17V159l-.22-.22-.33-.3-.18-.34.23-.34-.25-.12h-.11l-.12,0,0-.25-.07-.23-.1-.23-.12-.21-.1-.07h-.21l-.1-.08-.05-.11,0-.17,0-.09-.14-.51-.11-.25-.17,0-.11.13-.09.13-.13,0-.26-.13,0-.22.1-.07h.11l.09-.07,0-.16v-.28l0-.15.09-.25.15-.27.22-.11.28.19.08.72.12.34.27-.07,0-.13,0-.6.06-.34.1-.31-.12-.15-.1,0-.09,0-.1,0-.15-.35-.05-.25,0-.24.24.18.15-.08,0-.24,0-.29h.16l.58-.71.06-.23V151l.06-.24.3-.31.11-.2,0-.27-.08-.28,0-.24.13-.15-.71,0-.36-.06-.38-.21-.26-.31-.08-.26.08-.09.2.22.16.12h.2l.17-.07.08-.12-.09-.18-.17-.15-.17-.1-.07,0-.09-.38.15-.12.27.11.28.3.14-.28.65-2,.58-.13,1.28,0,.54-.26-.31-.25-.12-.92-.32,0,.35-.18.13.07.09.28.23.42.3.25.24-.06.51-.52.07-.39.06-.17.06,0h.22l.11-.06.55-.79,0-.22.19.05.52-.77,0-.18.06-1,.2-.95.29-.43,0-.67.13-.26.09.27.15.21.18.11.2,0,0-.13-.06-.21-.22-.47-.14-.56.09-.26.21-.19.2-.34.07.22.11.23.15.21.17.15.15,0,.09-.07.38-.51.1-.63.2-.18.05.23v.39l.06.25.92-1.15v-.1l0-.12,0-.11.05-.08h.12l.24.25.11,0,.15-.18v-.23l-.15-.21-.29-.16.12-.22.17-.08.18,0,.17-.08.3-.52.71-.86.34-.26.44.11.1.65.61.4.65.15.24-.06v-.26l.25-.17.51-.17ZM326.68,245l0-.15,0,.07ZM322,166.16l-.17-.08-.75-.65-.4-.08-.16.19.07.32.31.31.21.15.08.07h.05l.16-.06v-.09l0-.15,0-.12.21,0,.18,1.13.1.28.23.25.13-.09.07-.26,0-.25,0-.13.06-.08,0-.1-.07-.17ZM270.6,205.25l.31-.3-.16-.25-.68-.39H270l-.06,0-.08-.06-.14.44.16.38.35.23Zm55.15,43-.23.19-.27.31-.23.36-.09.33.11.46.49,1,.07.45v.27l.07.85-.06.76.31.38h.36l.65-.37.4-.63.22-.22.16.25.36-.2.35-.28.17-.4-.16-.59,0,.39-.08.24-.17.13-.63.15h-.28l-.28-.1-.29-.22,0,.49-.3.11-.36-.11-.17-.14,0-.34-.11-.73v-.3l.08-.32.14-.21.49-.31v-.22l-.09-.45-.06-.46.11-.28.61-.22.11-.21-.06-1.92.19-1.29.2-.6.3-.47-.52.39-.26.63-.36,2.94-.28.63-.57.1L326,248l.25-1,.23-.31.18-.4,0-1.3L325.9,248Zm-1.07-101.63-.07-.09-.08-.06-.17-.28-.18.26-.56.29-.23.22-.19.58,0,.38,0,.31,1.19-.38.16-.23.28-.78,0-.22-.09,0Zm2.17,91.92.11-.43.19-.17.08-.09.13-.06,0-.07-.09,0-.41.15-.49.63v.12l.07.07Z"/></g></g></svg>