<svg id="Layer_1" xmlns="http://www.w3.org/2000/svg" viewBox="0 0 96 96" version="1.1" xmlns:xlink="http://www.w3.org/1999/xlink" >
<g>
<path class="st0" fill="#fff" d="M77.5 31.9c-.2-1-.9-1.8-1.9-2.2-1-.4-2-.2-2.8.4l-10.6 7.7-2.8 7.2V29L51 16.1c-.6-1-1.8-1.6-2.9-1.6-1.2 0-2.3.6-2.9 1.6L36.8 29v57.1c0 1.9.8 3.6 2 4.9-.2.1-.3.1-.5.2l-7 1.3c-2.2.4-4.4-1.1-4.8-3.3l-.6-3.3 10.9-2v-4.1l-11.6 2.1-.7-3.9c6.3-1.1 10.5-7.2 9.4-13.5-1.1-6.3-7.2-10.5-13.5-9.4l-.8-4.6 15.1-2.7L37 60.4V49.2l-2-11.1-9-9.6c-.7-.7-1.7-1.1-2.7-.9-1 .2-1.8.9-2.2 1.8l-5 12.1 8.7 48c.6 3.3 3.8 5.5 7.1 4.9l7-1.3c.7-.1 1.4-.4 2-.8 1 .5 2.1.9 3.4.9h8.3c.3 0 .6-.1.9-.1l1.6.6c3.1 1.2 6.7-.4 7.9-3.5l17.5-45.5-3-12.8zm-59.6 9.9l4.8-11.6c.1-.3.4-.5.7-.6.3-.1.7 0 .9.3l8.6 9.2.2.9L18 42.6l-.1-.8zm.3 1.5l15.1-2.7.6 3.2-15.1 2.7-.6-3.2zM24 75.5c5-.9 8.2-5.6 7.3-10.6-.9-5-5.6-8.2-10.6-7.3l-.3-1.8c6-1.1 11.7 2.9 12.8 8.8s-2.9 11.7-8.8 12.8l-.4-1.9zm33.1 2h-18V40.1H57v5.5c-7 .6-12.5 6.5-12.5 13.6S50 72.2 57 72.8v4.7zm0-42.1h-18v-3.8H57v3.8zm0 13.2c-5.3.6-9.5 5.1-9.5 10.6s4.2 10 9.5 10.6V72c-6.5-.6-11.7-6.1-11.7-12.8 0-6.7 5.1-12.2 11.7-12.8v2.2zm-10-31.2c.4-.7 1.5-.7 2 0l8 12.3v1.1h-18v-1.1l8-12.3zm-7.6 74.3l.1.1s0-.1-.1-.1zm4.4-.8c-2.6 0-4.8-2.2-4.8-4.8v-4H57v4c0 2.6-2.2 4.8-4.8 4.8h-8.3zm10.8 1.9zm6.1-3.2c-.7 1.9-2.7 2.9-4.7 2.5 2-1.3 3.3-3.5 3.3-6v-.7l2.6 1-1.2 3.2zm12-31.1c-4.3-1-8.7 1.4-10.1 5.7-1.3 4 .5 8.3 4 10.2l-.7 1.8c-1.9-1-3.5-2.6-4.5-4.6-1.3-2.5-1.5-5.3-.6-8 .9-2.6 2.7-4.8 5.2-6 2.3-1.1 4.9-1.4 7.3-.8l-.6 1.7zm.9-2.4c-2.7-.7-5.4-.4-7.9.8-2.7 1.3-4.7 3.7-5.6 6.5s-.7 5.9.6 8.6c1.1 2.2 2.8 3.9 4.9 5l-2.2 5.8-4.1-1.6V50.6l1.3-3.3L75 52.9l-1.3 3.2zm2.7-7l-14.3-5.5 1.2-3 14.3 5.5-1.2 3zM63.5 40l.3-.8L74 31.7c.3-.2.6-.2.9-.1.3.1.5.4.6.7l2.6 12.3-.3.8L63.5 40z"></path>></g>
</svg>
