<svg id="Layer_1" xmlns="http://www.w3.org/2000/svg" viewBox="0 0 96 96">
								<style>.st0{fill:#FFFFFF;}</style>
								<path class="st0" d="M10.8 67.9c0-.3-.2-.5-.5-.5s-.5.2-.5.5v9.7c0 2.1 1.1 3.6 3.1 4.4h.2c.2 0 .4-.1.4-.3.1-.2 0-.5-.3-.6-1.6-.7-2.4-1.8-2.5-3.6v-9.6zm11 19.4c-1.6-1-2.4-2.7-2.4-5.3V68.2c0-.3-.2-.5-.5-.5s-.5.2-.5.5V82c0 2.9 1 5 2.9 6.1.1 0 .2.1.2.1.2 0 .3-.1.4-.2.2-.3.1-.6-.1-.7z"></path>
								<path class="st0" d="M93.1 60.6H89v-3.8c0-4.5-3.4-8.2-7.8-8.6-.3-4.3-3.9-7.8-8.4-7.8-4.6 0-8.4 3.8-8.4 8.4v11.8H31.5V48.8c0-4.6-3.8-8.4-8.4-8.4-4.4 0-8 3.4-8.4 7.8-4.3.4-7.7 4.1-7.7 8.6v3.8H2.9c-.5 0-.9.4-.9 1v11.3c0 .5.4.9.9.9H7v3.8c0 4.5 3.4 8.2 7.8 8.6.3 4.3 3.9 7.8 8.4 7.8 4.6 0 8.4-3.8 8.4-8.4V73.7h32.8v11.8c0 4.6 3.8 8.4 8.4 8.4 4.4 0 8-3.4 8.4-7.8 4.4-.4 7.8-4.2 7.8-8.6v-3.8h4.1c.5 0 .9-.4.9-.9V61.6c0-.6-.4-1-.9-1zM7 71.9H3.8v-9.4H7v9.4zm7.8 12.4c-3.3-.5-5.9-3.3-5.9-6.8V56.8c0-3.5 2.6-6.3 5.9-6.8v34.3zm14.9-22.7v24.1c0 3.6-2.9 6.5-6.5 6.5-3.4 0-6.2-2.6-6.5-5.9v-38c.3-3.3 3.1-5.9 6.5-5.9 3.6 0 6.5 2.9 6.5 6.5v12.7zm34.8 1.2v9.1h-33v-9.4h32.9v.3zm14.9 23.4c-.3 3.3-3.1 5.9-6.5 5.9-3.6 0-6.5-2.9-6.5-6.5V48.8c0-3.6 2.9-6.5 6.5-6.5 3.4 0 6.2 2.6 6.5 5.9v38zm7.7-8.7c0 3.5-2.6 6.3-5.9 6.8V50.1c3.3.5 5.9 3.3 5.9 6.8v20.6zm5.1-5.6H89v-9.4h3.2v9.4z"></path>
								<path class="st0" d="M82.7 81.1c-.2.1-.4.4-.3.6.1.2.2.3.4.3h.2c2-.8 3-2.3 3.1-4.4v-9.7c0-.3-.2-.5-.5-.5s-.5.2-.5.5v9.7c.1 1.7-.7 2.9-2.4 3.5zm-6.1-12.9V82c0 2.6-.8 4.4-2.4 5.3-.2.1-.3.4-.2.6.1.1.2.2.4.2.1 0 .2 0 .2-.1 1.9-1.1 2.8-3.2 2.9-6.1V68.2c0-.3-.2-.5-.5-.5-.2 0-.4.2-.4.5z"></path>
							</svg>
