<svg id="Layer_1" xmlns="http://www.w3.org/2000/svg" viewBox="0 0 96 96">
								<style>.st0{fill:#FFFFFF;}</style>
								<path class="st0" d="M66.4 17.7c-.4-.3-.7-.9-.9-2 0-.3-.3-.4-.5-.4-.3 0-.4.3-.4.5.2 1.3.6 2.2 1.3 2.6.4.3.8.4 1.3.4.6 0 1.3-.2 1.9-.3 1.2-.3 2.4-.6 3.3.1.2.2.5.1.7-.1.2-.2.1-.5-.1-.7-1.3-1-2.8-.6-4.1-.3-1.1.4-2 .6-2.5.2zm-.7 6.5c-1 .2-1.9.5-2.5.1-.4-.3-.7-.9-.9-2 0-.3-.3-.4-.5-.4-.3 0-.4.3-.4.5.2 1.3.6 2.2 1.3 2.6.4.3.8.4 1.3.4.6 0 1.3-.2 1.9-.3 1.2-.3 2.4-.6 3.3.1.2.2.5.1.7-.1.2-.2.1-.5-.1-.7-1.3-.9-2.8-.6-4.1-.2zm-3.5 7.5c-1 .2-1.9.5-2.5.1-.4-.3-.7-.9-.9-2 0-.3-.3-.4-.5-.4-.3 0-.4.3-.4.5.2 1.3.6 2.2 1.3 2.6.4.3.8.4 1.3.4.6 0 1.3-.2 1.9-.3 1.2-.3 2.4-.6 3.3.1.2.2.5.1.7-.1.2-.2.1-.5-.1-.7-1.3-.9-2.8-.5-4.1-.2z"></path>
								<path class="st0" d="M74.2 37.8c2.7-8.8 4.2-17.3 4.4-25.5.1-2.6-1.2-6-3.7-7.6-1.2-.8-3.2-1.4-5.8-.1-4 2.1-6.9 8.2-9.3 13.2-.1.3-.3.6-.4.8 0-2.1-1.4-3.5-2.7-4.4-.5-.4-1-.8-1.6-1-.3-1.3-.9-2.4-1.8-3.3-1-1.3-2.3-1.6-2.9-1.7-.5-1.1-1.1-2-1.8-2.6-.7-.6-1.6-1.1-2.5-1.2-1-.1-2 .1-2.8.6-.1 0-.1 0-.2-.1-.7-.3-1.4-.5-2.2-.5-2.3 0-4.2 1.5-4.8 3.6-4.3.5-4.9 4.5-5 5.7-2.5 1-4.1 2.5-4.7 4.3-.7 2.1 0 4 .3 4.7-1.8 2-1.5 4.1-1 5.3-1.3-1.2-3-2.2-4.9-2.1-.7 0-1.3.6-1.3 1.4 0 .7.6 1.3 1.4 1.3h.1c1.3 0 2.5.8 3.3 1.8-1.4.2-4.1.8-5.6 3-.5.7-.8 1.5-.9 2.4-.2 1-.1 2.2.2 3.5-.2.4-.5 54.4-.5 54.4h57.7s.3-55.4-.2-55.8c-.3 0-.5-.1-.8-.1zM69.9 6.5c1.4-.6 2.5-.7 3.6-.1 1.8 1.1 2.9 3.7 2.8 5.6-.2 8.6-1.9 17.6-5 26.8l-.6 1.8-1.9.8h-6.6l-.4-.2c-1.4-.8-2.8-1.2-4.3-1.2h-.1c-1.5 0-2.9.3-4.2 1.1l-.4.2h-2.1c1.9-4.6 4.7-11.4 7.5-17.7.1-.2.2-.5.4-.7.6-1.1 1.3-2.4 2-3.8 2.3-4.5 5.6-10.8 9.3-12.6zM32.7 26.2s-.1 0 0 0h-1.2c-.2 0-.5 0-.7.1h-.3c-.3.1-.6.1-.9.2h-.1c-.7.3-2.1 1.2-2.7 1.7-.1-.3 0-1.6 0-2 0-.4-.1-1-.2-1.6.2-.4.5-.9 1-1.3l.3-.3-.2-.3s-.4-.7-.6-1.6c0-.5.1-1 .1-1.4 0-.8.1-1.5.3-2.1.5-.8 1.3-1.6 2.3-2.2.2-.1.5-.1.8-.1l1.5-.8-.1-1V13c.3-1.5 1.2-4 4.7-4.1h.4l.1-.4s.3-1.8 1.7-2.6c1.1-.6 2.5-.6 4.3.1l.2.1.2-.1s1.7-.9 3.4-.3c.4.2.8.4 1.1.7 0 .1.1.1.1.2s.1.1.3.1c.5.5.9 1.2 1.2 2.1l.1.3h.3c.1 0 3 .1 3.7 4.5v.3l.3.1s4.4 1.4 4.3 4.8c0 .9-.1 1.6-.1 2-.3.7-.7 1.4-1 1.8-.8-.9-2.3-1.6-3.3-2-.1-.1-.3-.1-.4-.2-.1 0-.1-.1-.2-.3 0-.2 0-.5.2-.7.6-.7.9-1.8.7-2.7V16c-.2-.8-.7-1.5-1.4-2s-1.6-.6-2.4-.4l-.4.1-4.3 1-4.2.9c-.8.2-1.5.7-2 1.4s-.6 1.6-.4 2.4l.1.4.1.4c.2 1 .9 1.8 1.8 2.2.2.1.4.3.5.5 0 .1 0 .2-.1.3-.1.2-.3.4-.5.6-.2.2-.3.4-.5.7-.1.1-.1.2-.2.2-.1.2-.2.3-.4.5-.1.1-.1.2-.2.3-.1.2-.2.4-.3.5-.1.1-.1.2-.2.3l-.3.6c0 .1-.1.2-.1.3-.1.3-.2.7-.3 1v.2c-.1.3-.1.6-.2.9v.1c-1.2-1.4-2.9-2.5-5.2-3.2H33c-.1.1-.2 0-.3 0zm9.6-5c-.9.2-1.7-.4-1.9-1.2l-.4-1.3c-.2-.9.4-1.7 1.2-1.9l10-2c.9-.2 1.7.4 1.9 1.2l.3 1.3c.2.9-.4 1.7-1.2 1.9l-9.9 2zm-1.2 19.6c.3-2.3.4-6.3-1.5-9.6-.1-.2-.2-.7-.2-1.3.3-2.9 2.1-4.8 2.9-5.7l.2-.2c.1-.1.3-.2.4-.3.5-.3.1-1.1.1-1.1l9.3-2.3.1.1c.1.2.2.5.5.8l.1.1.2.1c1 .3 2.5 1 3.4 1.7.3.3.5.6.6.7v.2c-3.1 7-6 14.1-7.4 17.5-.5 0-8.9.3-8.8.3 0-.1.1-.4.1-1zM27.6 30.2c.5-.4.9-.8 1.3-1.2 1.3-1.1 2.4-1.6 3.5-1.8h.8c.8.3 1.6.6 2.3 1l.1.1c.1.1.2.2.4.3.1.1.2.2.4.3.1.1.3.3.4.5.1.1.2.2.3.4.2.2.3.4.5.6.1.1.2.2.3.4.2.2.4.5.5.8.1.1.2.2.2.4.3.4.5.8.8 1.3.3.5.5 1 .7 1.5.1.3.2.7.2 1 .3 2.2.1 4.2-.1 5.4-.6-.1-1.2-.3-1.7-.6l-1.2-.7c-1.3-.8-2.8-1.2-4.3-1.2h-.1c-1.5 0-3 .4-4.4 1.2l-.6.3c-1 .6-2.1.9-3.2.9s-2.2-.3-3.2-.9l-2.2-1.3c-.1-.1-.3-.2-.4-.2-.3-1.4-.3-2.7.1-3.7.8-1.1 2.4-2 5-2.7 1.3-.4 2.5-1.1 3.6-2.1zm45 60.9H20V42.4s2.9.7 7.2 1.4c1.8.3 3.7-2.5 5.9-2.2 2.1.3 6.3 2.9 8.6 3.1 1.9.2 2.1.1 4.1 0 1.9 0 3.9-.1 5.9-.2 1.8-.1 3.6-1.5 5.4-1.7 1.8-.2 3.9 1.7 5.6 1.7 6.2 0 10-1.6 10-1.6v48.2z"></path>
								<path class="st0" d="M24.4 51.4c-.3 0-.5.2-.5.5v33.3c0 .3.2.5.5.5s.5-.2.5-.5V51.9c0-.3-.2-.5-.5-.5zm42.9 34.3c.3 0 .5-.2.5-.5V51.9c0-.3-.2-.5-.5-.5s-.5.2-.5.5v33.3c.1.3.3.5.5.5z"></path>
							</svg>
