<svg id="Layer_1" xmlns="http://www.w3.org/2000/svg" viewBox="0 0 96 96">
								<style>.st0{fill:#FFFFFF;}</style>
								<path class="st0" d="M57.8 72.5L69 59.6c.6-.6.7-1.5.3-2.3-.3-.8-1-1.3-1.9-1.3H52.7V42c0-4.4-2.8-8.4-7-9.8-.8-.3-1.3-1-1.3-1.8V6.7c0-1.3-1.1-2.4-2.4-2.5l-4.7-.1c-.7 0-1.3.2-1.8.7-.5.6-.7 1.2-.7 1.8v22.2c0 1.6-.9 3.1-2.3 3.8-3.6 1.7-6 5.4-6 9.4v48.2c0 1.7 1.4 3.1 3.1 3.1l19 .1c.4.5 1 .8 1.7.8h11.9c1 0 1.8-.6 2-1.5.3-.9-.1-1.9-.9-2.4l-5.4-1.9c-.1-.1-.2-.2-.2-.4V72.8c0-.1 0-.2.1-.3zm-15-55.1h-6.4v-.8h6.4v.8zM36.6 6c.2-.2.4-.2.6-.2l4.7.1c.5 0 .9.4.9.9v9.1h-6.4V6.6c0-.2.1-.4.2-.6zM28 52.2h11.1v25.1H28V52.2zm0 38v-12h12V51.4H28V42c0-3.4 2-6.5 5.1-8 2-.9 3.2-3 3.2-5.2V18.2h6.4v12.1c0 1.5 1 2.8 2.4 3.3 3.5 1.2 5.9 4.6 5.9 8.3v14h-7c-.8 0-1.6.5-1.9 1.3-.4.8-.2 1.6.3 2.3l8.6 9.9v19.9l-1.9.8-.1.1c-.4.3-.7.7-.9 1.1-.1.1-.1.3-.1.4l-18.6-.1c-.7.1-1.4-.6-1.4-1.4zm24.7-18.9l1 1.2c.1.1.1.2.1.3v15.1c0 .2-.1.3-.2.4l-.9.4V71.3zM57 89.7l5.4 1.9c.2.2.2.4.2.6 0 .1-.1.4-.5.4H50.2c-.1 0-.2 0-.3-.1l-.1-.3s-.1-.2 0-.4l.1-.1 4.5-1.8.1-.1c.6-.4 1-1.1 1-1.8V72.8c0-.5-.2-1-.5-1.4l-2.2-2.5v-.1l-9-10.3c-.2-.2-.1-.4-.1-.5 0-.1.2-.3.5-.3h23.3c.3 0 .4.2.5.3 0 .1.1.3-.1.6L56.6 71.4c-.3.4-.5.9-.5 1.4v15.1c-.1.8.3 1.4.9 1.8z"></path>
								<path class="st0" d="M38.4 24.4c-.2 0-.4.2-.4.4v5.5c0 3-2 4.3-4.1 5.6-2.1 1.4-4.3 2.8-4.3 5.9V47c0 .2.2.4.4.4s.4-.2.4-.4v-5.2c0-2.7 1.9-3.9 3.9-5.2 2.2-1.4 4.4-2.9 4.4-6.3v-5.5c.1-.3-.1-.4-.3-.4zm20.8 42.2c.1 0 .2 0 .3-.1L66 59h-4.2c-.2 0-.4.2-.4.4s.2.4.4.4h2.5L59 66c-.1.2-.1.4 0 .6 0-.1.1 0 .2 0z"></path>
							</svg>
