<svg id="Layer_100" xmlns="http://www.w3.org/2000/svg" viewBox="0 0 96 96">
								<style>.st0{fill:#FFFFFF;}</style>
								<path class="st0" d="M80.2 92H63.9c-.3 0-.6-.2-.8-.4l-7.9-11.4-7.7 11.4c-.2.2-.5.4-.8.4H30.3c-.4 0-.7-.2-.8-.5-.2-.3-.1-.7.1-1L44 69 32.8 52.2c-.3-.1-.9-.1-1.2-.1h-.3v18.2c0 .5-.4 1-1 1H15.8c-.5 0-1-.4-1-1V23c0-.5.4-1 1-1h24.3c3.2 0 7.6.1 10.2.8 2.6.8 4.6 2.3 6.4 4.7 1.7 2.2 2.5 5 2.5 8.3 0 3-.6 5.2-1.9 7.4-1.1 1.9-2.7 3.6-4.9 4.9-.8.4-1.8.8-2.9 1.2l5.9 9.2L62 48c.2-.3.5-.4.8-.4H79c.4 0 .7.2.8.5.2.3.2.7 0 1L66.8 69 81 90.5c.2.3.2.7 0 1-.1.3-.4.5-.8.5zm-15.8-1.9h14.1L64.9 69.6c-.2-.3-.2-.7 0-1.1l12.3-19H63.4l-7.1 11.3c-.2.3-.5.4-.8.4-.3 0-.6-.2-.8-.4l-7.4-11.5c-.2-.2-.2-.6-.1-.8.1-.3.3-.5.6-.6 1.5-.5 2.7-1 3.7-1.5 1.8-1.1 3.3-2.6 4.2-4.2 1.2-1.9 1.7-3.8 1.7-6.4 0-2.8-.7-5.2-2.1-7.1-1.6-2.1-3.3-3.4-5.4-4-1.9-.5-5.3-.7-9.7-.7H16.7v45.4h12.7V51.1c0-.5.4-1 1-1h1.3c.6 0 1.5 0 2.2.4.1.1.3.2.4.3L46 68.5c.2.3.2.7 0 1.1L32.1 90.1h14.1L54.4 78c.2-.3.5-.4.8-.4.3 0 .6.2.8.4l8.4 12.1zm-27.9-47h-6.1c-.5 0-1-.4-1-1v-9.7c0-.5.4-1 1-1h6.4c2.6 0 4.7.5 6 1.5 1.2.9 1.9 2.5 1.9 4.4 0 .6-.1 2.1-1.3 3.2-.9.9-1.8 1.5-2.7 1.8-3 .7-3.8.8-4.2.8zm-5.2-1.9h5.2c.2 0 .9-.1 3.6-.7.5-.2 1.2-.6 1.9-1.3.7-.7.7-1.6.7-1.9 0-.9-.2-2.1-1.2-2.8-.5-.4-1.9-1.1-4.8-1.1h-5.4v7.8z"></path>
								<path class="st0" d="M19.6 65.5c-.2 0-.3-.1-.3-.3V27.6c0-.2.1-.3.3-.3s.3.1.3.3v37.6c0 .2-.1.3-.3.3zM48 67.8c-.1 0-.2 0-.3-.1l-11-16.9c-.1-.1-.1-.3.1-.4.1-.1.3-.1.4.1l11 16.9c.1.1.1.3-.1.4H48zm17.1 20.1c-.1 0-.2 0-.3-.1l-7.5-11c-.1-.1-.1-.3.1-.4.1-.1.3-.1.4.1l7.5 11c.1.1.1.3-.1.4h-.1z"></path>
							</svg>
