<svg id="Layer_1" xmlns="http://www.w3.org/2000/svg" viewBox="0 0 96 96">
								<style>.st0{fill:#FFFFFF;}</style>
								<path class="st0" d="M35.6 84.9c-3.6-1.5-5.4-4.1-5.5-8V58.7c0-.4-.3-.7-.7-.7-.4 0-.7.3-.7.7v18.2c.1 4.5 2.2 7.6 6.4 9.3.1 0 .2.1.3.1.3 0 .5-.2.6-.4.1-.5 0-.9-.4-1z"></path>
								<path class="st0" d="M65.2 51.8v-5.6c0-.8-.6-1.4-1.4-1.4H24.3c-.8 0-1.4.6-1.4 1.4v29.5c0 10.7 6.1 17.9 15.2 17.9h12c7.8 0 13.4-5.3 14.8-13.7 4.5-.1 8.2-4.3 8.2-9.4v-9.3c0-5-3.5-9.1-7.9-9.4zM50.1 90.9h-12c-9.2 0-12.4-8.2-12.4-15.2V47.6h36.8v28.1c0 7-3.3 15.2-12.4 15.2zm20.2-20.4c0 3.5-2.3 6.4-5.1 6.6 0-.5.1-1 .1-1.5v-21c2.8.3 5.1 3.1 5.1 6.6v9.3zM43.1 26.2c2.1 1.8 4.2 3.5 4.1 5.6-.1 1.7-1.6 3.6-4.6 5.9-.3.2-.4.7-.1 1 .1.2.3.3.6.3.1 0 .3 0 .4-.1 3.4-2.5 5.1-4.7 5.1-6.9.1-2.7-2.3-4.7-4.6-6.7-2.1-1.8-4.1-3.4-4-5.4 0-1.5 1.2-3.1 3.5-4.9.3-.2.3-.7.1-1-.2-.3-.7-.3-1-.1-2.7 2.1-4 4.1-4 6 0 2.5 2.3 4.5 4.5 6.3zm9.7.2c1.4 1.2 2.7 2.3 2.7 3.6 0 1.1-1 2.3-3 3.8-.3.2-.4.7-.1 1 .1.2.3.3.6.3.1 0 .3 0 .4-.1 2.3-1.7 3.5-3.3 3.6-4.8.1-2-1.6-3.3-3.2-4.7-1.4-1.1-2.7-2.2-2.6-3.5 0-.9.8-2 2.3-3.2.3-.2.3-.7.1-1-.2-.3-.7-.3-1-.1-1.9 1.5-2.8 2.9-2.8 4.2-.2 1.9 1.4 3.2 3 4.5zm-20.7 0c1.4 1.2 2.7 2.3 2.7 3.6 0 1.1-1 2.3-3 3.8-.3.2-.4.7-.1 1 .1.2.3.3.6.3.1 0 .3 0 .4-.1 2.3-1.7 3.5-3.3 3.6-4.8.1-2-1.6-3.3-3.2-4.7-1.4-1.1-2.7-2.2-2.6-3.5 0-.9.8-2 2.3-3.2.3-.2.3-.7.1-1-.2-.3-.7-.3-1-.1-1.9 1.5-2.8 2.9-2.8 4.2-.2 1.9 1.4 3.2 3 4.5z"></path>
							</svg>
