<svg id="Layer_1" data-name="Layer 1" xmlns="http://www.w3.org/2000/svg" viewBox="0 0 129.3 93.14"><defs><style>.cls-1{fill:none;}.cls-2{fill:#0c63aa;}</style></defs><title>Icons_all_outlines</title><polygon class="cls-1" points="88.54 73.29 85.14 73.29 79.88 73.29 67.68 73.29 53.49 73.29 48.24 73.29 44.64 73.29 29.74 73.29 24.44 73.29 17.44 73.29 15.74 73.29 12.18 73.29 12.18 77.61 121.19 77.61 121.19 73.29 108.94 73.29 103.44 73.29 88.54 73.29"/><path class="cls-1" d="M108.94,26.61h3.36V22.19H84.94a.94.94,0,0,1-.94-.94V15.79H49.38v5.46a.94.94,0,0,1-.94.94H21.08v4.42h3.36a.94.94,0,0,1,.94.94V71.41H28.8V50.85a.94.94,0,0,1,.94-.94h14.9a.94.94,0,0,1,.94.94V71.41H47.3V38.55a.94.94,0,0,1,.94-.94h8.23a11.54,11.54,0,1,1,20.33,0h8.33a.94.94,0,0,1,.94.94V71.41H87.6V50.85a.94.94,0,0,1,.94-.94h14.9a.94.94,0,0,1,.94.94V71.41H108V27.55A.94.94,0,0,1,108.94,26.61Zm-7.8,5.72H80.66V32a14,14,0,1,0-28,0v.37H32.24a.38.38,0,1,1,0-.75H52A14.79,14.79,0,0,1,66.61,17.18h.17A14.79,14.79,0,0,1,81.41,31.58h19.73a.38.38,0,0,1,0,.75Z"/><path class="cls-1" d="M30.68,51.79V71.41h13V51.79Zm2.06,11.43a.38.38,0,0,1-.27-.64l7.2-7.2a.38.38,0,0,1,.53.53L33,63.12A.37.37,0,0,1,32.74,63.23ZM42.9,55.82l-7.3,7.3a.38.38,0,0,1-.53-.53l7.3-7.3a.38.38,0,0,1,.53.53Z"/><path class="cls-1" d="M89.48,51.79V71.41h13V51.79ZM91,63.23a.38.38,0,0,1-.27-.64l7.2-7.2a.38.38,0,0,1,.53.53l-7.2,7.2A.37.37,0,0,1,91,63.23Zm10.17-7.41-7.3,7.3a.38.38,0,0,1-.27.11.38.38,0,0,1-.27-.64l7.3-7.3a.38.38,0,0,1,.53.53Z"/><path class="cls-1" d="M19.89,56.35c0-2.83-3.35-6.7-4.19-6.86-.77.16-4.12,4-4.12,6.86,0,2.68,1.86,4.86,4.16,4.86S19.89,59,19.89,56.35Z"/><path class="cls-1" d="M67.68,55.79V71.41H78V55.79ZM68.74,66a.38.38,0,0,1-.27-.64l5.91-5.91a.38.38,0,0,1,.53.53L69,65.91A.37.37,0,0,1,68.74,66Zm8.4-6.11-6,6a.38.38,0,0,1-.53-.53l6-6a.38.38,0,0,1,.53.53Z"/><path class="cls-1" d="M67.68,53.91h12.2v17.5H84.2V39.49H75.54a11.53,11.53,0,0,1-17.8,0H49.18V71.41h4.31V53.91Z"/><path class="cls-1" d="M55.38,55.79V71.41H65.79V55.79ZM56.52,66a.38.38,0,0,1-.27-.64l5.91-5.91a.38.38,0,0,1,.53.53l-5.91,5.91A.37.37,0,0,1,56.52,66Zm8.4-6.11-6,6a.38.38,0,0,1-.53-.53l6-6a.38.38,0,0,1,.53.53Z"/><path class="cls-2" d="M122.14,71.41H109.88V28.49h3.36a.94.94,0,0,0,.94-.94v-6.3a.94.94,0,0,0-.94-.94H85.88V14.85a.94.94,0,0,0-.94-.94H48.44a.94.94,0,0,0-.94.94v5.46H20.14a.94.94,0,0,0-.94.94v6.3a.94.94,0,0,0,.94.94H23.5V71.41H16.68V63a6.56,6.56,0,0,0,5.1-6.65c0-3.52-4-8.74-6-8.74s-6,5.23-6,8.74A6.57,6.57,0,0,0,14.79,63v8.41H11.24a.94.94,0,0,0-.94.94v6.2a.94.94,0,0,0,.94.94h110.9a.94.94,0,0,0,.94-.94v-6.2A.94.94,0,0,0,122.14,71.41ZM11.58,56.35c0-2.83,3.35-6.7,4.12-6.86.84.16,4.19,4,4.19,6.86,0,2.68-1.86,4.86-4.16,4.86S11.58,59,11.58,56.35ZM24.44,26.61H21.08V22.19H48.44a.94.94,0,0,0,.94-.94V15.79H84v5.46a.94.94,0,0,0,.94.94H112.3v4.42h-3.36a.94.94,0,0,0-.94.94V71.41h-3.62V50.85a.94.94,0,0,0-.94-.94H88.54a.94.94,0,0,0-.94.94V71.41H86.08V38.55a.94.94,0,0,0-.94-.94H76.8a11.54,11.54,0,1,0-20.33,0H48.24a.94.94,0,0,0-.94.94V71.41H45.58V50.85a.94.94,0,0,0-.94-.94H29.74a.94.94,0,0,0-.94.94V71.41H25.38V27.55A.94.94,0,0,0,24.44,26.61Zm78.06,44.8h-13V51.79h13Zm-36.7,0H55.38V55.79H65.79Zm1.89-15.62H78V71.41H67.68Zm0-1.88H53.49v17.5H49.18V39.49h8.56a11.53,11.53,0,0,0,17.8,0H84.2V71.41H79.88V53.91ZM72.9,39.49a9.61,9.61,0,0,1-12.52,0,9.72,9.72,0,0,1-1.7-1.88,9.66,9.66,0,1,1,15.92,0A9.73,9.73,0,0,1,72.9,39.49ZM43.7,71.41h-13V51.79h13Zm77.5,6.2h-109V73.29h109Z"/><path class="cls-2" d="M35.07,63.12a.38.38,0,0,0,.53,0l7.3-7.3a.38.38,0,0,0-.53-.53l-7.3,7.3A.38.38,0,0,0,35.07,63.12Z"/><path class="cls-2" d="M32.74,63.23a.37.37,0,0,0,.27-.11l7.2-7.2a.38.38,0,0,0-.53-.53l-7.2,7.2a.38.38,0,0,0,.27.64Z"/><path class="cls-2" d="M93.37,63.12a.37.37,0,0,0,.27.11.38.38,0,0,0,.27-.11l7.3-7.3a.38.38,0,0,0-.53-.53l-7.3,7.3A.38.38,0,0,0,93.37,63.12Z"/><path class="cls-2" d="M91,63.23a.37.37,0,0,0,.27-.11l7.2-7.2a.38.38,0,0,0-.53-.53l-7.2,7.2a.38.38,0,0,0,.27.64Z"/><path class="cls-2" d="M58.39,65.91a.38.38,0,0,0,.53,0l6-6a.38.38,0,0,0-.53-.53l-6,6A.38.38,0,0,0,58.39,65.91Z"/><path class="cls-2" d="M56.52,66a.37.37,0,0,0,.27-.11L62.7,60a.38.38,0,0,0-.53-.53l-5.91,5.91a.38.38,0,0,0,.27.64Z"/><path class="cls-2" d="M76.6,59.38l-6,6a.38.38,0,0,0,.53.53l6-6a.38.38,0,0,0-.53-.53Z"/><path class="cls-2" d="M74.92,59.46a.37.37,0,0,0-.53,0l-5.91,5.91a.38.38,0,0,0,.53.53L74.92,60A.38.38,0,0,0,74.92,59.46Z"/><path class="cls-2" d="M63,26.58H61.34a.37.37,0,0,0,0,.75h1.12l.58,2,.11.39h-.06l.19.48.08.27h0l.28,1h-.07l.19.47.07.28h0l.09.21.27,1.17L63.55,35l-.21,0a1.37,1.37,0,0,0-.55,2.63,1.35,1.35,0,0,0,1.11,0,1.38,1.38,0,0,0,.76-.88h4.17a1.38,1.38,0,0,0,.76.88,1.35,1.35,0,0,0,1.11,0A1.37,1.37,0,1,0,68.82,36H64.65a1.37,1.37,0,0,0-.42-.66l.65-1.39h6.24l.49-1.6.1-.48h0l.4-1.22.1-.48.63-2.26H63.4Zm.81,10.15a.6.6,0,0,1-1,0l-.06-.09a.61.61,0,0,1-.08-.29.62.62,0,0,1,.49-.6l.14,0a.63.63,0,0,1,.63.63A.61.61,0,0,1,63.82,36.73Zm5.69-.37a.65.65,0,0,1,.63-.62.63.63,0,0,1,0,1.25.65.65,0,0,1-.62-.62Zm1.55-5H69.34l.06-.75,0-.2h1.94Zm-2.39-.95,0,.09-.07.86H66.88l-.08-.9v-.05h1.89Zm-2.56.95h-1.7l0-.13h0v0h0l-.2-.8H66Zm-1.19,1.8-.25-1h1.54l0,.15.07.9Zm2.15,0-.08-1v-.05h1.57v.07l-.15,1Zm3.48,0H69.17l.14-.92v-.12h1.57Zm-6.93-4.55h8.21l-.29,1H63.93l-.18-.62Z"/><path class="cls-2" d="M32.24,32.33H52.71V32a14,14,0,1,1,28,0v.37h20.48a.37.37,0,0,0,0-.75H81.41A14.79,14.79,0,0,0,66.77,17.18h-.17A14.79,14.79,0,0,0,52,31.58H32.24a.37.37,0,1,0,0,.75Z"/></svg>