<svg id="Layer_1" data-name="Layer 1" xmlns="http://www.w3.org/2000/svg" viewBox="0 0 129.3 93.14"><defs><style>.cls-1{fill:none;}.cls-2{fill:#0c63aa;}</style></defs><title>Icons_all_outlines</title><path class="cls-1" d="M106.35,43.45a.94.94,0,0,1-.94-.94V19.88H99.49V36.54a.38.38,0,1,1-.75,0V19.88H92.25V36.54a.38.38,0,1,1-.75,0V19.88H85.58V42.51a.94.94,0,0,1-1.88,0V19.88H77.77V36.54a.38.38,0,1,1-.75,0V19.88H70.53V36.54a.38.38,0,0,1-.75,0V19.88H63.86V42.51a.94.94,0,0,1-1.88,0V19.88H56.06V36.54a.38.38,0,0,1-.75,0V19.88H48.82V36.54a.38.38,0,1,1-.75,0V19.88H42.15V42.51a.94.94,0,0,1-1.88,0V19.88H34.34V36.54a.38.38,0,1,1-.75,0V19.88H27.1V36.54a.38.38,0,0,1-.75,0V19.88H20.43V42.51a.94.94,0,0,1-1.88,0V19.88H13.19V70.22h99.45V19.88h-5.35V42.51A.94.94,0,0,1,106.35,43.45Z"/><path class="cls-2" d="M113.59,18H12.25a.94.94,0,0,0-.94.94V71.16a.94.94,0,0,0,.94.94H113.59a.94.94,0,0,0,.94-.94V18.93A.94.94,0,0,0,113.59,18Zm-.94,52.23H13.19V19.88h5.35V42.51a.94.94,0,0,0,1.88,0V19.88h5.92V36.54a.38.38,0,0,0,.75,0V19.88h6.49V36.54a.38.38,0,1,0,.75,0V19.88h5.92V42.51a.94.94,0,0,0,1.88,0V19.88h5.92V36.54a.38.38,0,1,0,.75,0V19.88h6.49V36.54a.38.38,0,0,0,.75,0V19.88H62V42.51a.94.94,0,0,0,1.88,0V19.88h5.92V36.54a.38.38,0,0,0,.75,0V19.88H77V36.54a.38.38,0,1,0,.75,0V19.88h5.92V42.51a.94.94,0,0,0,1.88,0V19.88H91.5V36.54a.38.38,0,1,0,.75,0V19.88h6.49V36.54a.38.38,0,1,0,.75,0V19.88h5.92V42.51a.94.94,0,1,0,1.88,0V19.88h5.35Z"/></svg>